<svg width="32" height="32" viewBox="0 0 32 32" fill="none" xmlns="http://www.w3.org/2000/svg">
<g clip-path="url(#clip0)">
<path d="M11.1543 18.0071C11.1543 18.0071 9.5306 19.4813 11.0664 21.0171C12.6022 22.5529 14.165 21.0178 14.165 21.0178L16.8428 18.3398C19.5405 15.641 19.8735 11.5852 17.1761 8.88873C14.4772 6.18995 10.3269 6.42868 7.63022 9.12724L3.11237 13.643C-1.03746 17.7928 -1.03746 24.5459 3.11237 28.6956L3.29401 28.8773C7.44594 33.0292 14.199 33.0292 18.3489 28.8773L28.8869 18.3406C33.0377 14.1908 33.0377 7.43778 28.8869 3.2858L28.7052 3.10417C25.4739 -0.126415 20.6149 -0.896679 16.5138 1.11085C15.4128 1.6497 14.2164 2.67031 15.0061 4.10182C15.8417 5.6163 17.3095 5.28645 18.0856 4.93265C20.4016 3.97838 23.816 4.23715 25.6945 6.11463L25.8761 6.29841C28.3669 8.78709 28.3669 12.8393 25.8761 15.3301L15.3381 25.8668C12.8473 28.3576 8.79514 28.3576 6.3064 25.8668L6.12267 25.6852C3.63394 23.1943 3.63394 19.1443 6.12267 16.6535L10.6408 12.1377C11.6782 11.1002 13.1279 10.8615 14.1654 11.8992C15.2028 12.9369 14.8696 14.2916 13.8321 15.3293L11.1543 18.0071Z" fill="#D6DCE1"/>
</g>
<defs>
<clipPath id="clip0">
<rect width="32" height="32" fill="white" transform="translate(32 32) rotate(-180)"/>
</clipPath>
</defs>
</svg>
