<svg width="40" height="40" viewBox="0 0 40 40" fill="none" xmlns="http://www.w3.org/2000/svg">
<g clip-path="url(#clip0)">
<path d="M22.9167 11.6667H21.6667V8.33333C21.6667 3.73833 17.9283 0 13.3333 0C8.73833 0 5 3.73833 5 8.33333V11.6667H3.75C1.68333 11.6667 0 13.35 0 15.4167V29.5833C0 31.65 1.68333 33.3333 3.75 33.3333H20.0833C20.25 32.3833 20.7333 31.5333 21.4 30.8667C20.3 29.3667 20.0667 27.3 21.0167 25.55C22.3 23.1667 24.3 21.3333 26.6667 20.2667V15.4167C26.6667 13.35 24.9833 11.6667 22.9167 11.6667ZM8.33333 8.33333C8.33333 5.57667 10.5767 3.33333 13.3333 3.33333C16.09 3.33333 18.3333 5.57667 18.3333 8.33333V11.6667H8.33333V8.33333Z" fill="#76828C"/>
<path d="M38.71 33.1333C37.9 32.6967 36.89 32.9967 36.4517 33.805C35.495 35.57 33.6617 36.6667 31.6667 36.6667C30.6484 36.6667 29.6834 36.3583 28.84 35.8433L29.6334 35.05C29.99 34.6933 30.0984 34.155 29.905 33.6883C29.7117 33.2217 29.255 32.9167 28.75 32.9167H24.5834C23.8934 32.9167 23.3334 33.4767 23.3334 34.1667V38.3333C23.3334 38.8383 23.6384 39.295 24.105 39.4883C24.26 39.5533 24.4217 39.5833 24.5834 39.5833C24.9084 39.5833 25.2284 39.4567 25.4667 39.2167L26.4217 38.2617C27.92 39.38 29.7517 40 31.6667 40C34.8867 40 37.8434 38.235 39.3817 35.3933C39.82 34.5833 39.52 33.5733 38.71 33.1333Z" fill="#76828C"/>
<path d="M39.2283 23.0117C38.7617 22.8183 38.2233 22.925 37.8667 23.2833L36.9117 24.2383C35.4133 23.12 33.5817 22.5 31.6667 22.5C28.44 22.5 25.4833 24.2733 23.9483 27.1267C23.5133 27.9383 23.8167 28.9483 24.6267 29.3833C24.8783 29.5183 25.1483 29.5817 25.415 29.5817C26.0083 29.5817 26.5833 29.2633 26.885 28.705C27.8367 26.9333 29.67 25.8333 31.6667 25.8333C32.685 25.8333 33.65 26.1417 34.4933 26.6567L33.7 27.45C33.3433 27.8067 33.235 28.345 33.4283 28.8117C33.6217 29.2783 34.0783 29.5833 34.5833 29.5833H38.75C39.44 29.5833 40 29.0233 40 28.3333V24.1667C40 23.6617 39.695 23.205 39.2283 23.0117Z" fill="#76828C"/>
</g>
<defs>
<clipPath id="clip0">
<rect width="40" height="40" fill="white"/>
</clipPath>
</defs>
</svg>
