<svg width="40" height="40" viewBox="0 0 40 40" fill="none" xmlns="http://www.w3.org/2000/svg">
<g clip-path="url(#clip0)">
<path d="M20 1C8.97199 1 -7.28421e-06 9.07467 -7.28421e-06 19C-7.28421e-06 22.4693 1.09733 25.83 3.17866 28.736C2.78466 33.094 1.72866 36.3293 0.195326 37.862C-0.00734061 38.0647 -0.0580073 38.3747 0.0699927 38.6307C0.183326 38.8593 0.416659 39 0.666659 39C0.697326 39 0.727993 38.998 0.759326 38.9933C1.02933 38.9553 7.30133 38.0527 11.838 35.434C14.414 36.4733 17.158 37 20 37C31.028 37 40 28.9253 40 19C40 9.07467 31.028 1 20 1ZM10.6667 21.6667C9.19599 21.6667 7.99999 20.4707 7.99999 19C7.99999 17.5293 9.19599 16.3333 10.6667 16.3333C12.1373 16.3333 13.3333 17.5293 13.3333 19C13.3333 20.4707 12.1373 21.6667 10.6667 21.6667ZM20 21.6667C18.5293 21.6667 17.3333 20.4707 17.3333 19C17.3333 17.5293 18.5293 16.3333 20 16.3333C21.4707 16.3333 22.6667 17.5293 22.6667 19C22.6667 20.4707 21.4707 21.6667 20 21.6667ZM29.3333 21.6667C27.8627 21.6667 26.6667 20.4707 26.6667 19C26.6667 17.5293 27.8627 16.3333 29.3333 16.3333C30.804 16.3333 32 17.5293 32 19C32 20.4707 30.804 21.6667 29.3333 21.6667Z" fill="#76828C"/>
</g>
<defs>
<clipPath id="clip0">
<rect width="40" height="40" fill="white"/>
</clipPath>
</defs>
</svg>
