<svg width="64" height="65" viewBox="0 0 64 65" fill="none" xmlns="http://www.w3.org/2000/svg">
<mask id="mask0" mask-type="alpha" maskUnits="userSpaceOnUse" x="0" y="0" width="64" height="65">
<ellipse cx="32" cy="32.5339" rx="32" ry="31.9656" fill="#C4C4C4"/>
</mask>
<g mask="url(#mask0)">
<path d="M32.0252 64.5498C49.7122 64.5498 64.0504 50.2271 64.0504 32.5591C64.0504 14.8911 49.7122 0.568359 32.0252 0.568359C14.3382 0.568359 0 14.8911 0 32.5591C0 50.2271 14.3382 64.5498 32.0252 64.5498Z" fill="#EB6D4A"/>
<path d="M46.2767 18.5181V29.1504C46.2767 29.3044 46.273 29.4581 46.2696 29.6118C46.2628 29.9301 46.2451 30.2481 46.2172 30.5626C46.2104 30.6711 46.1995 30.7793 46.1855 30.8877C46.1399 31.3387 46.0773 31.7828 45.9966 32.2235C45.9683 32.3704 45.9404 32.5136 45.9087 32.6571C45.9053 32.6884 45.8985 32.7166 45.8914 32.7445C45.8631 32.8914 45.8281 33.0349 45.7933 33.178C45.7794 33.2549 45.7583 33.3317 45.7409 33.4089C45.7232 33.4752 45.7059 33.5419 45.6851 33.6082C45.6112 33.8949 45.5275 34.1748 45.4396 34.4543C45.3978 34.5872 45.3559 34.7165 45.3103 34.8494C45.3065 34.8634 45.2997 34.8773 45.2963 34.8913C45.2541 35.0099 45.2122 35.129 45.1704 35.2476C45.1564 35.2827 45.1424 35.3173 45.1282 35.3561C45.0863 35.468 45.0444 35.5799 44.9988 35.6918C44.9464 35.8281 44.8905 35.9611 44.8344 36.094C44.7853 36.2131 44.7329 36.3317 44.6805 36.4508C44.6737 36.4718 44.6628 36.4892 44.656 36.5099C44.5964 36.6358 44.5406 36.7619 44.481 36.884C44.4214 37.0132 44.3584 37.1428 44.2917 37.2723C44.1658 37.5274 44.0293 37.7828 43.8927 38.031C43.8298 38.1429 43.7668 38.2548 43.7035 38.3667C43.1646 39.2933 42.5661 40.1639 41.9152 40.9678C41.8274 41.0831 41.7368 41.1949 41.6422 41.3034C41.5125 41.4605 41.3794 41.6146 41.2466 41.7649C41.1275 41.8978 41.0087 42.0305 40.8861 42.16C40.5501 42.5201 40.207 42.8629 39.857 43.1846C39.7872 43.2547 39.7133 43.3176 39.6398 43.3839C39.521 43.4924 39.4022 43.5971 39.2793 43.6984C39.185 43.7824 39.087 43.8627 38.9886 43.9433C38.7367 44.1494 38.4848 44.3486 38.2294 44.534C38.1242 44.6146 38.0156 44.6914 37.9074 44.7649C37.7324 44.8907 37.554 45.0097 37.3753 45.125C37.2773 45.1913 37.1758 45.2542 37.074 45.3137C36.7169 45.5341 36.3567 45.7368 35.9996 45.9116C35.9122 45.9568 35.8247 45.9989 35.7372 46.0408C35.6493 46.0826 35.5588 46.1248 35.4642 46.1666C35.3484 46.219 35.233 46.2679 35.1176 46.3135C35.072 46.3346 35.0264 46.3519 34.9811 46.3659C34.8449 46.422 34.7047 46.4743 34.5682 46.5196C34.3966 46.5825 34.2216 46.6349 34.0504 46.6838C33.9312 46.7189 33.809 46.7501 33.6899 46.778C33.6827 46.7818 33.6759 46.7852 33.6653 46.7852C33.5462 46.813 33.4274 46.8413 33.3082 46.862C33.2766 46.8692 33.2456 46.876 33.2139 46.8794C33.1159 46.8967 33.0179 46.9144 32.9198 46.9249C32.7799 46.946 32.64 46.9634 32.5001 46.9705C32.4514 46.9773 32.4058 46.981 32.3564 46.981C32.2447 46.9882 32.1327 46.9916 32.0238 46.9916H32.0136C31.905 46.9916 31.7964 46.9882 31.6882 46.981C31.6459 46.981 31.6041 46.9776 31.5619 46.9705C31.4642 46.9671 31.3624 46.9562 31.2575 46.9423C31.2364 46.9423 31.2119 46.9389 31.1911 46.9355C31.0614 46.9181 30.9321 46.897 30.799 46.8726C30.6873 46.8552 30.5753 46.8304 30.4596 46.8025C29.8611 46.6661 29.2453 46.4601 28.6223 46.1836C28.0902 45.9493 27.5513 45.6664 27.0158 45.3375C26.7462 45.1733 26.4766 44.9985 26.2107 44.8132C26.0776 44.7186 25.9448 44.6244 25.8117 44.5265C25.395 44.2221 24.9821 43.8902 24.576 43.5335C24.4643 43.4322 24.3523 43.3308 24.2403 43.2258C24.1283 43.1244 24.0163 43.0197 23.9077 42.9184C23.6344 42.6562 23.3685 42.3834 23.1094 42.1002C23.008 41.992 22.9065 41.8801 22.8047 41.7645C22.5249 41.45 22.2519 41.1249 21.9928 40.7855C21.891 40.6631 21.7968 40.5373 21.7021 40.4114C21.3488 39.9432 21.0128 39.4535 20.6975 38.9465C20.6138 38.8101 20.5297 38.67 20.4493 38.534C20.3513 38.3697 20.257 38.2021 20.1624 38.0341C19.8124 37.4046 19.49 36.751 19.2102 36.076C19.1683 35.9781 19.1261 35.8801 19.091 35.7825C19.0349 35.6567 18.9859 35.5272 18.9406 35.4013C18.8708 35.216 18.8044 35.0307 18.7411 34.8453C18.6781 34.66 18.6189 34.4713 18.5593 34.2825C18.5031 34.1006 18.4507 33.919 18.4017 33.7337C18.3455 33.5378 18.2934 33.3385 18.2478 33.1359C18.2441 33.1148 18.2373 33.094 18.2339 33.073C18.1675 32.7934 18.1079 32.5102 18.0555 32.2235C17.9853 31.8457 17.9295 31.4611 17.8873 31.0731C17.8699 30.9506 17.8594 30.8282 17.8488 30.7058C17.8349 30.5766 17.8247 30.4504 17.8175 30.3212C17.7998 30.0869 17.7893 29.8492 17.7821 29.6115C17.7787 29.4574 17.775 29.3037 17.775 29.15V18.5181C17.775 10.662 24.1488 4.29205 32.0133 4.28491H32.0272C33.1125 4.28491 34.1692 4.40699 35.184 4.63449C36.1116 4.84431 37.0042 5.14492 37.8512 5.52613C39.0063 6.0437 40.0807 6.70783 41.0468 7.50153C41.8587 8.16601 42.5974 8.91414 43.2412 9.73912C45.1428 12.1586 46.2767 15.2039 46.2767 18.5181Z" fill="#ECC19C"/>
<path d="M50.5916 68.8321V68.8355H13.4597V68.8321C13.4597 66.738 13.8063 64.7205 14.4504 62.843C14.5658 62.5039 14.6917 62.1683 14.8282 61.8361V61.8327C14.9644 61.5004 15.1081 61.1753 15.2619 60.8536C15.8747 59.5635 16.6376 58.3573 17.523 57.2524C17.747 56.9763 17.9744 56.707 18.2093 56.4482C18.3247 56.3152 18.4473 56.186 18.5698 56.0568C18.6924 55.9309 18.815 55.8051 18.9409 55.6793C19.5676 55.0536 20.2393 54.4803 20.9467 53.9521C21.3001 53.69 21.6572 53.4451 22.0282 53.2074C22.3993 52.9731 22.7772 52.7494 23.1622 52.5395C23.1693 52.5327 23.1761 52.5327 23.1761 52.5327C23.3266 52.4525 23.4737 52.3651 23.6207 52.2739C23.9115 52.0992 24.1981 51.9104 24.4715 51.7078C24.6114 51.6098 24.7445 51.5085 24.8773 51.4C25.1921 51.1484 25.4965 50.879 25.7872 50.5958C25.8815 50.5016 25.9765 50.407 26.0708 50.3091C26.2665 50.1061 26.4521 49.8929 26.6308 49.6762C26.7186 49.5715 26.8061 49.463 26.8864 49.3545C26.9705 49.2464 27.0509 49.1345 27.1315 49.0223C27.7545 48.1552 28.255 47.2009 28.6226 46.1832C29.0672 44.9453 29.3086 43.6133 29.3086 42.2218L32.0143 42.2357L34.7966 42.2497C34.7966 43.6235 35.0311 44.9416 35.4652 46.1655C35.826 47.1863 36.3261 48.1409 36.9389 49.008C37.5758 49.9099 38.3353 50.7141 39.1962 51.4027C39.3259 51.5078 39.4553 51.6091 39.585 51.7033C39.711 51.7979 39.8403 51.8887 39.9734 51.9761C40.0017 51.9971 40.0258 52.0145 40.0541 52.0322C40.1801 52.1162 40.306 52.2002 40.4391 52.277C40.5824 52.3644 40.7298 52.4518 40.8766 52.5324C40.9007 52.5392 40.9222 52.5497 40.9395 52.564C41.2476 52.7354 41.5523 52.9136 41.8498 53.0989C41.9932 53.1863 42.1368 53.2771 42.2767 53.3788C42.5675 53.5675 42.851 53.7668 43.1271 53.9766C43.1271 53.9804 43.1309 53.9804 43.1309 53.9804H43.1343C43.8413 54.5081 44.5099 55.0849 45.1363 55.7075C48.5093 59.0636 50.5916 63.6996 50.5916 68.8321Z" fill="#ECC19C"/>
<path d="M50.592 68.8329H13.4601C13.4601 66.7385 13.807 64.7213 14.4507 62.8438C14.5661 62.5044 14.6921 62.1691 14.8286 61.8369C14.8248 61.8331 14.8286 61.8331 14.8286 61.8331C14.9617 61.5009 15.1084 61.1758 15.2623 60.8545C15.8751 59.5643 16.638 58.3581 17.5234 57.2532C17.7474 56.9768 17.9751 56.7078 18.2097 56.449C18.3251 56.316 18.4477 56.1868 18.5702 56.0576C18.6928 55.9318 18.8153 55.8059 18.9413 55.6801C19.568 55.0544 20.2397 54.4807 20.9471 53.953C21.3004 53.6908 21.6575 53.4459 22.0286 53.2082C22.3997 52.9705 22.7775 52.7468 23.1626 52.537C23.1697 52.5302 23.1765 52.5336 23.1765 52.5336V52.5302C23.327 52.4462 23.474 52.3622 23.6211 52.2748C24.0586 52.0092 24.479 51.7154 24.8708 51.3937C24.8742 51.3971 24.8742 51.3971 24.878 51.4005C26.6907 53.2535 29.2143 54.4035 32.0146 54.4107H32.0426C34.8426 54.4107 37.3767 53.2569 39.1966 51.4039L39.2003 51.4005C39.4485 51.6066 39.7076 51.799 39.9738 51.9772C40.0017 51.998 40.0262 52.0156 40.0541 52.033C40.1801 52.117 40.3094 52.1972 40.4391 52.2778C40.5828 52.3652 40.7299 52.4492 40.8766 52.5295C40.9011 52.5363 40.9185 52.5502 40.9396 52.5608C41.2477 52.7321 41.5523 52.9103 41.8499 53.0991C41.9932 53.1865 42.1368 53.2773 42.2768 53.3789C42.5675 53.5643 42.8511 53.7669 43.1271 53.9768H43.1343C43.8451 54.5083 44.5134 55.085 45.1363 55.7073C48.5096 59.0644 50.592 63.7004 50.592 68.8329Z" fill="#C7D4E2"/>
<path d="M46.2768 29.1502C46.2768 29.3043 46.273 29.458 46.2696 29.6117C46.2628 29.93 46.2451 30.248 46.2172 30.5625C46.2104 30.671 46.1995 30.7791 46.1856 30.8876C46.1399 31.3385 46.0773 31.7826 45.9966 32.2234C45.9684 32.3703 45.9404 32.5134 45.9088 32.6569C45.9054 32.6882 45.8986 32.7164 45.8914 32.7443C45.8632 32.8912 45.8281 33.0347 45.7934 33.1779C45.7757 33.2619 45.7549 33.3422 45.7301 33.4227C45.7198 33.4857 45.7021 33.5486 45.6848 33.6081C45.6109 33.8947 45.5272 34.1746 45.4393 34.4541C45.3975 34.5871 45.3556 34.7163 45.31 34.8493C45.3062 34.8632 45.2994 34.8772 45.296 34.8911C45.2538 35.0098 45.2119 35.1288 45.1701 35.2475C45.1561 35.2825 45.1421 35.3172 45.1279 35.356C45.086 35.4679 45.0441 35.5797 44.9985 35.6916C44.9461 35.828 44.8902 35.9609 44.8341 36.0939C44.785 36.2129 44.7326 36.3316 44.6802 36.4506C44.6734 36.4717 44.6625 36.4891 44.6557 36.5098C44.5961 36.6356 44.5403 36.7618 44.4807 36.8839C44.4211 37.0131 44.3581 37.1427 44.2914 37.2722C44.1655 37.5273 44.029 37.7826 43.8924 38.0309C43.8295 38.1428 43.7665 38.2546 43.7032 38.3665C43.1643 39.2932 42.5658 40.1637 41.9149 40.9676C41.8271 41.0829 41.7365 41.1948 41.6419 41.3033C41.5122 41.4604 41.3791 41.6144 41.2463 41.7647C41.1272 41.8977 41.0084 42.0303 40.8858 42.1599C40.5498 42.52 40.2067 42.8628 39.8567 43.1845C39.7869 43.2545 39.713 43.3174 39.6395 43.3838C39.5207 43.4922 39.4019 43.597 39.279 43.6983C39.1847 43.7823 39.0867 43.8626 38.9883 43.9432C38.7364 44.1492 38.4844 44.3485 38.2291 44.5338C38.1239 44.6144 38.0153 44.6913 37.9071 44.7647C37.7321 44.8906 37.5537 45.0096 37.375 45.1249C37.277 45.1912 37.1755 45.2541 37.0737 45.3136C36.7166 45.534 36.3564 45.7366 35.9993 45.9114C35.9118 45.9567 35.8244 45.9988 35.7369 46.0406C35.649 46.0825 35.5585 46.1246 35.4638 46.1665C35.3481 46.2188 35.2327 46.2678 35.1173 46.3134C35.0717 46.3345 35.0261 46.3518 34.9808 46.3657C34.8446 46.4219 34.7044 46.4742 34.5678 46.5194C34.3963 46.5824 34.2213 46.6347 34.0501 46.6837C33.9309 46.7187 33.8087 46.75 33.6896 46.7779C33.6824 46.7816 33.6756 46.785 33.665 46.785C33.5459 46.8129 33.4271 46.8411 33.3079 46.8619C33.2763 46.869 33.2453 46.8758 33.2136 46.8792C33.1156 46.8966 33.0175 46.9143 32.9195 46.9248C32.7796 46.9459 32.6397 46.9632 32.4998 46.9704C32.4511 46.9772 32.4055 46.9809 32.3561 46.9809C32.2444 46.988 32.1324 46.9914 32.0235 46.9914H32.0133C31.9047 46.9914 31.7961 46.988 31.6878 46.9809C31.6456 46.9809 31.6038 46.9775 31.5616 46.9704C31.4638 46.967 31.3621 46.9561 31.2572 46.9421C31.2361 46.9421 31.2116 46.9387 31.1908 46.9353C31.0611 46.918 30.9318 46.8969 30.7987 46.8724C30.687 46.8551 30.575 46.8303 30.4593 46.8024C29.8608 46.666 29.245 46.4599 28.622 46.1835C28.0899 45.9492 27.551 45.6662 27.0155 45.3374C26.7459 45.1766 26.48 45.0018 26.2104 44.813C26.0773 44.7185 25.9445 44.6243 25.8114 44.5264C25.3947 44.222 24.9818 43.8901 24.5757 43.5334C24.464 43.432 24.352 43.3307 24.24 43.2256C24.128 43.1243 24.016 43.0196 23.9074 42.9182C23.6341 42.656 23.3682 42.3833 23.1091 42.1C23.0077 41.9919 22.9062 41.88 22.8044 41.7644C22.5246 41.4498 22.2516 41.1247 21.9925 40.7854C21.8907 40.6629 21.7964 40.5371 21.7018 40.4113C21.3484 39.943 21.0124 39.4534 20.6972 38.9463C20.6135 38.81 20.5294 38.6699 20.449 38.5338C20.351 38.3696 20.2567 38.2019 20.1621 38.034C19.8121 37.4045 19.4897 36.7509 19.2099 36.0759C19.168 35.978 19.1258 35.88 19.0907 35.7824C19.0346 35.6566 18.9856 35.527 18.9403 35.4012C18.8705 35.2159 18.8041 35.0305 18.7408 34.8452C18.6778 34.6599 18.6186 34.4711 18.559 34.2824C18.5028 34.1005 18.4504 33.9189 18.4014 33.7336C18.3452 33.5377 18.2931 33.3384 18.2475 33.1357C18.2438 33.1147 18.237 33.0939 18.2336 33.0728C18.1672 32.7933 18.1076 32.51 18.0552 32.2234C17.985 31.8456 17.9292 31.4609 17.887 31.0729C17.8696 30.9505 17.8591 30.8281 17.8485 30.7057C17.8346 30.5764 17.8244 30.4503 17.8172 30.3211C17.7995 30.0868 17.789 29.8491 17.7818 29.6114C17.7784 29.4573 17.7747 29.3036 17.7747 29.1499L20.0501 33.6183L23.9595 35.321L28.5828 35.7372L32.013 36.0483H32.0341L35.2436 36.3388L42.3942 36.9821L46.2768 29.1502Z" fill="#543E36"/>
<path d="M43.2419 9.7392C42.5454 11.3161 41.6388 12.781 40.5678 14.1096C40.5048 14.1868 40.4419 14.2637 40.3755 14.3405C38.1811 16.9801 35.3042 19.0327 32.014 20.2317C31.1493 20.55 30.257 20.8085 29.3399 21.0009C28.7275 21.1302 28.1045 21.2318 27.471 21.3053C26.7428 21.3855 26.001 21.4277 25.2487 21.4277C24.3877 21.4277 23.5442 21.3716 22.7149 21.2635C21.9026 21.1621 21.1081 21.0118 20.3312 20.8091C19.8866 20.6973 19.4526 20.568 19.022 20.4245C18.5985 20.2848 18.1855 20.1307 17.776 19.9631V18.5192C17.776 10.6631 24.1498 4.29315 32.0143 4.28601H32.0283C33.1135 4.28601 34.1702 4.40809 35.185 4.63559C36.1127 4.84541 37.0053 5.14602 37.8523 5.52723C39.0073 6.0448 40.0817 6.70893 41.0478 7.50263C41.8594 8.16575 42.5981 8.91422 43.2419 9.7392Z" fill="#543E36"/>
<path d="M46.2767 18.5182V21.3186C43.8475 19.4411 41.8352 17.0671 40.3826 14.3542C40.3792 14.3508 40.3792 14.3436 40.3755 14.3402C38.9477 11.6762 38.0619 8.68673 37.8522 5.52588C39.0073 6.04345 40.0817 6.70758 41.0478 7.50128C41.8597 8.16576 42.5984 8.91389 43.2422 9.73887C45.1428 12.1587 46.2767 15.204 46.2767 18.5182Z" fill="#543E36"/>
<path d="M19.4451 19.616C19.295 19.8782 19.1581 20.1475 19.0216 20.4237C18.9695 20.5318 18.9168 20.6474 18.8644 20.7593C18.175 22.2906 17.8281 23.794 17.7791 25.1508C17.7791 25.1892 17.7753 25.2311 17.7753 25.2698V19.7874C17.7753 19.5915 17.7825 19.3991 17.7825 19.2103C18.3357 19.3538 18.8885 19.4936 19.4451 19.616Z" fill="#543E36"/>
<path d="M44.6141 19.6161C44.8259 19.9878 45.0148 20.3687 45.1963 20.7591C45.9071 22.338 46.255 23.8801 46.2849 25.271V19.7858C46.2849 19.593 46.2778 19.4002 46.2778 19.2118C45.7253 19.3543 45.1735 19.492 44.6141 19.6161Z" fill="#543E36"/>
<path d="M44.5862 21.0286C44.5862 20.9691 44.5406 20.9167 44.481 20.9096C43.9772 20.8327 41.7089 20.5212 39.2695 20.5212C36.5008 20.5212 32.9273 21.3884 32.3043 21.3884H31.7515C31.4608 21.3884 30.5301 21.1997 29.3399 21.0004C27.9714 20.7695 26.2635 20.5212 24.7864 20.5212C23.0015 20.5212 21.3072 20.6892 20.3309 20.8079C19.9738 20.8501 19.7113 20.8882 19.5748 20.9092C19.5152 20.9164 19.4696 20.9688 19.4696 21.0283L19.4417 22.514C19.4417 22.5664 19.4734 22.6119 19.5221 22.633L19.6899 22.6925C19.9384 22.7871 19.9176 27.2656 21.2545 28.3844C22.049 29.0452 22.7561 29.4226 25.7345 29.4226C27.4601 29.4226 28.545 28.9578 29.5741 27.5696C30.3163 26.5733 30.974 24.2167 30.974 24.2167C31.1735 23.2448 31.8979 23.1679 32.0136 23.1608C32.0208 23.1608 32.0276 23.1608 32.0276 23.1608C32.0518 23.1608 32.8678 23.1747 33.0812 24.2167C33.0812 24.2167 33.7392 26.5733 34.481 27.5696C35.5098 28.9578 36.5951 29.4226 38.3204 29.4226C41.2991 29.4226 42.0058 29.0452 42.8004 28.3844C44.1375 27.2656 44.1164 22.7871 44.3649 22.6925L44.5331 22.633C44.5818 22.6119 44.6135 22.5667 44.6135 22.514L44.5862 21.0286ZM29.5745 26.3288C29.137 27.3636 28.0065 28.6993 26.414 28.7796C21.6364 29.0207 21.4158 27.6887 21.1078 26.6328C20.7963 25.5769 20.7159 24.6502 20.8381 23.5944C20.9641 22.5385 21.2303 21.9196 21.71 21.6084C21.9163 21.472 22.1406 21.3496 22.7146 21.2622C23.2289 21.1854 24.0235 21.1398 25.3464 21.1398C26.1127 21.1398 26.8303 21.1993 27.4706 21.3041C29.1718 21.5768 30.3197 22.1539 30.3197 22.7235C30.3197 23.1122 30.2216 24.7971 29.5745 26.3288ZM42.9478 26.6328C42.64 27.6887 42.4194 29.0207 37.6419 28.7796C36.0494 28.6993 34.9188 27.3636 34.4814 26.3288C33.8339 24.7975 33.7362 23.1122 33.7362 22.7241C33.7362 21.941 35.9132 21.1401 38.7095 21.1401C41.5061 21.1401 41.9537 21.35 42.3462 21.6087C42.8255 21.9199 43.0914 22.5388 43.2177 23.5947C43.3403 24.6506 43.2596 25.5772 42.9478 26.6328Z" fill="#1A1A1A"/>
<path d="M32.0419 31.3948L32.0381 34.8423L32.0347 36.0485V36.9959L32.031 40.1425V40.1459L32.0276 40.1425H32.0238L32.0136 40.1353L18.2482 33.1362C18.2444 33.1151 18.2376 33.0944 18.2342 33.0733C18.1678 32.7938 18.1083 32.5105 18.0558 32.2238C17.9857 31.846 17.9299 31.4614 17.8877 31.0734C17.8703 30.951 17.8598 30.8286 17.8492 30.7062C17.8352 30.5769 17.825 30.4508 17.8179 30.3215C17.8002 30.0872 17.7896 29.8495 17.7825 29.6118C17.7791 29.4578 17.7753 29.3041 17.7753 29.1504V24.9724C17.7753 25.0319 17.7791 25.0914 17.7791 25.1506C17.807 26.1609 17.968 27.2729 18.2795 28.4091C18.5212 29.283 18.8221 30.0906 19.1721 30.8109V30.8143C20.0892 32.72 21.3178 34.0132 22.448 34.223C22.5181 34.2336 22.5917 34.2404 22.6618 34.2475C23.0992 34.2965 23.5578 34.3244 24.0303 34.3244C25.8152 34.3244 27.4009 32.891 28.3983 32.3106C28.4055 32.3072 28.4123 32.3034 28.4194 32.3C28.4718 32.2684 28.5246 32.2371 28.5699 32.2055C28.5838 32.1949 28.5978 32.1881 28.6118 32.181C29.4519 31.7018 30.6628 31.3978 32.014 31.3944H32.0419V31.3948Z" fill="#543E36"/>
<path d="M46.2799 24.9724L46.2764 29.1504C46.2764 30.1995 46.1784 31.2271 45.9966 32.2238C45.9228 32.6224 45.839 33.0172 45.741 33.4089L42.5103 38.0694L32.0313 40.1428H32.0279L32.0242 40.1462V40.1428L32.014 31.3941H32.0419C33.393 31.3975 34.6073 31.7018 35.4475 32.1806C35.4615 32.1878 35.4717 32.1946 35.486 32.2051C35.535 32.2368 35.5874 32.268 35.6399 32.2997C35.6433 32.3031 35.6501 32.3068 35.6572 32.3102C36.6584 32.8907 38.2404 34.3251 40.0256 34.3251C40.4981 34.3251 40.9563 34.2972 41.3937 34.2482C41.4673 34.2411 41.5374 34.2343 41.6109 34.2237C42.7381 34.0139 43.9701 32.7203 44.8834 30.815V30.8116C45.233 30.0913 45.5343 29.2837 45.7757 28.4097C46.0909 27.2559 46.2553 26.1303 46.2764 25.1057C46.2799 25.0598 46.2799 25.0176 46.2799 24.9724Z" fill="#543E36"/>
<path d="M32.0252 36.9973C33.9532 36.9973 35.5163 36.5146 35.5163 35.9193C35.5163 35.3239 33.9532 34.8413 32.0252 34.8413C30.0971 34.8413 28.5341 35.3239 28.5341 35.9193C28.5341 36.5146 30.0971 36.9973 32.0252 36.9973Z" fill="#ECC19C"/>
<path d="M21.8318 53.3367V72.5697H20.3445V54.4208C20.544 54.2599 20.7435 54.1025 20.9467 53.9522C21.2371 53.7356 21.5309 53.5325 21.8318 53.3367Z" fill="#435363"/>
<path d="M42.2199 53.3405V68.8322V72.5698H43.7072V68.8322V54.4242L42.2199 53.3405Z" fill="#435363"/>
<path d="M27.9533 52.1599L32.0251 57.035L36.0973 52.1599H27.9533Z" fill="#141720"/>
<path d="M32.0251 77.2304H29.6173L31.3569 54.8545C31.4301 55.1391 32.6205 55.1391 32.6937 54.8545L34.4333 77.2304H32.0251Z" fill="#141720"/>
<path d="M32.0238 52.1342L32.0136 52.1516L32.0099 52.1587L30.3193 54.9941L28.7407 57.6371L24.467 51.7041C24.6036 51.6061 24.7401 51.5014 24.8698 51.3929C24.8732 51.3963 24.8732 51.3963 24.8769 51.4001C25.7341 50.7182 26.4973 49.9177 27.1309 49.0227L32.0136 52.1274L32.0238 52.1342Z" fill="#E7ECF2"/>
<path d="M39.584 51.7041L35.3102 57.6371L33.7317 54.9942L32.0374 52.1588L32.0234 52.1343L36.9378 49.0088C37.5748 49.9106 38.3343 50.7149 39.1952 51.4035C39.3252 51.5082 39.4543 51.6099 39.584 51.7041Z" fill="#E7ECF2"/>
</g>
</svg>
