<svg width="64" height="65" viewBox="0 0 64 65" fill="none" xmlns="http://www.w3.org/2000/svg">
<mask id="mask0" mask-type="alpha" maskUnits="userSpaceOnUse" x="0" y="0" width="64" height="65">
<ellipse cx="32" cy="32.4305" rx="32" ry="31.9656" fill="#C4C4C4"/>
</mask>
<g mask="url(#mask0)">
<path d="M32.0252 64.4464C49.7122 64.4464 64.0504 50.1237 64.0504 32.4557C64.0504 14.7877 49.7122 0.464966 32.0252 0.464966C14.3382 0.464966 0 14.7877 0 32.4557C0 50.1237 14.3382 64.4464 32.0252 64.4464Z" fill="#D4DCE6"/>
<path d="M50.9144 33.7095V63.4347L13.2085 62.7937V33.0685L50.9144 33.7095Z" fill="#421800"/>
<path d="M46.2768 20.2824V29.0475C46.2768 29.2012 46.273 29.3552 46.27 29.5089C46.2662 29.6347 46.2628 29.7572 46.2557 29.883C46.2523 29.9949 46.2454 30.1067 46.2349 30.2186C46.2315 30.2989 46.2247 30.3795 46.2175 30.4601C46.2138 30.509 46.2107 30.5543 46.2036 30.6032C46.1968 30.6906 46.1893 30.7814 46.1753 30.8688C46.1614 31.0368 46.1403 31.2011 46.1157 31.3687C46.1123 31.4109 46.1055 31.4527 46.0984 31.4945C46.0878 31.5785 46.0739 31.6625 46.0599 31.7462V31.7567C46.0391 31.8788 46.018 31.9978 45.9966 32.1202C45.9653 32.2882 45.9336 32.4559 45.8989 32.6201C45.8952 32.6273 45.8952 32.6341 45.8921 32.6412C45.8883 32.6657 45.8849 32.6902 45.8778 32.7147C45.8744 32.7218 45.8744 32.7286 45.871 32.7357C45.8536 32.8269 45.8329 32.9139 45.8114 33.0013C45.8046 33.0398 45.7974 33.0785 45.7835 33.1166C45.7733 33.1795 45.7556 33.2424 45.7416 33.3053C45.7311 33.3404 45.7239 33.3788 45.71 33.4138C45.7031 33.4454 45.6926 33.4767 45.6854 33.505C45.6119 33.7916 45.5282 34.0715 45.4403 34.351C45.3985 34.484 45.3566 34.6132 45.311 34.7462C45.3072 34.7601 45.3004 34.7741 45.297 34.788C45.2548 34.907 45.2129 35.0257 45.1711 35.1447C45.1571 35.1797 45.1431 35.2148 45.1289 35.2532C45.087 35.3651 45.0451 35.477 44.9995 35.5888C44.9471 35.7252 44.8909 35.8582 44.8351 35.9911C44.786 36.1101 44.7336 36.2288 44.6812 36.3475C44.674 36.3686 44.6635 36.3859 44.6567 36.407C44.5971 36.5328 44.5413 36.6587 44.4817 36.7811C44.4221 36.9103 44.3591 37.0399 44.2924 37.1691C44.1665 37.4245 44.0303 37.6795 43.8934 37.9278L43.7045 38.2634C43.1653 39.1897 42.5668 40.0606 41.9159 40.8645C41.8281 40.9801 41.7375 41.092 41.6426 41.2002C41.5132 41.3576 41.3801 41.5113 41.2473 41.6616C41.1353 41.7874 41.0196 41.9167 40.9004 42.0391C40.897 42.0462 40.8933 42.0496 40.8865 42.0564C40.5508 42.4169 40.2077 42.7593 39.8577 43.081C39.7876 43.1511 39.714 43.214 39.6405 43.2803C39.5214 43.3888 39.4026 43.4939 39.28 43.5952C39.1857 43.6792 39.0877 43.7594 38.9896 43.84C38.7377 44.0461 38.4858 44.2454 38.2305 44.4307C38.1253 44.511 38.0167 44.5882 37.9084 44.6616C37.7334 44.7874 37.5551 44.9065 37.3763 45.0217C37.2783 45.088 37.1769 45.1513 37.0751 45.2108C36.718 45.4312 36.3578 45.6338 36.0007 45.8086C35.9132 45.8542 35.8257 45.896 35.7382 45.9382C35.6504 45.98 35.5598 46.0219 35.4649 46.064C35.3494 46.1164 35.234 46.1654 35.1183 46.2109C35.0727 46.232 35.0271 46.2493 34.9821 46.2633C34.8456 46.3191 34.7057 46.3714 34.5689 46.417C34.3973 46.4803 34.2223 46.5326 34.0511 46.5813C33.9319 46.6163 33.8097 46.6476 33.6906 46.6754C33.6834 46.6792 33.6763 46.6826 33.666 46.6826C33.5469 46.7105 33.4281 46.7387 33.3089 46.7598C33.2773 46.7669 33.246 46.7737 33.2146 46.7771C33.1166 46.7948 33.0186 46.8125 32.9205 46.8227C32.7806 46.8441 32.6407 46.8611 32.5008 46.8683C32.4521 46.8751 32.4065 46.8788 32.3571 46.8788C32.2451 46.8856 32.1369 46.889 32.0283 46.889H32.0143C31.9057 46.889 31.7971 46.8856 31.6885 46.8788C31.6466 46.8788 31.6048 46.8751 31.5629 46.8683C31.4649 46.8649 31.3631 46.8543 31.2582 46.8404C31.2368 46.8404 31.2126 46.8366 31.1918 46.8336C31.0621 46.8159 30.9324 46.7951 30.7997 46.7703C30.6877 46.753 30.576 46.7285 30.4603 46.7006C29.8618 46.5642 29.246 46.3578 28.623 46.0817C28.0909 45.8477 27.552 45.5645 27.0165 45.236C26.7469 45.0717 26.4773 44.8966 26.2114 44.7113C26.0783 44.6171 25.9455 44.5225 25.8124 44.4246C25.3957 44.1202 24.9828 43.7883 24.5767 43.4316C24.465 43.3303 24.353 43.2286 24.241 43.1242C24.129 43.0225 24.017 42.9178 23.9084 42.8165C23.6494 42.5686 23.3974 42.3132 23.1557 42.0438C23.138 42.0299 23.1241 42.0126 23.1101 41.9986C23.0087 41.8901 22.9069 41.7779 22.8058 41.663C22.526 41.3481 22.2529 41.023 21.9939 40.6839C21.8921 40.5615 21.7978 40.436 21.7031 40.3095C21.3494 39.8413 21.0138 39.3519 20.6986 38.8446C20.6148 38.7082 20.5307 38.5684 20.4504 38.4321C20.3523 38.2678 20.258 38.0998 20.1634 37.9322C19.8134 37.3027 19.4911 36.6491 19.2112 35.9741C19.1694 35.8762 19.1272 35.7783 19.0921 35.6803C19.0359 35.5545 18.9869 35.4249 18.9416 35.2994C18.8718 35.1138 18.8054 34.9288 18.7421 34.7435C18.6792 34.5581 18.6199 34.3694 18.5603 34.1807C18.5042 33.9987 18.4517 33.8171 18.4027 33.6318C18.3466 33.4359 18.2941 33.2367 18.2489 33.034C18.2451 33.0129 18.2383 32.9918 18.2346 32.9711C18.1682 32.6915 18.1089 32.4083 18.0565 32.1216C17.9864 31.7441 17.9306 31.3595 17.8883 30.9715C17.871 30.8491 17.8604 30.7267 17.8499 30.6043C17.8359 30.475 17.8257 30.3492 17.8186 30.2196C17.8009 29.9853 17.7903 29.7476 17.7831 29.5099C17.7797 29.3562 17.776 29.2022 17.776 29.0485V20.2824C17.776 12.6852 23.7369 6.4757 31.2439 6.07001C31.2582 6.06627 31.2684 6.06627 31.2824 6.06627C31.3804 6.06287 31.4785 6.05913 31.5765 6.05573C31.7236 6.05232 31.8669 6.04858 32.014 6.04858H32.0279C32.178 6.04858 32.3289 6.05198 32.4793 6.05573C32.5947 6.05913 32.7105 6.06287 32.8259 6.07001H32.8364C33.6378 6.11524 34.4255 6.22711 35.1847 6.3985C36.1123 6.60832 37.0049 6.90893 37.8516 7.29014C39.007 7.80737 40.0814 8.47184 41.0475 9.26554C41.8594 9.93002 42.5981 10.6781 43.2419 11.5031C45.118 13.891 46.2482 16.891 46.2727 20.1563C46.2768 20.1984 46.2768 20.2403 46.2768 20.2824Z" fill="#F0D0B4"/>
<path d="M50.5924 68.73V68.7338H13.4604V68.73C13.4604 66.6567 13.7999 64.6568 14.4334 62.7936C14.4405 62.7759 14.4439 62.7582 14.4511 62.7412C14.5665 62.4022 14.6924 62.0666 14.829 61.7343V61.7306C14.9621 61.3983 15.1088 61.0732 15.2627 60.7516C15.8754 59.4614 16.6383 58.2552 17.5238 57.1503C17.7478 56.8742 17.9755 56.6049 18.2101 56.3464C18.3255 56.2135 18.448 56.0842 18.5706 55.955C18.6931 55.8292 18.8157 55.7034 18.9416 55.5775C19.5684 54.9515 20.24 54.3785 20.9474 53.8504C21.3008 53.5882 21.6579 53.3434 22.029 53.1057C22.078 53.0744 22.127 53.0427 22.176 53.0149C22.3125 52.9271 22.449 52.8435 22.5893 52.7632C22.7782 52.6513 22.9706 52.5429 23.1633 52.4378C23.1704 52.431 23.1772 52.431 23.1772 52.431C23.3277 52.3507 23.4747 52.2633 23.6218 52.1722C24.0593 51.91 24.4797 51.6199 24.8783 51.2982C26.5689 49.956 27.8778 48.1517 28.6233 46.0817C28.8405 45.4734 29.0118 44.8409 29.1272 44.1907C29.2463 43.519 29.3093 42.827 29.3093 42.1207L32.0147 42.1347H32.0599L34.797 42.1486C34.797 42.841 34.8565 43.5191 34.9723 44.1801C35.0843 44.8303 35.2521 45.4598 35.4656 46.0647C36.2005 48.1411 37.5061 49.9526 39.1966 51.302C39.4485 51.5081 39.7042 51.6968 39.9735 51.8753C40.0017 51.8967 40.0259 51.9137 40.0541 51.9314C40.1801 52.0154 40.3061 52.0991 40.4392 52.1763C40.5825 52.2637 40.7299 52.3511 40.8766 52.4313C40.9008 52.4381 40.9222 52.449 40.9396 52.4629C41.2477 52.6343 41.5524 52.8125 41.8499 52.9979C41.8741 53.0118 41.8952 53.0257 41.9197 53.0434C42.0388 53.1169 42.1614 53.1934 42.2768 53.2777C42.5675 53.4631 42.8511 53.6661 43.1272 53.8759C43.1272 53.8793 43.1309 53.8793 43.1309 53.8793H43.1343C43.488 54.1415 43.8308 54.4213 44.1668 54.708C44.5028 54.9947 44.8249 55.2956 45.1364 55.6068C47.1455 57.6029 48.6958 60.0575 49.6201 62.7953C50.2492 64.6571 50.5924 66.6536 50.5924 68.73Z" fill="#F0D0B4"/>
<path d="M50.5924 68.73H13.4604C13.4604 66.6567 13.7999 64.6568 14.4334 62.7936C14.4405 62.7759 14.4439 62.7582 14.4511 62.7412C14.5665 62.4022 14.6924 62.0666 14.829 61.7343V61.7306C14.9621 61.3983 15.1088 61.0733 15.2627 60.7516C15.8754 59.4614 16.6383 58.2552 17.5238 57.1503C17.7478 56.8742 17.9755 56.6049 18.2101 56.3464C18.3255 56.2135 18.448 56.0842 18.5706 55.955C18.6931 55.8292 18.8157 55.7034 18.9416 55.5776C19.5684 54.9515 20.24 54.3785 20.9474 53.8504C21.3008 53.5882 21.6579 53.3434 22.029 53.1057C22.078 53.0744 22.127 53.0428 22.176 53.0149C22.3125 52.9271 22.449 52.8435 22.5893 52.7632C22.7782 52.6476 22.9706 52.5395 23.1633 52.4344C23.1704 52.4272 23.1772 52.4306 23.1772 52.4306V52.4272C23.3277 52.3433 23.4747 52.2596 23.6218 52.1719C24.0593 51.9063 24.4797 51.6125 24.8715 51.2908C24.8749 51.2945 24.8749 51.2945 24.8787 51.2979C26.6914 53.1509 29.215 54.3013 32.0153 54.3085H32.0606C34.8538 54.3047 37.3808 53.1512 39.1973 51.3017L39.201 51.2979C39.4492 51.504 39.7083 51.6965 39.9741 51.8747C40.0024 51.8961 40.0266 51.9131 40.0548 51.9308C40.1808 52.0148 40.3101 52.095 40.4398 52.1756C40.5832 52.263 40.7306 52.347 40.8773 52.4272C40.9015 52.4344 40.9192 52.4483 40.9403 52.4589C41.2484 52.6299 41.553 52.8081 41.8506 52.9972C41.8747 53.0111 41.8958 53.0251 41.9204 53.0428C42.0395 53.1162 42.1621 53.1927 42.2775 53.2771C42.5682 53.4624 42.8518 53.6654 43.1278 53.8752H43.135C43.4887 54.1408 43.8353 54.4169 44.1675 54.707C44.5035 54.9937 44.8255 55.2946 45.137 55.6058C47.1462 57.6019 48.6965 60.0565 49.6208 62.7943C50.2492 64.6571 50.5924 66.6536 50.5924 68.73Z" fill="#B34FC5"/>
<path d="M50.9951 58.4732C50.9706 58.4837 50.9426 58.4946 50.9144 58.4977C49.0737 58.9765 41.8145 50.2383 41.7409 41.0781C41.7375 40.3402 41.776 39.5989 41.8706 38.8545C42.1157 36.8791 43.0679 34.9805 43.8587 33.0681C44.4817 31.5541 45.01 30.0368 45.01 28.4705C45.01 20.0795 42.5743 22.8136 35.7808 18.2857C34.1392 17.1948 32.9736 16.2997 32.0599 15.5724C29.5367 13.5725 28.896 12.856 25.4346 12.856C21.0311 12.856 19.2814 20.495 18.7809 23.7606C18.242 27.2745 18.2349 32.9698 20.4296 38.3924C22.13 42.5941 22.1304 46.7136 18.7809 51.2901C17.5244 53.0071 15.5993 58.8071 13.2088 60.6775C12.4637 61.2613 11.6759 61.4643 10.8466 61.041C4.31523 57.7023 8.24579 46.986 10.206 40.2766C12.3166 33.0568 12.9535 25.7391 14.4865 18.4493C16.2151 10.2412 23.25 5.23796 26.0923 7.26607C27.0407 5.56679 29.5224 4.93054 32.0596 4.93054C33.9183 4.93054 35.8117 5.27672 37.1557 5.79769C47.5333 9.82195 47.7086 19.4296 48.2614 23.4257C48.7166 26.7263 50.3438 29.8099 50.9144 33.0684V33.0789C51.0369 33.7642 51.1105 34.4633 51.1142 35.1696C51.1384 38.9841 50.7115 41.5644 53.6133 44.7423C55.8145 47.1513 54.1311 57.0993 50.9951 58.4732Z" fill="#421800"/>
<path d="M32.0596 54.3081L32.0494 54.3258L32.0456 54.3326C31.0587 55.8639 29.4243 56.661 27.7757 56.661C26.4351 56.661 25.0877 56.1332 24.0763 55.0494L22.1757 53.0149C22.4977 52.8085 22.8266 52.616 23.1626 52.4344C23.1697 52.4272 23.1765 52.4306 23.1765 52.4306V52.4272C23.327 52.3433 23.474 52.2596 23.6211 52.1719C24.0586 51.9063 24.479 51.6125 24.8708 51.2908C24.8742 51.2945 24.8742 51.2945 24.878 51.2979C26.6907 53.1509 29.2143 54.3013 32.0146 54.3085H32.0596V54.3081Z" fill="#E7ECF2"/>
<path d="M41.9193 53.0424L40.047 55.0491C39.0352 56.1332 37.6878 56.6607 36.3438 56.6607C34.6989 56.6607 33.0608 55.8636 32.0773 54.3323L32.0739 54.3255L32.0596 54.3078C34.8528 54.304 37.3797 53.1506 39.1963 51.301L39.2 51.2972C39.4482 51.5033 39.7072 51.6958 39.9731 51.874C40.0014 51.8954 40.0255 51.9124 40.0538 51.9301C40.1797 52.0141 40.3091 52.0943 40.4388 52.1749C40.5821 52.2623 40.7295 52.3463 40.8763 52.4266C40.9004 52.4337 40.9181 52.4477 40.9392 52.4582C41.2473 52.6293 41.552 52.8074 41.8495 52.9965C41.8737 53.0108 41.8945 53.0247 41.9193 53.0424Z" fill="#E7ECF2"/>
</g>
</svg>
