<svg width="64" height="65" viewBox="0 0 64 65" fill="none" xmlns="http://www.w3.org/2000/svg">
<mask id="mask0" mask-type="alpha" maskUnits="userSpaceOnUse" x="0" y="0" width="64" height="65">
<ellipse cx="32" cy="32.7406" rx="32" ry="31.9656" fill="#C4C4C4"/>
</mask>
<g mask="url(#mask0)">
<path d="M32.0252 64.7565C49.7122 64.7565 64.0504 50.4337 64.0504 32.7657C64.0504 15.0978 49.7122 0.775024 32.0252 0.775024C14.3382 0.775024 0 15.0978 0 32.7657C0 50.4337 14.3382 64.7565 32.0252 64.7565Z" fill="#E1854F"/>
<path d="M50.5927 69.0412V69.0449H13.4608V69.0412C13.4608 66.9471 13.8073 64.9295 14.4514 63.052C14.5668 62.713 14.6931 62.3777 14.8293 62.0451V62.0417C14.9624 61.7095 15.1091 61.3844 15.2633 61.0627C15.8757 59.7725 16.6386 58.5663 17.5244 57.4615C17.7484 57.185 17.9758 56.916 18.2104 56.6576C18.3258 56.5243 18.4483 56.3954 18.5709 56.2658C18.6934 56.14 18.816 56.0142 18.9419 55.8884C19.5683 55.2627 20.2403 54.6893 20.9474 54.1612C21.3011 53.899 21.6579 53.6545 22.0289 53.4168C22.1862 53.3155 22.3472 53.2175 22.5082 53.1233C22.6025 53.0672 22.6938 53.0115 22.7881 52.9554C22.8303 52.9343 22.8688 52.9135 22.9106 52.889C22.9947 52.8401 23.0785 52.7948 23.1625 52.7493C23.1697 52.7425 23.1765 52.7425 23.1765 52.7425C23.327 52.6622 23.4737 52.5748 23.6211 52.4837C24.0585 52.2215 24.4786 51.9314 24.8776 51.6097C25.4621 51.1449 26.0048 50.6239 26.4912 50.054C26.9287 49.5435 27.3242 48.9947 27.6674 48.4108C28.049 47.7745 28.3707 47.0999 28.623 46.3932C28.7489 46.0365 28.8609 45.673 28.9522 45.2989C29.0223 45.0367 29.0781 44.7708 29.1271 44.5015C29.2459 43.8302 29.3089 43.1378 29.3089 42.4319L32.0146 42.4458H32.0286L32.5011 42.4492L34.7969 42.4598C34.7969 43.1518 34.8565 43.8302 34.9719 44.4913C35.0175 44.764 35.0771 45.0333 35.1469 45.2989C35.2344 45.6658 35.343 46.0263 35.4655 46.3755C35.7174 47.089 36.0361 47.7708 36.4173 48.4105C36.7288 48.942 37.0825 49.4419 37.4744 49.9139C37.9853 50.5396 38.5631 51.1061 39.1966 51.6128C39.3297 51.7213 39.4625 51.8264 39.5993 51.924C39.7215 52.0151 39.8475 52.1021 39.9738 52.1861C40.0017 52.2072 40.0262 52.2246 40.0541 52.2419C40.1801 52.3259 40.306 52.4099 40.4391 52.4867C40.5825 52.5745 40.7299 52.6619 40.8766 52.7421C40.9011 52.7489 40.9222 52.7598 40.9396 52.7738C41.2476 52.9451 41.552 53.1233 41.8495 53.3087C41.9932 53.3961 42.1365 53.4869 42.2768 53.5882C42.5671 53.7735 42.8507 53.9762 43.1271 54.186C43.1271 54.1898 43.1309 54.1898 43.1309 54.1898H43.1343C43.488 54.4519 43.8308 54.7315 44.1668 55.0185C44.5028 55.3052 44.8248 55.6061 45.1363 55.9173C48.5103 59.273 50.5927 63.909 50.5927 69.0412Z" fill="#ECC19C"/>
<path d="M50.5927 69.0412H13.4608C13.4608 66.9471 13.8073 64.9295 14.4514 63.0521C14.5668 62.713 14.6931 62.3777 14.8293 62.0452V62.0418C14.9624 61.7095 15.1091 61.3844 15.2633 61.0627C15.8757 59.7725 16.6386 58.5664 17.5244 57.4615C17.7484 57.185 17.9758 56.9161 18.2104 56.6576C18.3258 56.5243 18.4483 56.3954 18.5709 56.2659C18.6934 56.14 18.816 56.0142 18.9419 55.8884C19.5683 55.2627 20.2403 54.6893 20.9474 54.1612C21.3011 53.8991 21.6579 53.6546 22.0289 53.4168C22.1862 53.3155 22.3472 53.2176 22.5082 53.1234C22.6025 53.0673 22.6938 53.0115 22.7881 52.9554C22.8303 52.9343 22.8688 52.9136 22.9106 52.8891C22.9947 52.8401 23.0785 52.7911 23.1625 52.7459C23.1697 52.7388 23.1765 52.7422 23.1765 52.7422V52.7388C23.327 52.6548 23.4737 52.5708 23.6211 52.4834C24.0585 52.2178 24.4786 51.9237 24.8705 51.6023C24.8739 51.6057 24.8739 51.6057 24.8776 51.6094C26.6907 53.4624 29.2143 54.6128 32.0143 54.62H32.0422C32.1964 54.62 32.3503 54.6162 32.5008 54.606C35.1186 54.4904 37.4778 53.3648 39.1962 51.6128L39.1996 51.6094C39.4482 51.8155 39.7072 52.008 39.9731 52.1862C40.001 52.2073 40.0255 52.2246 40.0534 52.2419C40.1794 52.3259 40.3088 52.4062 40.4385 52.4868C40.5818 52.5745 40.7292 52.6582 40.8759 52.7388C40.9004 52.7459 40.9181 52.7599 40.9389 52.7701C41.247 52.9414 41.5513 53.1196 41.8488 53.3087C41.9925 53.3961 42.1358 53.4869 42.2761 53.5882C42.5665 53.7736 42.85 53.9762 43.1265 54.1861H43.1336C43.4873 54.4516 43.8335 54.7281 44.1661 55.0182C44.5021 55.3049 44.8242 55.6058 45.1356 55.917C48.5103 59.273 50.5927 63.909 50.5927 69.0412Z" fill="#5AB7B2"/>
<path d="M37.7617 46.882V49.0114C37.7617 49.3467 37.6565 49.6579 37.4747 49.9133C37.1911 50.3257 36.7152 50.5951 36.1763 50.5951H27.6813C27.2054 50.5951 26.7785 50.3853 26.4912 50.053C26.2461 49.7735 26.0956 49.4096 26.0956 49.0114V46.882C26.0956 46.2804 26.4316 45.756 26.9253 45.4904C27.1493 45.368 27.4083 45.298 27.6813 45.298H36.176C36.4912 45.298 36.7816 45.3888 37.0264 45.5496C37.4676 45.8264 37.7617 46.3226 37.7617 46.882Z" fill="#5AB7B2"/>
<path d="M39.5993 51.9232V56.5663H22.5086V53.1226C22.6029 53.0665 22.6941 53.0107 22.7884 52.9546C22.8306 52.9335 22.8691 52.9128 22.911 52.8883C22.9951 52.8393 23.0788 52.7941 23.1629 52.7485C23.1701 52.7417 23.1769 52.7417 23.1769 52.7417C23.3273 52.6615 23.4741 52.5741 23.6215 52.4829C24.0589 52.2207 24.479 51.9307 24.878 51.609C25.4625 51.1441 26.0051 50.6231 26.4916 50.0532C26.929 49.5428 27.3246 48.9939 27.6678 48.41H36.4177C36.7292 48.9415 37.0829 49.4414 37.4747 49.9134C37.9857 50.5391 38.5634 51.1057 39.1969 51.6124C39.3297 51.7208 39.4625 51.8256 39.5993 51.9232Z" fill="#5AB7B2"/>
<path d="M50.8065 24.6179C50.8065 32.2886 46.799 38.9595 40.9011 42.3509C39.0846 43.3997 37.0863 44.1338 34.9719 44.4906C34.1634 44.6303 33.3375 44.7106 32.5011 44.7317C32.3435 44.7354 32.1862 44.7385 32.0286 44.7385H32.0252C31.0383 44.7385 30.0722 44.6582 29.1271 44.5008C26.9954 44.1478 24.9865 43.4102 23.1561 42.354C17.2585 38.9663 13.2473 32.2916 13.2473 24.6175C13.2473 13.7826 21.2344 4.94748 31.2446 4.51391C31.2585 4.51051 31.2691 4.51051 31.2831 4.51051C31.3811 4.50711 31.4791 4.50337 31.5772 4.49997C31.7243 4.49656 31.8676 4.49316 32.0146 4.49316H32.0286C32.1791 4.49316 32.3295 4.49656 32.48 4.49997H32.5117C32.6165 4.50337 32.7217 4.50711 32.8265 4.51391H32.8371C32.8861 4.51731 32.9351 4.52105 32.9842 4.52445C33.0437 4.52785 33.1033 4.53159 33.1625 4.53499C43.0046 5.16784 50.8065 13.9121 50.8065 24.6179Z" fill="#141720"/>
<path d="M46.2771 18.7263V29.3586C46.2771 29.5127 46.2737 29.6664 46.2703 29.8201C46.2669 29.9459 46.2632 30.0683 46.256 30.1941C46.2526 30.306 46.2455 30.4179 46.2349 30.5298C46.2315 30.61 46.2244 30.6906 46.2176 30.7712C46.2142 30.8202 46.2108 30.8658 46.2036 30.9144C46.1965 31.0018 46.1893 31.0926 46.1753 31.18C46.1614 31.348 46.1403 31.5122 46.1158 31.6802C46.1124 31.722 46.1052 31.7642 46.0984 31.806C46.0879 31.89 46.0739 31.9737 46.0599 32.0577V32.0682C46.0388 32.1906 46.0181 32.3093 45.997 32.4317C45.9656 32.5994 45.934 32.7674 45.8989 32.9316C45.8955 32.9388 45.8955 32.9456 45.8918 32.9527C45.8884 32.9772 45.885 33.0017 45.8778 33.0262C45.8744 33.0333 45.8744 33.0401 45.871 33.0472C45.8536 33.138 45.8325 33.2254 45.8114 33.3128C45.8043 33.3513 45.7975 33.3897 45.7835 33.4281C45.773 33.491 45.7556 33.5539 45.7413 33.6168C45.7308 33.6519 45.7239 33.6903 45.71 33.725C45.7028 33.7566 45.6923 33.7882 45.6855 33.8161C45.6119 34.1028 45.5282 34.3823 45.4404 34.6622C45.3985 34.7951 45.3563 34.9244 45.311 35.0573C45.3076 35.0713 45.3004 35.0852 45.297 35.0995C45.2548 35.2182 45.213 35.3372 45.1711 35.4559C45.1571 35.4909 45.1432 35.5256 45.1289 35.5644C45.087 35.6762 45.0448 35.7881 44.9995 35.9C44.9471 36.0364 44.8909 36.1693 44.8351 36.3023C44.7861 36.4213 44.7336 36.54 44.6812 36.659C44.6741 36.6801 44.6639 36.6974 44.6567 36.7185C44.5971 36.8443 44.5413 36.9702 44.4817 37.0926C44.4222 37.2218 44.3592 37.3514 44.2928 37.4806C44.1668 37.736 44.0303 37.991 43.8938 38.2393L43.7045 38.5749C43.1656 39.5016 42.5672 40.3721 41.9163 41.176C41.8288 41.2916 41.7379 41.4032 41.6433 41.5117C41.5136 41.6691 41.3808 41.8228 41.2477 41.9728C41.1357 42.0989 41.0203 42.2282 40.9011 42.3506C40.8977 42.3577 40.894 42.3608 40.8872 42.3679C40.5512 42.7284 40.208 43.0705 39.8584 43.3925C39.7883 43.4622 39.7151 43.5255 39.6412 43.5918C39.5221 43.6999 39.4033 43.805 39.2807 43.9067C39.1861 43.9903 39.088 44.0709 38.9903 44.1512C38.7384 44.3576 38.4862 44.5569 38.2308 44.7422C38.1256 44.8225 38.0174 44.8997 37.9088 44.9731C37.7338 45.0989 37.5554 45.218 37.3767 45.3332C37.2787 45.3996 37.1772 45.4628 37.0758 45.5223C37.0584 45.5325 37.0441 45.5434 37.0267 45.5502C36.6873 45.7597 36.3408 45.9521 36.0014 46.1201C35.9139 46.1657 35.8264 46.2075 35.7389 46.2494C35.6514 46.2915 35.5605 46.3334 35.4659 46.3752C35.3505 46.4275 35.2351 46.4769 35.1193 46.5221C35.0741 46.5435 35.0285 46.5605 34.9828 46.5745C34.8463 46.6306 34.7064 46.6829 34.5699 46.7285C34.3983 46.7914 34.2233 46.8438 34.0521 46.8928C33.933 46.9278 33.8104 46.9591 33.6916 46.9869C33.6845 46.9903 33.6776 46.9941 33.6671 46.9941C33.5479 47.022 33.4291 47.0499 33.3103 47.0709C33.2787 47.0781 33.247 47.0852 33.2157 47.0886C33.1176 47.1063 33.0196 47.1233 32.9216 47.1342C32.7816 47.1553 32.6417 47.1726 32.5018 47.1798C32.4528 47.1869 32.4072 47.19 32.3582 47.19C32.2462 47.1968 32.1379 47.2005 32.0293 47.2005H32.0153C31.9067 47.2005 31.7982 47.1968 31.6899 47.19C31.6477 47.19 31.6058 47.1866 31.5636 47.1798C31.4656 47.176 31.3641 47.1658 31.2589 47.1519C31.2378 47.1519 31.2136 47.1481 31.1925 47.1447C31.0628 47.1271 30.9335 47.1063 30.8004 47.0815C30.6884 47.0638 30.5764 47.0397 30.461 47.0118C29.8625 46.8754 29.2463 46.669 28.6233 46.3929C28.0913 46.1586 27.5524 45.8756 27.0169 45.5468C26.9852 45.5295 26.9573 45.5084 26.9256 45.491C26.6877 45.3441 26.446 45.1867 26.2114 45.0224C26.0783 44.9282 25.9456 44.8334 25.8125 44.7358C25.3958 44.4314 24.9832 44.0995 24.577 43.7428C24.465 43.6411 24.353 43.5398 24.241 43.435C24.129 43.3337 24.017 43.229 23.9085 43.1276C23.6494 42.8794 23.3975 42.6243 23.1561 42.355C23.1388 42.3411 23.1248 42.3234 23.1108 42.3094C23.0094 42.2013 22.9079 42.0894 22.8062 41.9738C22.526 41.6592 22.253 41.3341 21.9942 40.9951C21.8928 40.8727 21.7982 40.7469 21.7035 40.6207C21.3498 40.1521 21.0142 39.6628 20.6989 39.1557C20.6148 39.0194 20.5308 38.8793 20.4504 38.7432C20.3524 38.579 20.2581 38.411 20.1634 38.2433C19.8135 37.6139 19.4914 36.9603 19.2116 36.2856C19.1697 36.1877 19.1275 36.0898 19.0925 35.9918C19.0363 35.866 18.9873 35.7368 18.942 35.6106C18.8719 35.4253 18.8055 35.2399 18.7422 35.0546C18.6792 34.8693 18.6199 34.6805 18.5604 34.4918C18.5042 34.3099 18.4518 34.1283 18.4028 33.943C18.3466 33.7471 18.2942 33.5478 18.2489 33.3451C18.2455 33.3241 18.2383 33.3033 18.2346 33.2822C18.1682 33.0027 18.1086 32.7194 18.0562 32.4328C17.9864 32.055 17.9302 31.6703 17.8884 31.2823C17.8707 31.1599 17.8601 31.0375 17.8499 30.9151C17.8359 30.7859 17.8254 30.6597 17.8186 30.5305C17.8009 30.2962 17.7903 30.0585 17.7835 29.8208C17.7801 29.6667 17.7764 29.513 17.7764 29.3593V18.7263C17.7764 11.1291 23.7369 4.9196 31.2446 4.51391C31.2586 4.51051 31.2691 4.51051 31.2831 4.51051C31.3811 4.50711 31.4792 4.50337 31.5772 4.49997C31.7243 4.49656 31.8676 4.49316 32.0147 4.49316H32.0286C32.1791 4.49316 32.3296 4.49656 32.48 4.49997H32.5117C32.6165 4.50337 32.7217 4.50711 32.8266 4.51391H32.8371C32.8862 4.51731 32.9352 4.52105 32.9842 4.52445C33.0894 4.53159 33.1942 4.53839 33.2957 4.54893C33.3481 4.55233 33.3971 4.55607 33.4499 4.56288C33.485 4.56628 33.5163 4.57002 33.5513 4.57342C34.1079 4.63293 34.654 4.72372 35.1861 4.84274C36.1137 5.05256 37.006 5.35317 37.853 5.73438C39.008 6.25195 40.0824 6.91608 41.0485 7.70978C41.8605 8.37426 42.5992 9.12239 43.2429 9.94737C45.119 12.3353 46.2492 15.3353 46.2741 18.6005C46.2771 18.6427 46.2771 18.6845 46.2771 18.7263Z" fill="#ECC19C"/>
<path d="M49.4553 23.9952H14.6019C14.6019 13.517 21.9837 4.97197 31.2446 4.51391C31.2585 4.51051 31.2691 4.51051 31.2831 4.51051C31.3811 4.50711 31.4791 4.50337 31.5772 4.49997C31.7243 4.49656 31.8676 4.49316 32.0146 4.49316H32.0286C32.1791 4.49316 32.3295 4.49656 32.48 4.49997H32.5117C32.6165 4.50337 32.7217 4.50711 32.8265 4.51391H32.8371C32.8861 4.51731 32.9351 4.52105 32.9842 4.52445C33.0437 4.52785 33.1033 4.53159 33.1625 4.53499C33.2048 4.53839 33.25 4.54213 33.2957 4.54927C33.3481 4.55267 33.3971 4.55642 33.4499 4.56322C33.4849 4.56662 33.5162 4.57036 33.5513 4.57376C42.462 5.43377 49.4553 13.8002 49.4553 23.9952Z" fill="#141720"/>
</g>
</svg>
