<svg width="64" height="65" viewBox="0 0 64 65" fill="none" xmlns="http://www.w3.org/2000/svg">
<mask id="mask0" mask-type="alpha" maskUnits="userSpaceOnUse" x="0" y="0" width="64" height="65">
<ellipse cx="32" cy="32.6372" rx="32" ry="31.9656" fill="#C4C4C4"/>
</mask>
<g mask="url(#mask0)">
<path d="M32.0252 64.6531C49.7122 64.6531 64.0504 50.3303 64.0504 32.6623C64.0504 14.9944 49.7122 0.671631 32.0252 0.671631C14.3382 0.671631 0 14.9944 0 32.6623C0 50.3303 14.3382 64.6531 32.0252 64.6531Z" fill="#F3E4B2"/>
<path d="M46.2887 18.6214V29.2536C46.2887 29.4074 46.2853 29.5611 46.2815 29.7148C46.2781 29.8406 46.2747 29.963 46.2676 30.0892C46.2642 30.2011 46.257 30.3129 46.2465 30.4248C46.2431 30.5051 46.2359 30.5857 46.2291 30.6659C46.2254 30.7152 46.222 30.7601 46.2148 30.8094C46.208 30.8968 46.2009 30.9876 46.1869 31.075C46.173 31.2427 46.1518 31.4072 46.1273 31.5749C46.1239 31.6171 46.1168 31.6589 46.11 31.7007C46.0994 31.7847 46.0855 31.8687 46.0715 31.9524V31.9629C46.0507 32.085 46.0296 32.204 46.0085 32.3264C45.9769 32.4941 45.9456 32.6621 45.9105 32.8263C45.9071 32.8334 45.9071 32.8406 45.9037 32.8477C45.9003 32.8719 45.8965 32.8967 45.8897 32.9212C45.8863 32.9283 45.8863 32.9351 45.8826 32.9423C45.8652 33.0334 45.8441 33.1205 45.823 33.2079C45.8162 33.2463 45.809 33.285 45.7951 33.3235C45.7845 33.3864 45.7668 33.449 45.7532 33.5122C45.7427 33.5472 45.7359 33.5857 45.7216 33.6203C45.7144 33.652 45.7042 33.6836 45.697 33.7115C45.6235 33.9982 45.5394 34.278 45.4519 34.5576C45.4097 34.6905 45.3678 34.8197 45.3226 34.9527C45.3192 34.9666 45.312 34.9806 45.3086 34.9945C45.2667 35.1135 45.2245 35.2322 45.1827 35.3512C45.1687 35.3863 45.1547 35.421 45.1408 35.4594C45.0986 35.5713 45.0567 35.6831 45.0114 35.795C44.959 35.931 44.9028 36.064 44.847 36.1973C44.798 36.3163 44.7455 36.4347 44.6931 36.5537C44.6863 36.5751 44.6758 36.5921 44.6686 36.6132C44.609 36.739 44.5532 36.8649 44.4936 36.9876C44.4341 37.1168 44.3711 37.2464 44.3047 37.376C44.1787 37.631 44.0422 37.8864 43.9057 38.1343L43.7168 38.4699C43.1775 39.3966 42.5794 40.2668 41.9282 41.071C41.8407 41.1863 41.7498 41.2982 41.6552 41.4063C41.5258 41.5638 41.3927 41.7175 41.2596 41.8678C41.1404 42.0008 41.0216 42.1334 40.8991 42.2629C40.5631 42.6231 40.2199 42.9655 39.87 43.2875C39.7998 43.3573 39.7267 43.4205 39.6531 43.4868C39.534 43.595 39.4152 43.7 39.2926 43.8014C39.1983 43.8854 39.1003 43.9656 39.0019 44.0462C38.75 44.2523 38.4981 44.4516 38.2424 44.6369C38.1375 44.7175 38.029 44.7944 37.9204 44.8678C37.7454 44.9936 37.5667 45.1126 37.3883 45.2283C37.2902 45.2946 37.1888 45.3575 37.0873 45.417C36.7302 45.637 36.3697 45.84 36.0126 46.0148C35.9251 46.0604 35.8376 46.1026 35.7501 46.1444C35.6627 46.1862 35.5718 46.2284 35.4771 46.2702C35.3617 46.3226 35.246 46.3715 35.1306 46.4171C35.085 46.4379 35.0397 46.4555 34.9941 46.4695C34.8575 46.5256 34.7176 46.5776 34.5811 46.6232C34.4099 46.6864 34.2346 46.7388 34.0633 46.7874C33.9442 46.8225 33.822 46.8537 33.7028 46.8816C33.6957 46.8854 33.6889 46.8888 33.6783 46.8888C33.5592 46.917 33.4404 46.9449 33.3212 46.966C33.2899 46.9731 33.2582 46.9799 33.2269 46.9837C33.1289 47.001 33.0308 47.0187 32.9328 47.0292C32.7929 47.0503 32.6526 47.0676 32.5127 47.0744C32.4637 47.0816 32.4184 47.085 32.3694 47.085C32.2574 47.0918 32.1454 47.0955 32.0368 47.0955H32.0262C31.918 47.0955 31.8094 47.0918 31.7008 47.085C31.6589 47.085 31.6167 47.0816 31.5748 47.0744C31.4768 47.071 31.3753 47.0605 31.2701 47.0466C31.2494 47.0466 31.2249 47.0432 31.2038 47.0394C31.0744 47.0221 30.9447 47.001 30.8119 46.9765C30.6999 46.9588 30.5879 46.9343 30.4722 46.9065C29.8737 46.7701 29.2579 46.5637 28.6349 46.2879C28.1028 46.0536 27.5639 45.7703 27.0284 45.4418C26.7592 45.2776 26.4895 45.1028 26.2233 44.9175C26.0902 44.8229 25.9575 44.7284 25.8244 44.6304C25.4077 44.3261 24.9947 43.9942 24.589 43.6375C24.477 43.5361 24.365 43.4348 24.253 43.3301C24.141 43.2287 24.029 43.1236 23.9204 43.0223C23.6473 42.7601 23.3815 42.4877 23.1224 42.2045C23.021 42.096 22.9195 41.9844 22.8177 41.8688C22.5379 41.5543 22.2649 41.2292 22.0058 40.8898C21.9044 40.7677 21.8097 40.6419 21.7154 40.5157C21.3617 40.0471 21.0261 39.5578 20.7108 39.0504C20.6267 38.9144 20.5427 38.7746 20.4623 38.6379C20.3643 38.4737 20.27 38.3057 20.1753 38.138C19.8254 37.5086 19.5033 36.855 19.2235 36.18C19.1813 36.082 19.1394 35.9841 19.1044 35.8865C19.0485 35.7607 18.9995 35.6311 18.9539 35.5053C18.8838 35.32 18.8174 35.1346 18.7544 34.9493C18.6914 34.764 18.6318 34.5749 18.5723 34.3865C18.5164 34.2046 18.464 34.023 18.415 33.8376C18.3588 33.6418 18.3064 33.4425 18.2608 33.2398C18.2574 33.2187 18.2502 33.1977 18.2468 33.1766C18.1804 32.897 18.1209 32.6138 18.0684 32.3271C17.9983 31.9496 17.9425 31.565 17.9006 31.1767C17.8829 31.0546 17.8724 30.9318 17.8621 30.8098C17.8482 30.6802 17.8376 30.5544 17.8305 30.4252C17.8131 30.1909 17.8026 29.9528 17.7954 29.7151C17.792 29.5614 17.7883 29.4077 17.7883 29.254V18.6214C17.7883 10.765 24.1617 4.39498 32.0262 4.38818H32.0405C33.1255 4.38818 34.1825 4.51026 35.1973 4.73776C36.125 4.94724 37.0175 5.24819 37.8642 5.62906C39.0193 6.14629 40.0936 6.81111 41.0598 7.6048C41.872 8.26894 42.6104 9.01707 43.2545 9.84239C45.1306 12.2303 46.2608 15.2303 46.2853 18.4955C46.2887 18.5374 46.2887 18.5792 46.2887 18.6214Z" fill="#ECC19C"/>
<path d="M50.6043 68.9362V68.9396H13.4724V68.9362C13.4724 66.8417 13.8189 64.8245 14.463 62.947C14.5784 62.608 14.7044 62.2724 14.8412 61.9401V61.9364C14.9743 61.6041 15.121 61.2791 15.2749 60.9577C15.8873 59.6675 16.6506 58.461 17.536 57.3565C17.76 57.08 17.9874 56.8107 18.222 56.5522C18.3374 56.4193 18.4599 56.2904 18.5825 56.1608C18.7047 56.035 18.8276 55.9092 18.9532 55.7834C19.5799 55.1573 20.2516 54.5843 20.959 54.0562C21.3124 53.794 21.6695 53.5492 22.0405 53.3118C22.4116 53.0775 22.7895 52.8534 23.1745 52.6439C23.1816 52.6371 23.1884 52.6371 23.1884 52.6371C23.3389 52.5565 23.486 52.4691 23.633 52.3783C24.0705 52.1162 24.4906 51.8257 24.8895 51.5044C26.5801 50.1618 27.889 48.3575 28.6346 46.2879C29.0792 45.0501 29.3205 43.7181 29.3205 42.3265L32.0259 42.3405L34.8085 42.3548C34.8085 43.7286 35.0431 45.0467 35.4771 46.2705C36.2121 48.3473 37.5176 50.1584 39.2082 51.5078C39.4601 51.7142 39.7158 51.9029 39.985 52.0815C40.0133 52.1022 40.0375 52.1196 40.0657 52.1372C40.1917 52.2212 40.3176 52.3049 40.4507 52.3821C40.594 52.4695 40.7411 52.5569 40.8882 52.6375C40.9127 52.6443 40.9338 52.6548 40.9512 52.6688C41.2592 52.8401 41.5636 53.0183 41.8611 53.2037C42.0048 53.2911 42.1481 53.3819 42.288 53.4832C42.5787 53.6685 42.862 53.8715 43.1387 54.0814C43.1387 54.0848 43.1421 54.0848 43.1421 54.0848H43.1455C43.4992 54.3469 43.8421 54.6268 44.1781 54.9135C44.5141 55.2005 44.8361 55.5008 45.1476 55.8123C48.5215 59.1676 50.6043 63.804 50.6043 68.9362Z" fill="#ECC19C"/>
<path d="M50.6029 68.9347H13.4713C13.4713 66.8403 13.8179 64.8227 14.462 62.9456C14.5774 62.6066 14.7037 62.2709 14.8398 61.9387V61.9349C14.9729 61.6027 15.12 61.2776 15.2739 60.9559C15.8863 59.6661 16.6492 58.4595 17.535 57.3547C17.759 57.0786 17.9867 56.8092 18.2209 56.5508C18.3363 56.4178 18.4589 56.2886 18.5814 56.1594C18.704 56.0335 18.8265 55.9077 18.9525 55.7819C19.5789 55.1559 20.2509 54.5829 20.958 54.0547C21.3117 53.7926 21.6684 53.5477 22.0395 53.31C22.2318 53.1879 22.4245 53.0689 22.6203 52.9536C22.8024 52.8452 22.9879 52.7401 23.1734 52.6387C23.1806 52.6316 23.1874 52.6353 23.1874 52.6353V52.6316C23.3379 52.5476 23.4849 52.4639 23.632 52.3762C24.0694 52.1106 24.4895 51.8168 24.8814 51.4951C24.8848 51.4989 24.8848 51.4989 24.8885 51.5023C26.7016 53.3552 29.2252 54.5057 32.0252 54.5128H32.0534C34.8534 54.5128 37.3872 53.359 39.2075 51.506L39.2109 51.5023C39.4594 51.7087 39.7185 51.9011 39.9843 52.0793C40.0123 52.1001 40.0368 52.1174 40.0647 52.1351C40.1906 52.2191 40.3203 52.2994 40.4497 52.38C40.593 52.4673 40.7404 52.5513 40.8871 52.6316C40.9117 52.6387 40.9294 52.6527 40.9501 52.6632C41.1145 52.7544 41.2827 52.8486 41.4437 52.9461C41.584 53.0301 41.7239 53.1141 41.8604 53.2015C42.0037 53.2889 42.1474 53.3797 42.2873 53.4811C42.578 53.6664 42.8613 53.8694 43.1377 54.0792H43.1448C43.4982 54.3448 43.8448 54.6213 44.1774 54.911C44.5134 55.198 44.8354 55.4986 45.1469 55.8098C48.5205 59.1658 50.6029 63.8019 50.6029 68.9347Z" fill="#EB6D4A"/>
<path d="M46.2887 29.2535C46.2887 29.4072 46.2853 29.561 46.2815 29.7147C46.2781 29.8405 46.2747 29.9629 46.2676 30.0891C46.2642 30.2009 46.257 30.3128 46.2465 30.4247C46.2431 30.505 46.2359 30.5856 46.2291 30.6658C46.2254 30.7151 46.222 30.76 46.2148 30.8093C46.208 30.8967 46.2009 30.9875 46.1869 31.0749C46.1692 31.2425 46.1518 31.4102 46.1273 31.5748C46.1239 31.6169 46.1168 31.6588 46.11 31.7006C46.0994 31.7846 46.0855 31.8686 46.0715 31.9522C46.0541 32.0781 46.0296 32.2039 46.0085 32.3267C45.9806 32.4736 45.9524 32.6167 45.921 32.7599C45.9173 32.7915 45.9105 32.8194 45.9033 32.8476C45.8999 32.8718 45.8928 32.8966 45.8894 32.9211C45.886 32.9282 45.886 32.935 45.8822 32.9422C45.8822 32.9595 45.8788 32.9738 45.8754 32.9877C45.8581 33.0612 45.8438 33.1346 45.823 33.2077C45.8162 33.2462 45.809 33.2849 45.7951 33.3234C45.7808 33.3931 45.7634 33.4594 45.7427 33.526C45.7393 33.5577 45.7321 33.5893 45.7216 33.6202C45.7144 33.6519 45.7042 33.6835 45.697 33.7114C45.6235 33.998 45.5394 34.2779 45.4519 34.5574C45.4097 34.6904 45.3678 34.8196 45.3226 34.9526C45.3192 34.9665 45.312 34.9805 45.3086 34.9944C45.2667 35.1134 45.2245 35.2321 45.1827 35.3511C45.1687 35.3862 45.1547 35.4209 45.1408 35.4593C45.0986 35.5712 45.0567 35.683 45.0114 35.7949C44.959 35.9309 44.9028 36.0639 44.847 36.1972C44.798 36.3162 44.7455 36.4346 44.6931 36.5536C44.6863 36.575 44.6758 36.592 44.6686 36.6131C44.609 36.7389 44.5532 36.8647 44.4936 36.9875C44.4341 37.1167 44.3711 37.2463 44.3047 37.3758C44.1787 37.6309 44.0422 37.8863 43.9057 38.1342L43.7168 38.4698C43.1775 39.3965 42.5794 40.2667 41.9282 41.0709C41.8407 41.1862 41.7498 41.2981 41.6552 41.4062C41.5258 41.5637 41.3927 41.7174 41.2596 41.8677C41.1404 42.0007 41.0216 42.1333 40.8991 42.2628C40.5631 42.623 40.2199 42.9654 39.87 43.2874C39.7998 43.3571 39.7267 43.4204 39.6531 43.4867C39.534 43.5948 39.4152 43.6999 39.2926 43.8013C39.1983 43.8853 39.1003 43.9655 39.0019 44.0461C38.75 44.2522 38.4981 44.4515 38.2424 44.6368C38.1375 44.7174 38.029 44.7942 37.9204 44.8677C37.7454 44.9935 37.5667 45.1125 37.3883 45.2282C37.2902 45.2945 37.1888 45.3574 37.0873 45.4169C36.7302 45.6369 36.3697 45.8399 36.0126 46.0147C35.9251 46.0603 35.8376 46.1024 35.7501 46.1443C35.6627 46.1861 35.5718 46.2283 35.4771 46.2701C35.3617 46.3225 35.246 46.3714 35.1306 46.417C35.085 46.4377 35.0397 46.4554 34.9941 46.4694C34.8575 46.5255 34.7176 46.5775 34.5811 46.6231C34.4099 46.6863 34.2346 46.7387 34.0633 46.7873C33.9442 46.8223 33.822 46.8536 33.7028 46.8815C33.6957 46.8853 33.6889 46.8887 33.6783 46.8887C33.5592 46.9169 33.4404 46.9448 33.3212 46.9659C33.2899 46.973 33.2582 46.9798 33.2269 46.9835C33.1289 47.0009 33.0308 47.0186 32.9328 47.0291C32.7929 47.0502 32.6526 47.0675 32.5127 47.0743C32.4637 47.0815 32.4184 47.0849 32.3694 47.0849C32.2574 47.0917 32.1454 47.0954 32.0368 47.0954H32.0262C31.918 47.0954 31.8094 47.0917 31.7008 47.0849C31.6589 47.0849 31.6167 47.0815 31.5748 47.0743C31.4768 47.0709 31.3753 47.0604 31.2701 47.0465C31.2494 47.0465 31.2249 47.0431 31.2038 47.0393C31.0744 47.022 30.9447 47.0009 30.8119 46.9764C30.6999 46.9587 30.5879 46.9342 30.4722 46.9063C29.8737 46.77 29.2579 46.5636 28.6349 46.2878C28.1028 46.0535 27.5639 45.7702 27.0284 45.4417C26.7592 45.2809 26.493 45.1061 26.2233 44.9173C26.0902 44.8228 25.9575 44.7283 25.8244 44.6303C25.4077 44.326 24.9947 43.9941 24.589 43.6374C24.477 43.536 24.365 43.4347 24.253 43.3299C24.141 43.2286 24.029 43.1235 23.9204 43.0222C23.6473 42.76 23.3815 42.4876 23.1224 42.2043C23.021 42.0959 22.9195 41.9843 22.8177 41.8687C22.5379 41.5542 22.2649 41.2291 22.0058 40.8897C21.9044 40.7676 21.8097 40.6418 21.7154 40.5156C21.3617 40.047 21.0261 39.5577 20.7108 39.0503C20.6267 38.9143 20.5427 38.7745 20.4623 38.6378C20.3643 38.4736 20.27 38.3056 20.1753 38.1379C19.8254 37.5085 19.5033 36.8549 19.2235 36.1799C19.1813 36.0819 19.1394 35.984 19.1044 35.8864C19.0485 35.7606 18.9995 35.631 18.9539 35.5052C18.8838 35.3199 18.8174 35.1345 18.7544 34.9492C18.6914 34.7639 18.6318 34.5748 18.5723 34.3864C18.5164 34.2045 18.464 34.0229 18.415 33.8375C18.3588 33.6417 18.3064 33.4424 18.2608 33.2397C18.2574 33.2186 18.2502 33.1975 18.2468 33.1765C18.1804 32.8969 18.1209 32.6137 18.0684 32.327C17.9983 31.9495 17.9425 31.5649 17.9006 31.1766C17.8829 31.0545 17.8724 30.9317 17.8621 30.8096C17.8482 30.6801 17.8376 30.5543 17.8305 30.425C17.8131 30.1907 17.8026 29.9527 17.7954 29.715C17.792 29.5613 17.7883 29.4076 17.7883 29.2539L20.0633 33.7223L23.9728 35.4249L28.5958 35.8405H28.5992L32.0255 36.1516H32.0467L35.2524 36.4417C35.2524 36.4417 35.2524 36.4383 35.2558 36.4417L42.4065 37.0854L46.2887 29.2535Z" fill="#543E36"/>
<path d="M32.0541 31.4985L32.0507 34.9423V34.9457L32.0473 36.1522V37.0996L32.0439 40.2462V40.2499L32.0405 40.2462H32.0371L32.0265 40.239L18.2604 33.2396C18.257 33.2185 18.2499 33.1974 18.2465 33.1764C18.1801 32.8968 18.1205 32.6136 18.0681 32.3269C17.9979 31.9494 17.9421 31.5648 17.9002 31.1765C17.8825 31.0544 17.872 30.9316 17.8618 30.8095C17.8478 30.68 17.8373 30.5542 17.8301 30.4249C17.8128 30.1906 17.8022 29.9526 17.7951 29.7149C17.7916 29.5612 17.7879 29.4075 17.7879 29.2538V25.0758C17.7879 25.1353 17.7913 25.1948 17.7913 25.254C17.8192 26.2643 17.9802 27.376 18.2917 28.5124C18.5334 29.3864 18.834 30.194 19.1843 30.9143V30.9177C20.1014 32.8234 21.33 34.1166 22.4602 34.3264C22.5304 34.337 22.6036 34.3441 22.6737 34.3509C23.1111 34.3999 23.5697 34.4278 24.0422 34.4278C25.8274 34.4278 27.4128 32.9944 28.4102 32.4139C28.4174 32.4105 28.4242 32.4068 28.4313 32.4037C28.4837 32.3721 28.5362 32.3405 28.5818 32.3092C28.5957 32.299 28.6097 32.2919 28.624 32.2851C29.4638 31.8059 30.6751 31.5016 32.0259 31.4985H32.0541V31.4985Z" fill="#543E36"/>
<path d="M46.2914 25.074L46.2879 29.2519C46.2879 30.3007 46.1899 31.3287 46.0081 32.3251C45.9346 32.7236 45.8505 33.1188 45.7525 33.5102L42.5218 38.1707L32.0425 40.244H32.0391L32.0357 40.2477V40.244L32.0251 31.495H32.0534C33.4042 31.4987 34.6188 31.8027 35.4587 32.2815C35.473 32.2887 35.4832 32.2955 35.4971 32.306C35.5462 32.3373 35.5986 32.3689 35.6514 32.4002C35.6548 32.4036 35.6619 32.4073 35.6687 32.4107C36.6696 32.9909 38.2515 34.4256 40.0367 34.4256C40.5092 34.4256 40.9678 34.3977 41.4052 34.3487C41.4788 34.3416 41.5485 34.3348 41.6221 34.3243C42.7492 34.1144 43.9812 32.8209 44.8946 30.9155V30.9121C45.2445 30.1919 45.5455 29.3842 45.7872 28.5103C46.1021 27.3561 46.2668 26.2305 46.2876 25.2063C46.2914 25.1614 46.2914 25.1192 46.2914 25.074Z" fill="#543E36"/>
<path d="M32.0368 37.099C33.9648 37.099 35.5278 36.6163 35.5278 36.0207C35.5278 35.4252 33.9648 34.9424 32.0368 34.9424C30.1087 34.9424 28.5457 35.4252 28.5457 36.0207C28.5457 36.6163 30.1087 37.099 32.0368 37.099Z" fill="#ECC19C"/>
<path d="M32.0395 4.38818H32.0259C24.1613 4.39532 17.7879 10.7653 17.7879 18.6214V24.8975C17.7879 24.8975 18.3792 21.1528 19.9721 19.3348C21.7011 17.3594 21.2636 14.356 25.1418 14.356C27.6442 14.356 27.7842 15.2789 32.0228 15.2789H32.0262H32.0398H32.0432C36.2819 15.2789 36.4218 14.356 38.9242 14.356C42.8024 14.356 42.3646 17.3591 44.0939 19.3348C45.6865 21.1528 46.2778 24.8975 46.2778 24.8975V18.6214C46.2774 10.7653 39.904 4.39498 32.0395 4.38818Z" fill="#543E36"/>
<path d="M41.4434 52.9458L41.0584 53.3375C38.6574 55.7812 35.4512 57.1275 32.0317 57.1275C28.5774 57.1204 25.3781 55.771 22.9876 53.3307L22.6199 52.9533C22.8021 52.8448 22.9876 52.7397 23.1731 52.6384C23.1803 52.6312 23.1871 52.635 23.1871 52.635V52.6312C23.3376 52.5472 23.4846 52.4636 23.6317 52.3758C24.0691 52.1103 24.4892 51.8164 24.881 51.4948C24.8844 51.4985 24.8844 51.4985 24.8882 51.5019C26.7013 53.3549 29.2249 54.5053 32.0249 54.5124H32.0531C34.8531 54.5124 37.3869 53.3586 39.2072 51.5056L39.2106 51.5019C39.4591 51.7083 39.7181 51.9008 39.984 52.079C40.0119 52.0997 40.0364 52.1171 40.0644 52.1347C40.1903 52.2187 40.32 52.299 40.4494 52.3796C40.5927 52.467 40.7401 52.551 40.8868 52.6312C40.9113 52.6384 40.929 52.6523 40.9498 52.6629C41.1146 52.754 41.2824 52.8482 41.4434 52.9458Z" fill="#C34628"/>
</g>
</svg>
