<svg width="64" height="65" viewBox="0 0 64 65" fill="none" xmlns="http://www.w3.org/2000/svg">
<mask id="mask0" mask-type="alpha" maskUnits="userSpaceOnUse" x="0" y="0" width="64" height="65">
<ellipse cx="32" cy="32.8493" rx="32" ry="31.9656" fill="#C4C4C4"/>
</mask>
<g mask="url(#mask0)">
<path d="M32.0252 64.8652C49.7122 64.8652 64.0504 50.5425 64.0504 32.8745C64.0504 15.2065 49.7122 0.883789 32.0252 0.883789C14.3382 0.883789 0 15.2065 0 32.8745C0 50.5425 14.3382 64.8652 32.0252 64.8652Z" fill="#B7DC78"/>
<path d="M19.8863 51.6734C19.8863 53.0265 19.3508 54.1905 18.5842 54.6802C18.3357 54.8414 18.0627 54.9284 17.7757 54.9284C17.4887 54.9284 17.2157 54.841 16.9672 54.6802C16.2005 54.1908 15.665 53.0268 15.665 51.6734C15.665 50.9708 15.8084 50.3169 16.0606 49.7854C16.4385 48.9566 17.0652 48.4183 17.7757 48.4183C18.4861 48.4183 19.1125 48.9566 19.4907 49.7854C19.743 50.3165 19.8863 50.9705 19.8863 51.6734Z" fill="#141720"/>
<path d="M19.8863 47.8936C19.8863 48.5999 19.743 49.2538 19.4907 49.7853C19.1091 50.6107 18.4827 51.1456 17.7757 51.1456C17.0686 51.1456 16.4422 50.6107 16.0606 49.7853C15.8087 49.2538 15.665 48.6002 15.665 47.8936C15.665 47.1876 15.8084 46.5337 16.0606 46.0022C16.4422 45.1769 17.0686 44.6385 17.7757 44.6385C18.4827 44.6385 19.1091 45.1769 19.4907 46.0022C19.743 46.5337 19.8863 47.1876 19.8863 47.8936Z" fill="#141720"/>
<path d="M19.8863 44.1107C19.8863 44.817 19.743 45.4706 19.4907 46.0021C19.1091 46.8271 18.4827 47.3658 17.7757 47.3658C17.0686 47.3658 16.4422 46.8271 16.0606 46.0021C15.8087 45.4706 15.665 44.817 15.665 44.1107C15.665 43.4082 15.8084 42.7542 16.0606 42.2227C16.4385 41.394 17.0652 40.8553 17.7757 40.8553C18.4861 40.8553 19.1125 41.394 19.4907 42.2227C19.743 42.7542 19.8863 43.4082 19.8863 44.1107Z" fill="#141720"/>
<path d="M19.8863 40.3313C19.8863 41.0376 19.743 41.6912 19.4907 42.2231C19.1091 43.048 18.4827 43.5867 17.7757 43.5867C17.0686 43.5867 16.4422 43.048 16.0606 42.2231C15.8087 41.6915 15.665 41.038 15.665 40.3313C15.665 39.6288 15.8084 38.9748 16.0606 38.4433C16.4385 37.6146 17.0652 37.0759 17.7757 37.0759C18.4861 37.0759 19.1125 37.6146 19.4907 38.4433C19.743 38.9748 19.8863 39.6288 19.8863 40.3313Z" fill="#141720"/>
<path d="M19.8863 36.5485C19.8863 36.9192 19.8478 37.2755 19.7709 37.6078C19.7045 37.9084 19.6099 38.1917 19.4907 38.4433C19.1091 39.2683 18.4827 39.8032 17.7757 39.8032C17.0686 39.8032 16.4422 39.2683 16.0606 38.4433C15.8087 37.9118 15.665 37.2582 15.665 36.5485C15.665 35.8459 15.8084 35.192 16.0606 34.6601C16.4385 33.8352 17.0652 33.2965 17.7757 33.2965C17.933 33.2965 18.0834 33.3247 18.2305 33.3737C18.752 33.5485 19.1963 34.0171 19.4904 34.6601C19.743 35.192 19.8863 35.8459 19.8863 36.5485Z" fill="#141720"/>
<path d="M19.8863 32.7692C19.8863 33.4751 19.743 34.1291 19.4908 34.6606C19.3297 35.0139 19.1197 35.3145 18.8783 35.542C18.5563 35.8494 18.1784 36.0242 17.776 36.0242C17.069 36.0242 16.4426 35.4859 16.061 34.6606C15.8091 34.1291 15.6654 33.4755 15.6654 32.7692C15.6654 32.0666 15.8087 31.4127 16.061 30.8812C16.4389 30.0521 17.0656 29.5138 17.776 29.5138C18.4865 29.5138 19.1129 30.0521 19.4911 30.8812C19.743 31.4123 19.8863 32.0663 19.8863 32.7692Z" fill="#141720"/>
<path d="M19.8863 28.9894C19.8863 29.0278 19.8863 29.0666 19.8829 29.1013C19.869 29.7654 19.7291 30.3775 19.4911 30.8808C19.1517 31.6147 18.6196 32.1217 18.0034 32.223C17.9299 32.237 17.853 32.2444 17.776 32.2444C17.069 32.2444 16.4426 31.7058 16.061 30.8808C15.8091 30.3493 15.6654 29.6957 15.6654 28.9891C15.6654 28.2828 15.8087 27.6288 16.061 27.0973C16.2043 26.7862 16.383 26.5134 16.5897 26.2968C16.9291 25.9401 17.3386 25.734 17.776 25.734C18.4831 25.734 19.1095 26.2727 19.4911 27.0976C19.743 27.6292 19.8863 28.2831 19.8863 28.9894Z" fill="#141720"/>
<path d="M19.8863 25.2062C19.8863 25.9125 19.743 26.5665 19.4908 27.098C19.1514 27.8359 18.6121 28.3463 17.9929 28.4439C17.9895 28.4405 17.9895 28.4439 17.9895 28.4439C17.9197 28.4545 17.8496 28.4616 17.776 28.4616C17.069 28.4616 16.4426 27.9233 16.061 27.098C15.8091 26.5665 15.6654 25.9129 15.6654 25.2062C15.6654 24.7975 15.7144 24.4023 15.8053 24.0422C16.1097 22.8217 16.8763 21.9546 17.776 21.9546C18.9413 21.9549 19.8863 23.4094 19.8863 25.2062Z" fill="#141720"/>
<path d="M19.841 58.8198H15.7106L16.9675 54.6799L17.776 52.0125L18.5842 54.6799L18.9763 55.9667L19.841 58.8198Z" fill="#141720"/>
<path d="M46.2771 54.9274C47.4424 54.9274 48.3871 53.4704 48.3871 51.6731C48.3871 49.8757 47.4424 48.4187 46.2771 48.4187C45.1118 48.4187 44.1672 49.8757 44.1672 51.6731C44.1672 53.4704 45.1118 54.9274 46.2771 54.9274Z" fill="#141720"/>
<path d="M46.2771 51.1463C47.4424 51.1463 48.3871 49.6893 48.3871 47.8919C48.3871 46.0946 47.4424 44.6376 46.2771 44.6376C45.1118 44.6376 44.1672 46.0946 44.1672 47.8919C44.1672 49.6893 45.1118 51.1463 46.2771 51.1463Z" fill="#141720"/>
<path d="M46.2771 47.3655C47.4424 47.3655 48.3871 45.9086 48.3871 44.1114C48.3871 42.3143 47.4424 40.8574 46.2771 40.8574C45.1118 40.8574 44.1672 42.3143 44.1672 44.1114C44.1672 45.9086 45.1118 47.3655 46.2771 47.3655Z" fill="#141720"/>
<path d="M46.2771 43.5851C47.4424 43.5851 48.3871 42.1281 48.3871 40.3308C48.3871 38.5334 47.4424 37.0764 46.2771 37.0764C45.1118 37.0764 44.1672 38.5334 44.1672 40.3308C44.1672 42.1281 45.1118 43.5851 46.2771 43.5851Z" fill="#141720"/>
<path d="M46.2771 39.8043C47.4424 39.8043 48.3871 38.3472 48.3871 36.5499C48.3871 34.7526 47.4424 33.2955 46.2771 33.2955C45.1118 33.2955 44.1672 34.7526 44.1672 36.5499C44.1672 38.3472 45.1118 39.8043 46.2771 39.8043Z" fill="#141720"/>
<path d="M46.2771 36.0236C47.4424 36.0236 48.3871 34.5667 48.3871 32.7695C48.3871 30.9724 47.4424 29.5155 46.2771 29.5155C45.1118 29.5155 44.1672 30.9724 44.1672 32.7695C44.1672 34.5667 45.1118 36.0236 46.2771 36.0236Z" fill="#141720"/>
<path d="M46.2771 32.2429C47.4424 32.2429 48.3871 30.7858 48.3871 28.9885C48.3871 27.1912 47.4424 25.7341 46.2771 25.7341C45.1118 25.7341 44.1672 27.1912 44.1672 28.9885C44.1672 30.7858 45.1118 32.2429 46.2771 32.2429Z" fill="#141720"/>
<path d="M46.2771 28.462C47.4424 28.462 48.3871 27.0049 48.3871 25.2076C48.3871 23.4103 47.4424 21.9532 46.2771 21.9532C45.1118 21.9532 44.1672 23.4103 44.1672 25.2076C44.1672 27.0049 45.1118 28.462 46.2771 28.462Z" fill="#141720"/>
<path d="M46.2771 52.0107L44.2125 58.8201H46.2305H46.3241H48.3422L46.2771 52.0107Z" fill="#141720"/>
<path d="M50.592 69.1511V69.1548H13.4604V69.1511C13.4604 67.057 13.807 65.0394 14.4511 63.1623C14.5665 62.8229 14.6924 62.4876 14.829 62.155V62.1516C14.9621 61.8194 15.1091 61.4943 15.263 61.1726C15.6514 60.3547 16.1032 59.5679 16.607 58.8197C16.894 58.3929 17.2021 57.9737 17.5241 57.5714C17.7481 57.2949 17.9755 57.0259 18.2101 56.7675C18.3255 56.6345 18.448 56.5053 18.5706 56.3757C18.6931 56.2499 18.8157 56.1241 18.9416 55.9986C18.9522 55.988 18.9662 55.9741 18.9767 55.967C19.5929 55.3515 20.254 54.7887 20.9471 54.2714C21.3008 54.0092 21.6576 53.7644 22.0286 53.5264C22.0742 53.4947 22.1229 53.4668 22.1719 53.439C22.494 53.2329 22.8232 53.0404 23.1588 52.8585C23.1622 52.8551 23.166 52.8551 23.1694 52.8551C23.1728 52.8551 23.1728 52.8551 23.1728 52.8551L23.1762 52.8513C23.2987 52.7884 23.4179 52.7184 23.5367 52.6415C23.5646 52.6276 23.5891 52.6136 23.6174 52.5963C23.7154 52.5368 23.8135 52.4739 23.9112 52.411C23.9428 52.3895 23.9741 52.3688 24.0055 52.3515C24.0896 52.2953 24.1736 52.2396 24.2577 52.1763C24.3626 52.1066 24.4678 52.0294 24.5692 51.9529C24.5692 51.9492 24.5692 51.9492 24.5726 51.9529C24.6741 51.8791 24.7755 51.8026 24.8736 51.722L24.877 51.7183C25.4615 51.2534 26.0041 50.7324 26.4906 50.1625C26.9284 49.6521 27.3236 49.1032 27.6667 48.5193C28.0484 47.8831 28.3704 47.2084 28.6223 46.5018C28.7483 46.145 28.8603 45.7815 28.9512 45.4074C29.0213 45.1453 29.0771 44.8793 29.1261 44.61C29.2453 43.9387 29.3083 43.2467 29.3083 42.5404L32.0136 42.5543H32.0276L32.4998 42.5581L34.7959 42.5683C34.7959 43.2607 34.8555 43.9387 34.9709 44.5998C35.0165 44.8725 35.0761 45.1419 35.1462 45.4074C35.2337 45.7744 35.342 46.1348 35.4649 46.4841C35.7168 47.1975 36.0354 47.8793 36.4167 48.519C36.7282 49.0505 37.0819 49.5504 37.4737 50.0224C37.9847 50.6484 38.5621 51.2146 39.1959 51.7217C39.2872 51.7982 39.3777 51.8716 39.4724 51.9383C39.5006 51.9628 39.5323 51.9838 39.5636 52.0046C39.566 52.0063 39.5687 52.009 39.5711 52.0107C39.6221 52.0488 39.6736 52.0896 39.7246 52.1233C39.8084 52.1794 39.8887 52.2389 39.9728 52.2947C40.0007 52.3154 40.0252 52.3331 40.0531 52.3508C40.1164 52.3926 40.1791 52.4344 40.2424 52.4766C40.3088 52.5184 40.3718 52.5569 40.4381 52.5956C40.5117 52.6374 40.5818 52.683 40.6553 52.7248C40.7251 52.7704 40.799 52.8122 40.8725 52.8507C40.8967 52.8578 40.9144 52.8717 40.9352 52.8823L41.0509 52.9452C41.0751 52.9595 41.0999 52.9734 41.1207 52.9874C41.215 53.0397 41.3062 53.0924 41.3975 53.1448C41.5479 53.2322 41.7018 53.323 41.8489 53.4175C41.9925 53.5049 42.1358 53.5957 42.2758 53.6971C42.5665 53.8824 42.8501 54.0854 43.1265 54.2949C43.1265 54.2986 43.1299 54.2986 43.1299 54.2986H43.1336C43.487 54.5605 43.8301 54.8407 44.1661 55.127C44.481 55.3963 44.7823 55.6759 45.0761 55.9697C45.0972 55.9874 45.1146 56.0051 45.1357 56.0258C45.9932 56.8787 46.7667 57.8121 47.4421 58.8194C49.4335 61.7704 50.592 65.3227 50.592 69.1511Z" fill="#DFB28B"/>
<path d="M50.592 69.151H13.4604C13.4604 67.0569 13.807 65.0394 14.4511 63.1622C14.5665 62.8229 14.6924 62.4876 14.829 62.155V62.1516C14.9621 61.8193 15.1091 61.4942 15.263 61.1725C15.6514 60.3547 16.1032 59.5678 16.607 58.8197C16.894 58.3929 17.2021 57.9736 17.5241 57.5713C17.7481 57.2949 17.9755 57.0259 18.2101 56.7674C18.3255 56.6345 18.448 56.5052 18.5706 56.3757C18.6931 56.2499 18.8157 56.124 18.9416 55.9986C18.9522 55.988 18.9662 55.9741 18.9767 55.9669C19.5929 55.3514 20.254 54.7886 20.9471 54.2714C21.3008 54.0092 21.6576 53.7644 22.0286 53.5263C22.0742 53.4947 22.1229 53.4668 22.1719 53.4389C22.494 53.2329 22.8232 53.0404 23.1588 52.8584C23.1588 52.855 23.1622 52.855 23.1622 52.855C23.1656 52.8513 23.1656 52.8513 23.1694 52.855C23.1728 52.855 23.1728 52.855 23.1728 52.855V52.8513H23.1762C23.2987 52.7816 23.4179 52.7115 23.5367 52.6415C23.5646 52.6275 23.5891 52.6136 23.6174 52.5963C23.7154 52.5368 23.8135 52.4738 23.9112 52.4109C24.0055 52.3477 24.1001 52.2814 24.1947 52.2188C24.2332 52.1906 24.272 52.1627 24.3105 52.1348C24.398 52.0753 24.4855 52.0124 24.5696 51.9495C24.5767 51.9423 24.5869 51.9355 24.5941 51.9318C24.685 51.8621 24.7762 51.7886 24.8671 51.7148L24.8708 51.7114C24.8742 51.7148 24.8742 51.7148 24.8776 51.7182C25.0775 51.9212 25.2804 52.1168 25.4972 52.3021C25.6024 52.3932 25.7107 52.4803 25.8193 52.5677C25.8227 52.5745 25.8227 52.5745 25.8264 52.5714C25.9279 52.6517 26.0259 52.7289 26.1273 52.8054C26.1519 52.8231 26.1726 52.8408 26.1975 52.8547C26.3023 52.9282 26.4075 53.0016 26.5124 53.0713C26.7503 53.2288 26.9954 53.3757 27.2436 53.512C27.3699 53.5821 27.4959 53.6484 27.6252 53.7113C27.7546 53.7776 27.8877 53.8371 28.0242 53.8932C28.0416 53.9072 28.0593 53.914 28.0766 53.9174C28.3776 54.047 28.6856 54.1622 29.0005 54.2639C29.1197 54.302 29.2385 54.3374 29.361 54.3687C29.4693 54.3969 29.5779 54.4248 29.6865 54.4526C29.711 54.4632 29.7355 54.4666 29.7634 54.4703C30.1168 54.5506 30.4807 54.6135 30.8521 54.6591C30.9781 54.673 31.104 54.6873 31.2337 54.6975C31.4928 54.7186 31.7515 54.7291 32.0143 54.7291H32.0422C32.1192 54.7291 32.1961 54.7291 32.273 54.7254C32.3115 54.7291 32.3503 54.7291 32.3888 54.722C32.4269 54.722 32.4623 54.7182 32.5004 54.7152C32.6649 54.708 32.8262 54.6975 32.9873 54.6835C33.1272 54.6696 33.2671 54.6519 33.4039 54.6342C33.4424 54.6342 33.4775 54.6308 33.5122 54.6203C33.6204 54.6063 33.7256 54.5856 33.8308 54.5683C33.873 54.5645 33.9149 54.5577 33.9568 54.5438C34.0341 54.5298 34.1107 54.5122 34.1842 54.4982C34.2615 54.4843 34.3347 54.4666 34.4082 54.4458C34.5624 54.4074 34.7163 54.3686 34.8667 54.3234C35.0172 54.2782 35.168 54.2326 35.3147 54.1803C35.4724 54.1313 35.6225 54.0721 35.7733 54.0089C35.8468 53.981 35.9204 53.9531 35.9905 53.9215C36.351 53.7678 36.6976 53.5926 37.0336 53.3934C37.1527 53.327 37.2681 53.257 37.3835 53.1873C37.4604 53.138 37.534 53.0893 37.6075 53.037C37.6705 52.9952 37.7335 52.9533 37.793 52.9112C37.919 52.8238 38.0416 52.733 38.1641 52.6384C38.2863 52.5442 38.4055 52.4463 38.5212 52.348C38.7554 52.1525 38.9798 51.9427 39.1932 51.7257L39.2004 51.7186C39.3195 51.8165 39.4421 51.9107 39.5643 52.0052C39.5667 52.0069 39.5694 52.0097 39.5718 52.0114C39.5867 52.0226 39.6017 52.0331 39.6167 52.0443C39.6235 52.0488 39.6303 52.0518 39.6378 52.0576C39.7464 52.1379 39.8581 52.2188 39.9738 52.2953C40.0017 52.3161 40.0262 52.3337 40.0541 52.3514C40.1801 52.4351 40.3098 52.5157 40.4392 52.5963C40.5828 52.6837 40.7299 52.7677 40.8766 52.8479C40.9011 52.8547 40.9188 52.8686 40.9399 52.8792C40.9781 52.9006 41.0169 52.9248 41.0519 52.9455C41.0761 52.9598 41.101 52.9737 41.1217 52.9877C41.216 53.04 41.3073 53.0927 41.3985 53.1451C41.549 53.2325 41.7028 53.3233 41.8499 53.4178C41.9936 53.5052 42.1369 53.596 42.2768 53.6974C42.5675 53.8827 42.8511 54.0857 43.1275 54.2952H43.1347C43.488 54.5608 43.8349 54.8372 44.1672 55.1273C44.4821 55.3966 44.7833 55.6762 45.0771 55.97C45.0982 55.9877 45.1156 56.0054 45.1367 56.0261C45.9942 56.879 46.7677 57.8124 47.4431 58.8197C49.4336 61.7704 50.592 65.3226 50.592 69.151Z" fill="#9D78DC"/>
<path d="M32.0562 54.7325L32.0457 54.7502L32.0423 54.757C32.0351 54.7641 32.0317 54.7747 32.0249 54.7815C31.038 56.2951 29.4101 57.0854 27.7723 57.0854C26.4317 57.0854 25.0843 56.5573 24.0729 55.4735L22.1723 53.4389C22.4943 53.2328 22.8235 53.0404 23.1592 52.8584C23.1626 52.855 23.1663 52.855 23.1697 52.855C23.1732 52.855 23.1732 52.855 23.1732 52.855V52.8513H23.1766C23.2991 52.7816 23.4183 52.7115 23.5371 52.6415C23.565 52.6275 23.5895 52.6136 23.6177 52.5963C23.7158 52.5367 23.8138 52.4738 23.9115 52.4109C23.9432 52.3895 23.9745 52.3688 24.0058 52.3514C24.0692 52.3058 24.1321 52.2637 24.1948 52.2184C24.2159 52.2042 24.237 52.1902 24.2581 52.1763C24.3629 52.1028 24.4681 52.0294 24.5696 51.9529C24.5696 51.9491 24.5696 51.9491 24.573 51.9529C24.5801 51.9423 24.5869 51.9386 24.5941 51.9314C24.685 51.8617 24.7762 51.7883 24.8671 51.7145C24.8709 51.7182 24.8709 51.7182 24.8743 51.7216C25.0738 51.9243 25.28 52.1202 25.4972 52.3018C25.6024 52.396 25.7107 52.4871 25.8193 52.5673C25.8227 52.5741 25.8227 52.5741 25.8264 52.5711C25.9241 52.6551 26.0259 52.7319 26.1274 52.805C26.1519 52.8227 26.1726 52.8404 26.1975 52.8544C26.2989 52.9312 26.4038 53.0043 26.5124 53.071C26.7469 53.2322 26.9917 53.3787 27.2436 53.5117C27.3699 53.5817 27.4959 53.6481 27.6252 53.711C27.7583 53.7773 27.8911 53.8368 28.0242 53.8929C28.0416 53.9068 28.0593 53.9136 28.0766 53.917C28.3776 54.05 28.6857 54.1619 29.0006 54.2636C29.1197 54.3016 29.2385 54.337 29.3611 54.3683C29.4693 54.3999 29.5779 54.4278 29.6865 54.4523C29.711 54.4628 29.7355 54.4662 29.7635 54.47C30.1168 54.5574 30.4807 54.6199 30.8521 54.6587C30.9781 54.6764 31.104 54.6903 31.2337 54.6971C31.4891 54.7216 31.7481 54.7322 32.0106 54.7322H32.0562V54.7325Z" fill="#E7ECF2"/>
<path d="M41.9163 53.4658L40.0436 55.4725C39.0319 56.5566 37.6845 57.0843 36.3405 57.0843C34.6956 57.0843 33.0574 56.2869 32.0739 54.7556L32.0705 54.7485L32.0566 54.7308C34.8494 54.7274 37.3767 53.5739 39.1933 51.724L39.1967 51.7206C39.4452 51.927 39.7042 52.1191 39.9701 52.2973C39.998 52.3184 40.0225 52.3357 40.0505 52.3531C40.1764 52.4371 40.3061 52.5173 40.4355 52.5979C40.5791 52.6853 40.7262 52.7693 40.8729 52.8496C40.8974 52.8564 40.9151 52.8707 40.9362 52.8812C41.244 53.0526 41.5487 53.2308 41.8462 53.4195C41.8707 53.4341 41.8918 53.4481 41.9163 53.4658Z" fill="#E7ECF2"/>
<path d="M41.9435 12.4486C41.9435 14.8226 41.4676 17.0813 40.6029 19.1407C38.9474 23.0775 35.8744 26.2765 32.0245 28.0981C29.7774 29.1612 27.2677 29.7556 24.6182 29.7556C22.9767 29.7556 21.3876 29.5281 19.8826 29.1017C19.2351 28.9163 18.6053 28.6963 17.9925 28.444C17.9891 28.4406 17.9891 28.444 17.9891 28.444C17.9156 28.4127 17.8458 28.3811 17.7757 28.3498C17.7161 28.3257 17.6603 28.3008 17.6041 28.2763C17.2262 27.6438 16.8868 26.9828 16.5893 26.2975C16.2778 25.5739 16.015 24.8186 15.8053 24.0426C15.4308 22.6545 15.2313 21.1861 15.2313 19.6793C15.2313 10.4178 22.7493 2.90759 32.0245 2.90759C35.0346 2.90759 37.8591 3.69789 40.302 5.08567C40.4068 5.30603 40.5049 5.52979 40.6029 5.75729C40.9249 6.51936 41.1874 7.30626 41.3975 8.11696C41.7546 9.50134 41.9435 10.952 41.9435 12.4486Z" fill="#141720"/>
<path d="M48.8143 19.6793C48.8143 22.291 48.2159 24.7625 47.1517 26.9654C44.2537 25.0846 41.9541 22.361 40.6033 19.1407C39.7352 17.0813 39.2593 14.8229 39.2593 12.4486C39.2593 10.075 39.7352 7.81636 40.6033 5.75696C40.6591 5.624 40.7153 5.49478 40.7749 5.36182C45.5943 8.30911 48.8143 13.6198 48.8143 19.6793Z" fill="#141720"/>
<path d="M46.2768 18.8362V29.5137C46.2768 29.6535 46.2734 29.7902 46.27 29.9299C46.2666 30.0557 46.2628 30.1778 46.256 30.304C46.2523 30.4159 46.2455 30.5277 46.2349 30.6396C46.2312 30.7199 46.2244 30.8005 46.2172 30.8811C46.2138 30.93 46.2104 30.9753 46.2033 31.0242C46.1965 31.1116 46.1893 31.2028 46.1753 31.2898C46.1614 31.4578 46.1399 31.6224 46.1158 31.79C46.112 31.8319 46.1052 31.874 46.0981 31.9159C46.0879 31.9999 46.0736 32.0835 46.0596 32.1675V32.1781C46.0562 32.1954 46.0525 32.2093 46.0525 32.227C46.0317 32.3321 46.014 32.4368 45.9966 32.5416C45.965 32.7096 45.9333 32.8772 45.8986 33.0418C45.8948 33.0489 45.8948 33.0557 45.8918 33.0629C45.888 33.0874 45.8846 33.1122 45.8778 33.1363C45.8741 33.1435 45.8741 33.1503 45.8707 33.1574C45.8567 33.2309 45.839 33.3047 45.8213 33.3744C45.8179 33.3921 45.8145 33.406 45.8111 33.4237C45.8043 33.4618 45.7971 33.5005 45.7832 33.539C45.7726 33.6019 45.7549 33.6648 45.741 33.728C45.7307 33.7631 45.7236 33.8012 45.7093 33.8362C45.7025 33.8678 45.6919 33.8991 45.6851 33.9273C45.6116 34.214 45.5275 34.4935 45.44 34.773C45.3982 34.906 45.3559 35.0352 45.3103 35.1682C45.3069 35.1821 45.3001 35.1961 45.2964 35.21C45.2579 35.3219 45.216 35.4375 45.1772 35.5494C45.1738 35.5565 45.1738 35.5596 45.1704 35.5667C45.1565 35.6021 45.1425 35.6368 45.1285 35.6752C45.0863 35.7868 45.0445 35.899 44.9988 36.0105C44.9464 36.1469 44.8906 36.2798 44.8344 36.4128C44.7854 36.5318 44.733 36.6505 44.6805 36.7695C44.6734 36.7906 44.6632 36.808 44.6564 36.829C44.5968 36.9549 44.5406 37.0807 44.481 37.2031C44.4215 37.3327 44.3588 37.4622 44.2921 37.5914C44.2884 37.5986 44.2853 37.602 44.2816 37.6091C44.1593 37.857 44.0262 38.109 43.8928 38.3505L43.7039 38.6858C43.165 39.6124 42.5662 40.483 41.9153 41.2869C41.8278 41.4025 41.7369 41.5144 41.6422 41.6225C41.5125 41.78 41.3794 41.9337 41.2467 42.084C41.1347 42.2098 41.0193 42.339 40.9001 42.4614C40.8964 42.4686 40.893 42.4716 40.8862 42.4788C40.5502 42.8392 40.207 43.1813 39.857 43.5034C39.7873 43.5734 39.7137 43.6363 39.6402 43.7027C39.521 43.8108 39.4022 43.9159 39.2793 44.0175C39.185 44.1012 39.087 44.1815 38.9893 44.2624C38.7374 44.4685 38.4851 44.6677 38.2298 44.8531C38.1246 44.9333 38.0164 45.0105 37.9078 45.084C37.7328 45.2098 37.5544 45.3288 37.3757 45.4441C37.2776 45.5104 37.1762 45.5737 37.0747 45.6332C37.057 45.6434 37.0431 45.6543 37.0254 45.6611C36.686 45.8709 36.3394 46.063 36 46.231C35.9122 46.2766 35.8247 46.3184 35.7376 46.3606C35.6501 46.4024 35.5588 46.4442 35.4645 46.486C35.3488 46.5384 35.2334 46.5877 35.1176 46.6333C35.0724 46.6544 35.0268 46.6714 34.9815 46.6856C34.845 46.7414 34.705 46.7938 34.5685 46.8394C34.397 46.9019 34.2216 46.9546 34.0504 47.0036C33.9316 47.0383 33.809 47.0699 33.6899 47.0978C33.6827 47.1012 33.6759 47.1049 33.6654 47.1049C33.5462 47.1328 33.4274 47.1607 33.3086 47.1821C33.277 47.1889 33.2453 47.1961 33.214 47.1995C33.1159 47.2172 33.0182 47.2348 32.9202 47.245C32.7803 47.2658 32.6404 47.2835 32.5001 47.2906C32.4514 47.2978 32.4058 47.3012 32.3568 47.3012C32.2448 47.3083 32.1362 47.3114 32.0279 47.3114H32.014C31.9057 47.3114 31.7971 47.308 31.6885 47.3012C31.6463 47.3012 31.6045 47.2974 31.5626 47.2906C31.4645 47.2869 31.3631 47.2767 31.2579 47.2627C31.2368 47.2627 31.2123 47.259 31.1915 47.2559C31.0622 47.2382 30.9325 47.2175 30.7997 47.1927C30.6877 47.175 30.5757 47.1508 30.4603 47.123C29.8618 46.9866 29.246 46.7802 28.623 46.5041C28.0909 46.2701 27.552 45.9868 27.0165 45.658C26.9849 45.6406 26.957 45.6199 26.9253 45.6022C26.6873 45.4553 26.446 45.2979 26.2114 45.1336C26.0783 45.0394 25.9456 44.9449 25.8125 44.847C25.3958 44.5426 24.9828 44.2107 24.577 43.854C24.465 43.7526 24.353 43.651 24.241 43.5462C24.129 43.4449 24.017 43.3401 23.9088 43.2388C23.6497 42.9906 23.3978 42.7355 23.1561 42.4662C23.1384 42.4523 23.1248 42.4346 23.1105 42.4206C23.009 42.3125 22.9076 42.2006 22.8058 42.0853C22.526 41.7704 22.253 41.4453 21.9939 41.1063C21.8925 40.9839 21.7978 40.8581 21.7035 40.7319C21.3498 40.2633 21.0138 39.7739 20.6989 39.2669C20.6148 39.1309 20.5308 38.9905 20.4504 38.8544C20.3524 38.6902 20.2581 38.5225 20.1634 38.3542C20.0269 38.1094 19.8976 37.8615 19.7716 37.6098C19.5684 37.2147 19.3828 36.8093 19.2116 36.3965C19.1694 36.2989 19.1275 36.2009 19.0925 36.103C19.0366 35.9772 18.9873 35.848 18.942 35.7221C18.9209 35.6623 18.8967 35.6031 18.879 35.544C18.83 35.4178 18.7847 35.2923 18.7425 35.1661C18.6795 34.9812 18.6199 34.7921 18.5604 34.6037C18.5042 34.4218 18.4518 34.2398 18.4028 34.0548C18.3469 33.859 18.2945 33.6597 18.2489 33.4567C18.2455 33.4356 18.2383 33.4148 18.2349 33.3941C18.2349 33.387 18.2315 33.3836 18.2315 33.3764C18.1651 33.1037 18.109 32.8242 18.0565 32.5443C18.0354 32.4396 18.0181 32.3348 18.0041 32.226C17.9551 31.9533 17.9204 31.6737 17.8887 31.3942C17.8713 31.2718 17.8608 31.1494 17.8502 31.0269C17.8363 30.8977 17.8257 30.7719 17.8186 30.6423C17.8012 30.4084 17.7907 30.1703 17.7835 29.9326C17.7798 29.7929 17.7764 29.6562 17.7764 29.5164V18.8362C17.7764 11.2389 23.7369 5.02944 31.2446 4.62408C31.2586 4.62034 31.2691 4.62034 31.2831 4.62034C31.3811 4.61694 31.4792 4.6132 31.5772 4.6098C31.7243 4.6064 31.8679 4.60266 32.0147 4.60266H32.0286C32.1791 4.60266 32.3296 4.6064 32.48 4.6098H32.5117C32.6169 4.61354 32.7217 4.61694 32.8269 4.62408H32.8371C32.8865 4.62749 32.9352 4.63123 32.9842 4.63429C33.0894 4.64143 33.1942 4.64823 33.2957 4.65877C33.3481 4.66217 33.3975 4.66591 33.4499 4.67271C33.485 4.67611 33.5163 4.67985 33.5513 4.68292C34.1079 4.74277 34.6536 4.83322 35.1861 4.95224C36.1137 5.16206 37.006 5.46267 37.853 5.84388C38.6438 6.19686 39.3965 6.61989 40.1001 7.10584C40.4293 7.32959 40.7442 7.5673 41.0485 7.81928C41.1677 7.91722 41.2827 8.01515 41.3985 8.11309V8.11649C42.0739 8.70411 42.6935 9.35091 43.2429 10.0569C45.119 12.4451 46.2496 15.4448 46.2741 18.71C46.2768 18.7525 46.2768 18.7943 46.2768 18.8362Z" fill="#DFB28B"/>
<path d="M48.8143 19.6793C48.8143 21.1827 48.6148 22.6405 48.2404 24.0283C48.0375 24.8081 47.7716 25.5633 47.4564 26.2904C47.3621 26.5175 47.2603 26.745 47.1517 26.965C46.8542 26.7729 46.5604 26.5699 46.2768 26.3533C46.0668 26.203 45.8601 26.0421 45.6576 25.8779C45.15 25.4654 44.6669 25.0247 44.2084 24.5598C42.6856 23.0074 41.4574 21.1718 40.6033 19.1403C38.9478 23.0772 35.8748 26.2761 32.0249 28.0978C29.7777 29.1608 27.2681 29.7552 24.6186 29.7552C22.9771 29.7552 21.3879 29.5277 19.8829 29.1013C19.2354 28.916 18.6056 28.6959 17.9929 28.4436C17.9895 28.4402 17.9895 28.4436 17.9895 28.4436C17.9159 28.4123 17.8462 28.3807 17.776 28.3494C17.7165 28.3253 17.6606 28.3005 17.6045 28.276C17.2266 27.6435 16.8872 26.9824 16.5896 26.2972C16.2782 25.5735 16.0153 24.8183 15.8056 24.0422C15.4312 22.6541 15.2317 21.1857 15.2317 19.6789C15.2317 10.4174 22.7496 2.90723 32.0249 2.90723C35.0349 2.90723 37.8594 3.69752 40.3023 5.08531C40.4596 5.1727 40.6172 5.26724 40.7748 5.36177C45.5942 8.30907 48.8143 13.6198 48.8143 19.6793Z" fill="#141720"/>
</g>
</svg>
