<svg width="64" height="65" viewBox="0 0 64 65" fill="none" xmlns="http://www.w3.org/2000/svg">
<mask id="mask0" mask-type="alpha" maskUnits="userSpaceOnUse" x="0" y="0" width="64" height="65">
<ellipse cx="32" cy="32.9494" rx="32" ry="31.9656" fill="#C4C4C4"/>
</mask>
<g mask="url(#mask0)">
<path d="M32.1947 64.9653C49.7881 64.9653 64.0504 50.7183 64.0504 33.1438C64.0504 15.5693 49.7881 1.32239 32.1947 1.32239C14.6012 1.32239 0.338928 15.5693 0.338928 33.1438C0.338928 50.7183 14.6012 64.9653 32.1947 64.9653Z" fill="#7DDBD4"/>
<path d="M51.7932 23.878C51.7932 24.4277 51.7689 24.9702 51.7272 25.5091C51.6503 26.4237 51.5112 27.3174 51.3165 28.1905C51.0449 29.4041 50.6585 30.5728 50.1709 31.6857C49.7114 32.7465 49.1577 33.7582 48.5242 34.7077C48.0196 35.4661 47.4622 36.1859 46.8602 36.8638C46.7105 37.0309 46.5605 37.1943 46.4074 37.3543C45.9063 37.8863 45.3733 38.3836 44.8166 38.8497C44.6737 38.9715 44.5311 39.0899 44.3848 39.2045C43.692 39.7573 42.9575 40.2653 42.1915 40.7172C41.9548 40.86 41.711 40.9956 41.4672 41.1279C39.5035 42.1849 37.338 42.9153 35.0472 43.2457C34.1177 43.3848 33.1635 43.4544 32.196 43.4544C31.2421 43.4544 30.3055 43.3848 29.3898 43.2525C27.0781 42.922 24.8953 42.1883 22.9177 41.1279C22.594 40.9506 22.2737 40.7693 21.9638 40.5782C21.0201 40.0008 20.1325 39.3469 19.3039 38.6204C19.2132 38.5436 19.1194 38.4638 19.0323 38.3805C18.4127 37.8207 17.8279 37.219 17.2847 36.5827C17.1838 36.4643 17.0829 36.3462 16.9854 36.2245C16.1672 35.2195 15.4463 34.1344 14.8375 32.9799C14.7782 32.8686 14.7227 32.7573 14.6668 32.646C14.1934 31.7036 13.7928 30.7159 13.4725 29.6934C13.4098 29.4884 13.3506 29.283 13.295 29.0777C13.0025 28.0203 12.7969 26.9284 12.6892 25.8054C12.672 25.6177 12.6544 25.4299 12.6405 25.2385C12.6127 24.7896 12.5951 24.3343 12.5951 23.8783C12.5951 23.6037 12.6022 23.3324 12.6127 23.0611C12.6161 22.9254 12.6232 22.7935 12.6337 22.6579C12.6858 21.771 12.8006 20.8979 12.9713 20.0462C13.0096 19.8547 13.0512 19.6636 13.0932 19.4755C13.25 18.7973 13.4413 18.1296 13.6679 17.4828C13.7478 17.2464 13.8348 17.01 13.9255 16.7803C14.2005 16.0672 14.5208 15.3751 14.8761 14.7074C15.1581 14.1753 15.4646 13.6571 15.7951 13.1565C16.0074 12.8297 16.2302 12.5131 16.4635 12.2002C16.7175 11.8559 16.9857 11.522 17.2644 11.1987C17.7517 10.6246 18.2704 10.0824 18.817 9.57771C19.0049 9.40047 19.1929 9.22998 19.3879 9.06322C20.1224 8.42695 20.9022 7.84582 21.7275 7.32795C22.0058 7.1507 22.2879 6.98022 22.5767 6.82022C22.9946 6.58378 23.4226 6.36086 23.8615 6.15588C24.133 6.02734 24.408 5.90556 24.6867 5.79056C25.5082 5.44993 26.3541 5.16444 27.2281 4.9351C27.6666 4.82043 28.1122 4.72301 28.565 4.6398C29.2473 4.51126 29.9401 4.41722 30.6468 4.36141C31.0017 4.33367 31.3603 4.31608 31.7226 4.30932C31.8794 4.30593 32.0359 4.30255 32.196 4.30255C32.5719 4.30255 32.9444 4.31304 33.3135 4.33401C33.5502 4.34788 33.7869 4.36513 34.0202 4.3861C35.0056 4.47676 35.9663 4.64013 36.8995 4.8732C37.1156 4.92529 37.3279 4.9811 37.5402 5.0403C38.595 5.33932 39.6116 5.72189 40.5865 6.18429C40.8648 6.31655 41.1367 6.45219 41.4083 6.59832C41.9166 6.86588 42.4072 7.15814 42.8878 7.47137C42.9714 7.52718 43.0584 7.58266 43.1421 7.63847C43.8105 8.09039 44.4546 8.58424 45.0604 9.11667C45.464 9.46101 45.847 9.826 46.2161 10.2089C46.7941 10.7965 47.3339 11.4192 47.8283 12.0764C47.9292 12.205 48.0267 12.3339 48.1168 12.4658C48.6044 13.1406 49.0463 13.8428 49.4435 14.5769C49.5167 14.7091 49.5861 14.8448 49.6521 14.9767C50.3033 16.2462 50.8183 17.5921 51.1807 19.0006C51.3652 19.7171 51.5081 20.4474 51.609 21.1915C51.7309 22.0696 51.7932 22.9671 51.7932 23.878Z" fill="#141720"/>
<path d="M20.1952 37.111C20.1952 37.1283 20.1952 37.1459 20.1918 37.1631C20.1746 37.7926 19.8227 38.3352 19.3039 38.6203C19.2376 38.6586 19.1715 38.6934 19.0984 38.7178C18.9034 38.7979 18.6877 38.8395 18.4648 38.8395C17.5109 38.8395 16.7379 38.0642 16.7379 37.111C16.7379 36.9476 16.7622 36.7876 16.8039 36.6347C16.8459 36.4886 16.9085 36.3496 16.985 36.2244C17.2844 35.7238 17.8347 35.3862 18.4648 35.3862C18.6213 35.3862 18.7713 35.4072 18.9139 35.4454C19.1367 35.5009 19.3385 35.6017 19.5129 35.7373C19.6626 35.852 19.7912 35.9877 19.8992 36.1443C20.0872 36.4189 20.1952 36.7528 20.1952 37.111Z" fill="#141720"/>
<path d="M15.4569 18.4945C15.4569 18.8284 15.3593 19.1416 15.1921 19.4058C14.889 19.8962 14.3462 20.2196 13.7265 20.2196C13.4549 20.2196 13.2006 20.157 12.971 20.0458C12.8457 19.9866 12.7309 19.9101 12.6263 19.8266C12.2433 19.51 11.9995 19.0303 11.9995 18.4945C11.9995 17.7226 12.5044 17.0721 13.1972 16.8495C13.3645 16.7937 13.5419 16.766 13.7265 16.766C13.7925 16.766 13.8589 16.7697 13.9249 16.7802C14.6977 16.8637 15.314 17.4584 15.4325 18.2198C15.4498 18.3101 15.4569 18.4005 15.4569 18.4945Z" fill="#141720"/>
<path d="M25.1425 6.95883C25.1425 7.3343 25.0206 7.68575 24.8184 7.96718C24.5817 8.29766 24.2265 8.54087 23.8195 8.63829C23.6905 8.66975 23.5547 8.687 23.4155 8.687C22.5869 8.687 21.894 8.10621 21.7271 7.32719C21.6993 7.2088 21.6851 7.08365 21.6851 6.95849C21.6851 6.8056 21.7061 6.65947 21.7444 6.52044C21.936 5.77966 22.6146 5.2337 23.4155 5.2337C23.6 5.2337 23.7741 5.26144 23.941 5.31387C24.2299 5.40757 24.4842 5.57129 24.6863 5.79014C24.9684 6.09627 25.1425 6.50658 25.1425 6.95883Z" fill="#141720"/>
<path d="M41.4165 9.42573C42.371 9.42573 43.1448 8.65276 43.1448 7.69926C43.1448 6.74575 42.371 5.97278 41.4165 5.97278C40.4619 5.97278 39.6881 6.74575 39.6881 7.69926C39.6881 8.65276 40.4619 9.42573 41.4165 9.42573Z" fill="#141720"/>
<path d="M15.1016 24.2156C15.1016 24.4348 15.0596 24.6469 14.9831 24.838C14.7325 25.4847 14.1057 25.9441 13.3712 25.9441C13.1274 25.9441 12.8975 25.8954 12.6889 25.8051C12.546 25.7425 12.4139 25.6589 12.292 25.5652C11.8986 25.2486 11.6446 24.7619 11.6446 24.2159C11.6446 23.628 11.9372 23.1098 12.3862 22.7969C12.4627 22.7448 12.5463 22.6961 12.6334 22.6579C12.8562 22.55 13.1068 22.4908 13.3716 22.4908C14.1027 22.4908 14.7295 22.9427 14.98 23.583C15.06 23.7772 15.1016 23.9927 15.1016 24.2156Z" fill="#141720"/>
<path d="M45.4271 39.5573C46.3817 39.5573 47.1555 38.7844 47.1555 37.8308C47.1555 36.8773 46.3817 36.1044 45.4271 36.1044C44.4726 36.1044 43.6988 36.8773 43.6988 37.8308C43.6988 38.7844 44.4726 39.5573 45.4271 39.5573Z" fill="#141720"/>
<path d="M47.2049 37.5486C48.1594 37.5486 48.9332 36.7757 48.9332 35.8222C48.9332 34.8687 48.1594 34.0957 47.2049 34.0957C46.2504 34.0957 45.4766 34.8687 45.4766 35.8222C45.4766 36.7757 46.2504 37.5486 47.2049 37.5486Z" fill="#141720"/>
<path d="M43.1431 41.0017C44.0977 41.0017 44.8715 40.2287 44.8715 39.2752C44.8715 38.3217 44.0977 37.5487 43.1431 37.5487C42.1886 37.5487 41.4148 38.3217 41.4148 39.2752C41.4148 40.2287 42.1886 41.0017 43.1431 41.0017Z" fill="#141720"/>
<path d="M34.0585 4.75036C34.0585 5.39373 33.707 5.95389 33.1845 6.24953C32.9305 6.39566 32.638 6.47887 32.3281 6.47887C32.2827 6.47887 32.2411 6.47887 32.1957 6.47176C31.8578 6.44741 31.5479 6.32564 31.294 6.13114C30.8727 5.81825 30.6011 5.3139 30.6011 4.75036C30.6011 4.61472 30.615 4.48618 30.6465 4.36102C30.7369 3.95748 30.9736 3.60975 31.294 3.3733C31.5479 3.17847 31.8578 3.05669 32.1957 3.03268C32.2411 3.02557 32.2827 3.02557 32.3281 3.02557C32.92 3.02557 33.4422 3.32121 33.752 3.77313C33.8773 3.9541 33.9715 4.1628 34.0202 4.38538C34.0446 4.50343 34.0585 4.6252 34.0585 4.75036Z" fill="#141720"/>
<path d="M48.9332 15.1312C49.8878 15.1312 50.6616 14.3582 50.6616 13.4047C50.6616 12.4512 49.8878 11.6782 48.9332 11.6782C47.9787 11.6782 47.2049 12.4512 47.2049 13.4047C47.2049 14.3582 47.9787 15.1312 48.9332 15.1312Z" fill="#141720"/>
<path d="M19.3039 34.0958C19.3039 34.3776 19.2585 34.6451 19.1715 34.8992C19.1089 35.094 19.0218 35.2746 18.9138 35.4451C18.5552 36.0188 17.9704 36.4396 17.2844 36.5823C17.1313 36.6168 16.9674 36.6344 16.8039 36.6344C16.79 36.6378 16.7727 36.6378 16.7588 36.6378C15.3522 36.6378 14.2103 35.5006 14.2103 34.0955C14.2103 33.6814 14.3112 33.2884 14.4856 32.9444C14.5378 32.8398 14.597 32.7394 14.6668 32.6453C15.1263 31.9844 15.8923 31.55 16.7592 31.55C16.8323 31.55 16.9054 31.5534 16.9782 31.5605C17.5038 31.6055 17.9846 31.8108 18.3707 32.1275C18.9419 32.5932 19.3039 33.3029 19.3039 34.0958Z" fill="#141720"/>
<path d="M24.1049 38.0709C24.1049 39.1906 23.381 40.1404 22.3746 40.4776C22.2422 40.523 22.1067 40.5575 21.9638 40.5784C21.8314 40.6028 21.6956 40.6133 21.5565 40.6133C20.3726 40.6133 19.3805 39.8099 19.0984 38.718C19.0672 38.6104 19.0425 38.4954 19.0323 38.3808C19.0185 38.28 19.0114 38.1754 19.0114 38.0713C19.0114 37.3687 19.2968 36.7358 19.7529 36.2768C19.8017 36.2281 19.8505 36.1828 19.8992 36.1445C20.3449 35.7549 20.9229 35.5255 21.5565 35.5255C22.9631 35.5252 24.1049 36.6658 24.1049 38.0709Z" fill="#141720"/>
<path d="M18.0019 15.6742C18.0019 17.0793 16.8635 18.2199 15.4568 18.2199H15.4324C14.7467 18.2128 14.1233 17.9348 13.6675 17.4825C13.4792 17.3015 13.3194 17.0861 13.1975 16.8496C13.013 16.4982 12.9083 16.0983 12.9083 15.6742C12.9083 14.6205 13.5524 13.7163 14.468 13.3337C14.7708 13.2015 15.1053 13.1321 15.4568 13.1321C15.5716 13.1321 15.683 13.1392 15.7944 13.1565C16.9224 13.3026 17.8136 14.1858 17.9704 15.3092C17.9914 15.4272 18.0019 15.549 18.0019 15.6742Z" fill="#141720"/>
<path d="M38.8693 9.02188C40.2759 9.02188 41.4161 7.88287 41.4161 6.47783C41.4161 5.07279 40.2759 3.93378 38.8693 3.93378C37.4628 3.93378 36.3225 5.07279 36.3225 6.47783C36.3225 7.88287 37.4628 9.02188 38.8693 9.02188Z" fill="#141720"/>
<path d="M28.9442 5.97107C28.9442 6.29783 28.8816 6.61106 28.7668 6.89959C28.3977 7.84537 27.4753 8.51682 26.3957 8.51682C25.8004 8.51682 25.2502 8.31149 24.8184 7.96714C24.2719 7.53924 23.9099 6.89249 23.8611 6.15542C23.854 6.09623 23.8506 6.03365 23.8506 5.97107C23.8506 5.74511 23.8818 5.52254 23.9411 5.31383C24.2265 4.2287 25.2153 3.42871 26.3954 3.42871C26.7889 3.42871 27.1614 3.51936 27.4922 3.67902C27.9378 3.88773 28.3103 4.22159 28.5646 4.639C28.8051 5.02496 28.9442 5.4806 28.9442 5.97107Z" fill="#141720"/>
<path d="M16.7382 27.2551C16.7382 27.8603 16.5259 28.4167 16.1707 28.8514C15.704 29.4284 14.9906 29.7972 14.1897 29.7972C13.9425 29.7972 13.6987 29.7623 13.4725 29.6926C13.2951 29.6439 13.121 29.5712 12.9609 29.4805C12.1776 29.0493 11.645 28.2148 11.645 27.2548C11.645 26.6047 11.8888 26.013 12.2924 25.5645C12.3933 25.4427 12.5118 25.3314 12.6405 25.2377C13.0689 24.9039 13.6083 24.709 14.1897 24.709C14.4681 24.709 14.7329 24.7544 14.9835 24.8376C16 25.1684 16.7382 26.1284 16.7382 27.2551Z" fill="#141720"/>
<path d="M45.7366 14.1103C47.1432 14.1103 48.2834 12.9713 48.2834 11.5663C48.2834 10.1612 47.1432 9.02222 45.7366 9.02222C44.3301 9.02222 43.1898 10.1612 43.1898 11.5663C43.1898 12.9713 44.3301 14.1103 45.7366 14.1103Z" fill="#141720"/>
<path d="M49.4767 19.6589C50.8834 19.6589 52.0238 18.5197 52.0238 17.1145C52.0238 15.7093 50.8834 14.5701 49.4767 14.5701C48.07 14.5701 46.9296 15.7093 46.9296 17.1145C46.9296 18.5197 48.07 19.6589 49.4767 19.6589Z" fill="#141720"/>
<path d="M23.8506 9.02088C23.8506 10.426 22.7088 11.5666 21.3022 11.5666C21.0966 11.5666 20.8982 11.5423 20.7069 11.4936C19.7668 11.271 19.0286 10.5234 18.8163 9.57731C18.7743 9.40007 18.7537 9.21199 18.7537 9.02088C18.7537 8.97589 18.7537 8.93056 18.7608 8.88523C18.8268 7.54302 19.9409 6.47852 21.3022 6.47852C21.4518 6.47852 21.6015 6.49238 21.7444 6.52012C22.0437 6.56883 22.3258 6.67335 22.5764 6.81914C23.2343 7.19833 23.7044 7.85895 23.8195 8.63797C23.8405 8.7638 23.8506 8.88895 23.8506 9.02088Z" fill="#141720"/>
<path d="M17.1418 30.7118C17.1418 31.0108 17.0829 31.2994 16.9782 31.5605C16.6406 32.3916 15.8222 32.9795 14.8686 32.9795H14.8375C14.7156 32.9761 14.6008 32.9656 14.4856 32.9447C13.4132 32.7637 12.5951 31.8318 12.5951 30.7118C12.5951 30.2562 12.7275 29.8354 12.9608 29.4805C13.0549 29.3344 13.1664 29.1991 13.295 29.077C13.7024 28.6806 14.2557 28.4407 14.8686 28.4407C15.3525 28.4407 15.8015 28.594 16.1706 28.851C16.7592 29.2617 17.1418 29.9399 17.1418 30.7118Z" fill="#141720"/>
<path d="M19.0113 13.403C19.0113 14.203 18.5969 14.9052 17.9704 15.3088C17.6152 15.5418 17.1906 15.6738 16.7378 15.6738C15.9685 15.6738 15.2895 15.2912 14.875 14.707C14.6174 14.3383 14.4643 13.8864 14.4643 13.403C14.4643 13.3787 14.4643 13.3577 14.4677 13.3333C14.4958 12.2969 15.2269 11.4377 16.1981 11.2016C16.3687 11.1563 16.5499 11.1353 16.7378 11.1353C16.919 11.1353 17.0964 11.1563 17.2637 11.1982C18.2454 11.431 18.9799 12.2972 19.008 13.3371C19.0113 13.3577 19.0113 13.382 19.0113 13.403Z" fill="#141720"/>
<path d="M35.3026 7.69936C36.5575 7.69936 37.5748 6.68317 37.5748 5.42964C37.5748 4.1761 36.5575 3.15991 35.3026 3.15991C34.0477 3.15991 33.0305 4.1761 33.0305 5.42964C33.0305 6.68317 34.0477 7.69936 35.3026 7.69936Z" fill="#141720"/>
<path d="M16.4839 21.4472C16.4839 21.8264 16.3935 22.1809 16.2299 22.4941C15.9688 22.9984 15.5232 23.3915 14.98 23.5826C14.74 23.6695 14.4789 23.7182 14.2107 23.7182C13.5876 23.7182 13.0235 23.4679 12.6127 23.061C12.5291 22.9778 12.4526 22.8905 12.3862 22.7968C12.1041 22.4214 11.9406 21.9552 11.9406 21.4475C11.9406 20.8112 12.2016 20.2372 12.6263 19.8269C12.7654 19.6879 12.9222 19.5695 13.0926 19.4754C13.4234 19.2877 13.803 19.1798 14.21 19.1798C14.5618 19.1798 14.8957 19.2596 15.1917 19.4058C15.512 19.5553 15.7907 19.7779 16.0064 20.0562C16.3064 20.4385 16.4839 20.9218 16.4839 21.4472Z" fill="#141720"/>
<path d="M50.9731 25.6389C52.2278 25.6389 53.245 24.6228 53.245 23.3695C53.245 22.1161 52.2278 21.1001 50.9731 21.1001C49.7184 21.1001 48.7013 22.1161 48.7013 23.3695C48.7013 24.6228 49.7184 25.6389 50.9731 25.6389Z" fill="#141720"/>
<path d="M49.4767 31.7926C50.7314 31.7926 51.7486 30.7765 51.7486 29.5232C51.7486 28.2698 50.7314 27.2538 49.4767 27.2538C48.222 27.2538 47.2049 28.2698 47.2049 29.5232C47.2049 30.7765 48.222 31.7926 49.4767 31.7926Z" fill="#141720"/>
<path d="M20.7384 11.1354C20.7384 11.2572 20.7279 11.3789 20.7069 11.4936C20.5677 12.3978 19.8888 13.1213 19.008 13.3368C18.8339 13.3821 18.6528 13.4028 18.4648 13.4028C17.598 13.4028 16.8425 12.9157 16.4629 12.1996C16.2993 11.9005 16.2052 11.563 16.1981 11.2014C16.1947 11.1804 16.1947 11.156 16.1947 11.1351C16.1947 9.87977 17.2113 8.86432 18.4648 8.86432C18.5657 8.86432 18.6633 8.87142 18.7608 8.88529C18.9799 8.91337 19.1925 8.97222 19.3876 9.06254C20.1847 9.41061 20.7384 10.2072 20.7384 11.1354Z" fill="#141720"/>
<path d="M44.0966 11.6583C45.3515 11.6583 46.3688 10.6421 46.3688 9.38856C46.3688 8.13503 45.3515 7.11884 44.0966 7.11884C42.8418 7.11884 41.8245 8.13503 41.8245 9.38856C41.8245 10.6421 42.8418 11.6583 44.0966 11.6583Z" fill="#141720"/>
<path d="M31.7643 4.75036C31.7643 5.26857 31.5902 5.74856 31.2943 6.13114C30.8798 6.67371 30.2289 7.02144 29.4945 7.02144C29.2402 7.02144 28.9933 6.97949 28.7668 6.89966C27.9209 6.61789 27.3012 5.85275 27.2281 4.93471C27.2243 4.87213 27.2209 4.81294 27.2209 4.75036C27.2209 4.36441 27.3185 3.99908 27.4925 3.67909C27.8721 2.96638 28.6276 2.48267 29.4945 2.48267C30.2289 2.48267 30.8801 2.8304 31.2943 3.37297C31.5032 3.64087 31.6529 3.96086 31.7226 4.30859C31.7504 4.45134 31.7643 4.59747 31.7643 4.75036Z" fill="#141720"/>
<path d="M50.6619 68.1711V68.1749H13.7264V68.1711C13.7264 63.0553 15.8083 58.4299 19.1786 55.0913C19.3039 54.9661 19.4292 54.8444 19.5582 54.7226C20.0733 54.2426 20.613 53.7904 21.1772 53.3699C21.3512 53.241 21.5287 53.1122 21.7065 52.9907C22.0722 52.7404 22.448 52.5006 22.831 52.278C23.0122 52.1701 23.1967 52.0656 23.3813 51.9648C23.3847 51.9577 23.3918 51.9577 23.3918 51.9577C23.5415 51.8778 23.6878 51.7909 23.834 51.7003C23.9454 51.6377 24.0531 51.5717 24.1578 51.4983C24.4781 51.293 24.7913 51.0704 25.0873 50.8343V50.8306C26.7689 49.4918 28.0709 47.7007 28.8091 45.6383C29.0841 44.8765 29.2791 44.0766 29.3905 43.2522C29.4566 42.7445 29.4914 42.2266 29.4914 41.7013L32.1967 41.7152L34.9504 41.729C34.9504 42.2439 34.9853 42.7482 35.0479 43.2451C35.1556 44.0661 35.3473 44.8657 35.6155 45.6238C36.3499 47.6895 37.6452 49.4877 39.3231 50.837C39.4483 50.9344 39.5736 51.0319 39.7027 51.1259C39.7027 51.1259 39.706 51.1259 39.7098 51.1296C39.8073 51.2061 39.9082 51.2757 40.0094 51.3417C40.0372 51.3657 40.0684 51.387 40.0999 51.4043C40.1276 51.4252 40.152 51.4425 40.1798 51.4601C40.1903 51.4672 40.2008 51.474 40.2113 51.4811C40.3261 51.5575 40.4446 51.6306 40.5628 51.7036C40.7057 51.7906 40.8516 51.8775 40.9979 51.9573C41.0223 51.9644 41.0433 51.9749 41.0609 51.9888C41.2244 52.0794 41.3883 52.1731 41.5482 52.2706C41.7605 52.392 41.9694 52.5209 42.1749 52.6531C42.5403 52.8896 42.8922 53.1331 43.2403 53.3973H43.2474C43.9504 53.9223 44.6154 54.4963 45.2351 55.1153C48.5902 58.4543 50.6619 63.0658 50.6619 68.1711Z" fill="#B08874"/>
<path d="M50.6619 68.171H13.7264C13.7264 63.0551 15.8083 58.4297 19.1786 55.0911C19.3039 54.966 19.4292 54.8442 19.5582 54.7224C20.0733 54.2424 20.613 53.7902 21.1772 53.3697C21.3512 53.2408 21.5287 53.112 21.7065 52.9905C22.0722 52.7402 22.4447 52.5004 22.8273 52.2741C23.0085 52.1665 23.193 52.062 23.3776 51.9612C23.3847 51.9541 23.3915 51.9575 23.3915 51.9575V51.9541C23.6874 51.7907 23.9796 51.6131 24.2617 51.4254C24.3941 51.3385 24.5228 51.2482 24.6515 51.1507C24.6654 51.144 24.6759 51.1331 24.6897 51.1264C24.7835 51.0567 24.8777 50.9836 24.9718 50.9075C25.0067 50.8794 25.0416 50.8517 25.0765 50.824H25.0798C25.0832 50.8277 25.0832 50.8277 25.0869 50.8307C25.3098 51.0604 25.5465 51.2759 25.7903 51.4846C25.7903 51.4883 25.7903 51.4883 25.7937 51.4883C26.41 52.0065 27.0889 52.4517 27.82 52.8099C29.1359 53.4567 30.6157 53.8216 32.1821 53.8254H32.2103C34.9954 53.8254 37.5128 52.6773 39.3227 50.8378L39.3264 50.8345L39.3298 50.8307C39.4588 50.9383 39.5909 51.0394 39.727 51.1402C39.8174 51.2099 39.9116 51.2759 40.0091 51.3422C40.0369 51.3632 40.068 51.3838 40.0995 51.4048C40.1273 51.4257 40.1517 51.443 40.1794 51.4606C40.1899 51.4677 40.2004 51.4744 40.2109 51.4816C40.3257 51.558 40.4442 51.6311 40.5624 51.7041C40.7053 51.7911 40.8513 51.8743 40.9976 51.9544C41.0219 51.9615 41.0395 51.9754 41.0605 51.9856C41.2241 52.0762 41.3914 52.1699 41.5512 52.2673C41.7639 52.3925 41.9725 52.5214 42.1746 52.6536C42.54 52.8863 42.8918 53.1336 43.2399 53.3941H43.247C43.95 53.9194 44.6151 54.4968 45.2348 55.1158C48.5902 58.4541 50.6619 63.0656 50.6619 68.171Z" fill="#EFC7A1"/>
<path d="M41.5505 52.2671L41.5471 52.2708L41.1675 52.6568C38.7792 55.0875 35.5938 56.4233 32.1957 56.427C32.1923 56.427 32.1923 56.427 32.1886 56.427C28.7522 56.4199 25.5702 55.0777 23.1923 52.65L22.8303 52.2779L22.827 52.2742C23.0081 52.1666 23.1927 52.0621 23.3772 51.9613C23.3843 51.9542 23.3911 51.9576 23.3911 51.9576V51.9542C23.5408 51.8706 23.6871 51.7871 23.8334 51.7002C23.941 51.6342 24.0491 51.5679 24.1571 51.4982C24.192 51.4742 24.2268 51.4495 24.2617 51.4252C24.3941 51.3382 24.5262 51.2479 24.6515 51.1505C24.6654 51.1437 24.6759 51.1329 24.6897 51.1261C24.7835 51.0531 24.8811 50.98 24.9718 50.9073C25.0067 50.8792 25.0416 50.8515 25.0764 50.8237C25.0798 50.8275 25.0798 50.8275 25.0832 50.8305H25.0866V50.8342C25.3094 51.0636 25.5427 51.279 25.7899 51.4844C25.7899 51.4881 25.7899 51.4881 25.7933 51.4881C26.4096 52.0063 27.0886 52.4548 27.8196 52.8097C29.1355 53.4564 30.6153 53.8214 32.1818 53.8251H32.2099C34.9951 53.8251 37.5124 52.6771 39.3224 50.8376L39.3261 50.8342L39.3295 50.8305C39.4514 50.9313 39.5733 51.0287 39.7023 51.1261C39.7023 51.1261 39.7057 51.1261 39.7094 51.1299C39.7131 51.1332 39.7199 51.1366 39.727 51.14C39.8174 51.2097 39.9116 51.2756 40.0091 51.3419C40.0369 51.3629 40.068 51.3836 40.0995 51.4045C40.1273 51.4255 40.1517 51.4427 40.1794 51.4603C40.1899 51.4674 40.2004 51.4742 40.2109 51.4813C40.3257 51.5578 40.4442 51.6308 40.5624 51.7039C40.7053 51.7908 40.8513 51.874 40.9975 51.9542C41.0219 51.9613 41.0395 51.9752 41.0605 51.9853C41.2237 52.076 41.3907 52.1697 41.5505 52.2671Z" fill="#543E36"/>
<path d="M46.3692 20.404V28.6948C46.3692 29.4738 46.3136 30.2423 46.209 30.997C45.9547 32.875 45.3943 34.6593 44.6215 36.3039C44.3953 36.7873 44.1515 37.2605 43.8904 37.7195C43.8312 37.8241 43.7719 37.9282 43.7127 38.0291C43.1834 38.9194 42.5952 39.7609 41.965 40.5366C41.8048 40.7385 41.6379 40.9367 41.4672 41.1278C39.6813 43.1764 37.6062 44.7378 35.6148 45.6243C34.4208 46.153 33.2509 46.4419 32.196 46.4419C31.148 46.4419 29.9923 46.1601 28.8084 45.6385C26.8065 44.755 24.7175 43.1865 22.9177 41.1278C22.7332 40.9154 22.552 40.6999 22.3746 40.4774C21.5636 39.469 20.822 38.3561 20.1918 37.1631C20.0384 36.8708 19.8925 36.5755 19.7533 36.2762C19.6696 36.0989 19.5897 35.918 19.5132 35.737C19.3913 35.4623 19.2799 35.1806 19.1719 34.8988C18.8376 34.0085 18.5661 33.08 18.371 32.1271C18.2945 31.755 18.2285 31.3792 18.1797 30.9966C18.0751 30.242 18.0195 29.4734 18.0195 28.6944V20.4037H46.3692V20.404Z" fill="#B08874"/>
<path d="M17.6724 31.068C18.7127 31.068 19.5559 30.2257 19.5559 29.1866V20.153H17.6724V31.068Z" fill="#141720"/>
<path d="M44.8338 20.153H46.7169V31.0683C45.677 31.0683 44.8338 30.2261 44.8338 29.1869V20.153Z" fill="#141720"/>
<path d="M28.6683 23.0035C29.9232 23.0035 30.9405 21.9873 30.9405 20.7338C30.9405 19.4802 29.9232 18.4641 28.6683 18.4641C27.4134 18.4641 26.3961 19.4802 26.3961 20.7338C26.3961 21.9873 27.4134 23.0035 28.6683 23.0035Z" fill="#141720"/>
<path d="M23.4145 22.4897C24.6694 22.4897 25.6867 21.4735 25.6867 20.22C25.6867 18.9664 24.6694 17.9503 23.4145 17.9503C22.1596 17.9503 21.1423 18.9664 21.1423 20.22C21.1423 21.4735 22.1596 22.4897 23.4145 22.4897Z" fill="#141720"/>
<path d="M18.0205 23.3698C19.2754 23.3698 20.2927 22.3536 20.2927 21.1001C20.2927 19.8466 19.2754 18.8304 18.0205 18.8304C16.7656 18.8304 15.7484 19.8466 15.7484 21.1001C15.7484 22.3536 16.7656 23.3698 18.0205 23.3698Z" fill="#141720"/>
<path d="M35.3026 22.7579C36.5575 22.7579 37.5748 21.7418 37.5748 20.4882C37.5748 19.2347 36.5575 18.2185 35.3026 18.2185C34.0477 18.2185 33.0305 19.2347 33.0305 20.4882C33.0305 21.7418 34.0477 22.7579 35.3026 22.7579Z" fill="#141720"/>
<path d="M42.1726 22.7579C43.4275 22.7579 44.4447 21.7418 44.4447 20.4882C44.4447 19.2347 43.4275 18.2185 42.1726 18.2185C40.9177 18.2185 39.9004 19.2347 39.9004 20.4882C39.9004 21.7418 40.9177 22.7579 42.1726 22.7579Z" fill="#141720"/>
<path d="M46.8866 24.908C48.1413 24.908 49.1584 23.8919 49.1584 22.6386C49.1584 21.3852 48.1413 20.3692 46.8866 20.3692C45.6319 20.3692 44.6147 21.3852 44.6147 22.6386C44.6147 23.8919 45.6319 24.908 46.8866 24.908Z" fill="#141720"/>
<path d="M32.1947 22.6312C33.1492 22.6312 33.923 21.8582 33.923 20.9047C33.923 19.9512 33.1492 19.1782 32.1947 19.1782C31.2402 19.1782 30.4664 19.9512 30.4664 20.9047C30.4664 21.8582 31.2402 22.6312 32.1947 22.6312Z" fill="#141720"/>
<path d="M20.4834 22.4603C21.4379 22.4603 22.2117 21.6873 22.2117 20.7338C22.2117 19.7803 21.4379 19.0073 20.4834 19.0073C19.5289 19.0073 18.7551 19.7803 18.7551 20.7338C18.7551 21.6873 19.5289 22.4603 20.4834 22.4603Z" fill="#141720"/>
<path d="M26.3961 22.4603C27.3507 22.4603 28.1245 21.6873 28.1245 20.7338C28.1245 19.7803 27.3507 19.0073 26.3961 19.0073C25.4416 19.0073 24.6678 19.7803 24.6678 20.7338C24.6678 21.6873 25.4416 22.4603 26.3961 22.4603Z" fill="#141720"/>
<path d="M38.8693 23.0032C39.8239 23.0032 40.5977 22.2302 40.5977 21.2767C40.5977 20.3232 39.8239 19.5502 38.8693 19.5502C37.9148 19.5502 37.141 20.3232 37.141 21.2767C37.141 22.2302 37.9148 23.0032 38.8693 23.0032Z" fill="#141720"/>
<path d="M44.4448 23.0032C45.3993 23.0032 46.1731 22.2302 46.1731 21.2767C46.1731 20.3232 45.3993 19.5502 44.4448 19.5502C43.4902 19.5502 42.7164 20.3232 42.7164 21.2767C42.7164 22.2302 43.4902 23.0032 44.4448 23.0032Z" fill="#141720"/>
<path d="M44.1237 24.6943C44.1237 24.6388 44.0817 24.5901 44.0262 24.583C43.5457 24.5099 41.3907 24.2143 39.0755 24.2143C36.4437 24.2143 33.049 25.0383 32.4571 25.0383H31.9312C31.6562 25.0383 30.7721 24.8573 29.6404 24.6696C28.3418 24.4507 26.7191 24.2139 25.3162 24.2139C23.6207 24.2139 22.0085 24.3739 21.0827 24.4852C20.7417 24.5272 20.4945 24.5617 20.3655 24.5826C20.3062 24.5897 20.2646 24.6384 20.2646 24.6939L20.2368 26.1058C20.2368 26.1579 20.268 26.1999 20.3133 26.2205L20.4735 26.2763C20.7102 26.3666 20.6896 30.6199 21.9604 31.6841C22.7159 32.3102 23.3877 32.6684 26.2146 32.6684C27.8545 32.6684 28.8849 32.2266 29.8632 30.9088C30.5699 29.963 31.1933 27.723 31.1933 27.723C31.3847 26.8013 32.0707 26.7282 32.1818 26.7214C32.1889 26.7214 32.196 26.7214 32.196 26.7214C32.217 26.7214 32.9931 26.7353 33.1953 27.723C33.1953 27.723 33.8221 29.9627 34.5254 30.9088C35.5037 32.2266 36.5341 32.6684 38.1738 32.6684C41.0009 32.6684 41.6728 32.3102 42.4279 31.6841C43.6987 30.6199 43.6778 26.3666 43.9148 26.2763L44.075 26.2205C44.1203 26.1995 44.1515 26.1579 44.1515 26.1058L44.1237 24.6943Z" fill="#1A1A1A"/>
<path d="M49.1797 35.2948C50.5863 35.2948 51.7265 34.1558 51.7265 32.7507C51.7265 31.3457 50.5863 30.2067 49.1797 30.2067C47.7732 30.2067 46.6329 31.3457 46.6329 32.7507C46.6329 34.1558 47.7732 35.2948 49.1797 35.2948Z" fill="#141720"/>
<path d="M51.7265 21.911C52.681 21.911 53.4548 21.138 53.4548 20.1845C53.4548 19.231 52.681 18.458 51.7265 18.458C50.772 18.458 49.9982 19.231 49.9982 20.1845C49.9982 21.138 50.772 21.911 51.7265 21.911Z" fill="#141720"/>
<path d="M51.3222 28.4113C52.2767 28.4113 53.0505 27.6383 53.0505 26.6848C53.0505 25.7313 52.2767 24.9583 51.3222 24.9583C50.3677 24.9583 49.5939 25.7313 49.5939 26.6848C49.5939 27.6383 50.3677 28.4113 51.3222 28.4113Z" fill="#141720"/>
</g>
</svg>
