<svg width="40" height="40" viewBox="0 0 40 40" fill="none" xmlns="http://www.w3.org/2000/svg">
<g clip-path="url(#clip0)">
<path d="M23.1554 31.7961L14.7826 34.0175C14.435 34.1098 14.0645 34.01 13.81 33.7559C13.5555 33.5018 13.4553 33.1317 13.5468 32.7837L15.7679 24.3537C15.8136 24.1801 15.9044 24.0223 16.0314 23.8956L31.6221 8.34991V3.0303C31.6201 1.35732 30.2644 0.00197285 28.5918 0H3.63638C1.9634 0.00197285 0.608052 1.35732 0.606079 3.0303V36.9697C0.608052 38.6427 1.9634 39.998 3.63638 40H28.5914C30.2644 39.998 31.6201 38.6427 31.6217 36.9697V23.5227L23.6099 31.5341C23.4841 31.66 23.3274 31.7503 23.1554 31.7961Z" fill="#76828C"/>
<path d="M38.0938 9.02265C36.9109 7.84328 34.9972 7.84131 33.8123 9.0187L33.2493 9.58018L37.9782 14.3091L38.5365 13.7508C39.7179 12.5667 39.7179 10.6495 38.5365 9.46536L38.0938 9.02265Z" fill="#76828C"/>
<path d="M18.1708 24.6157L22.8993 29.388L36.5499 15.7374L31.819 11.0065L18.1708 24.6157Z" fill="#76828C"/>
<path d="M20.9502 30.2912L17.2708 26.5779L15.9423 31.6197L20.9502 30.2912Z" fill="#76828C"/>
</g>
<defs>
<clipPath id="clip0">
<rect width="40" height="40" fill="white"/>
</clipPath>
</defs>
</svg>
