<svg width="40" height="40" viewBox="0 0 40 40" fill="none" xmlns="http://www.w3.org/2000/svg">
<path d="M20 0C8.95543 0 0 8.95456 0 19.9991C0 31.0446 8.95543 40 20 40C31.0446 40 40 31.0446 40 19.9991C40 8.95456 31.0454 0 20 0ZM23.0573 30.9197C23.0573 32.5968 21.6841 33.9561 20.0087 33.9561C18.3325 33.9561 16.9601 32.5968 16.9601 30.9197V17.6359C16.9601 15.9597 18.3325 14.6004 20.0087 14.6004C21.6841 14.6004 23.0573 15.9588 23.0573 17.6359V30.9197ZM20 12.0922C18.1501 12.0922 16.6502 10.5923 16.6502 8.74329C16.6502 6.89249 18.1501 5.39439 20 5.39439C21.8491 5.39439 23.3498 6.89249 23.3498 8.74329C23.3498 10.5923 21.8491 12.0922 20 12.0922Z" fill="#76828C"/>
</svg>
