<svg width="40" height="40" viewBox="0 0 40 40" fill="none" xmlns="http://www.w3.org/2000/svg">
<path d="M20 0C8.94602 0 0 8.94508 0 20C0 31.054 8.94508 40 20 40C31.054 40 40 31.0549 40 20C40 8.94602 31.0549 0 20 0ZM30.7428 22.3666C30.7428 23.1029 30.1459 23.6999 29.4095 23.6999H21.4652V27.4436C21.4652 28.5596 20.1795 29.172 19.3116 28.4948L9.77031 21.0513C9.08586 20.5173 9.08734 19.4815 9.77031 18.9487L19.3116 11.5052C20.1845 10.8245 21.4652 11.4465 21.4652 12.5565V16.3002H29.4095C30.1459 16.3002 30.7429 16.8971 30.7429 17.6335V22.3666H30.7428Z" fill="#76828C"/>
</svg>
