<svg width="40" height="40" viewBox="0 0 40 40" fill="none" xmlns="http://www.w3.org/2000/svg">
<g clip-path="url(#clip0)">
<path d="M25 21.6667C24.0783 21.6667 23.3333 22.4133 23.3333 23.3333V30C23.3333 30.9183 22.5867 31.6667 21.6667 31.6667H16.6667V6.66667C16.6667 5.24333 15.76 3.97167 14.3967 3.49833L13.9033 3.33333H21.6667C22.5867 3.33333 23.3333 4.08167 23.3333 5V10C23.3333 10.92 24.0783 11.6667 25 11.6667C25.9217 11.6667 26.6667 10.92 26.6667 10V5C26.6667 2.24333 24.4233 0 21.6667 0H3.75C3.68667 0 3.63333 0.0283333 3.57167 0.0366667C3.49167 0.03 3.415 0 3.33333 0C1.495 0 0 1.495 0 3.33333V33.3333C0 34.7567 0.906667 36.0283 2.27 36.5017L12.3 39.845C12.64 39.95 12.9783 40 13.3333 40C15.1717 40 16.6667 38.505 16.6667 36.6667V35H21.6667C24.4233 35 26.6667 32.7567 26.6667 30V23.3333C26.6667 22.4133 25.9217 21.6667 25 21.6667Z" fill="#76828C"/>
<path d="M39.5117 15.4883L32.845 8.82166C32.3683 8.34499 31.6516 8.20166 31.0283 8.45999C30.4066 8.71832 30 9.32666 30 9.99999V15H23.3333C22.4133 15 21.6666 15.7467 21.6666 16.6667C21.6666 17.5867 22.4133 18.3333 23.3333 18.3333H30V23.3333C30 24.0067 30.4066 24.615 31.0283 24.8733C31.6516 25.1317 32.3683 24.9883 32.845 24.5117L39.5117 17.845C40.1633 17.1933 40.1633 16.14 39.5117 15.4883Z" fill="#76828C"/>
</g>
<defs>
<clipPath id="clip0">
<rect width="40" height="40" fill="white"/>
</clipPath>
</defs>
</svg>
