<svg width="64" height="64" viewBox="0 0 64 64" fill="none" xmlns="http://www.w3.org/2000/svg">
<mask id="mask0" mask-type="alpha" maskUnits="userSpaceOnUse" x="0" y="0" width="64" height="64">
<circle cx="32" cy="32" r="32" fill="#C4C4C4"/>
</mask>
<g mask="url(#mask0)">
<path d="M32.0252 64.0504C49.7122 64.0504 64.0504 49.7122 64.0504 32.0252C64.0504 14.3382 49.7122 0 32.0252 0C14.3382 0 0 14.3382 0 32.0252C0 49.7122 14.3382 64.0504 32.0252 64.0504Z" fill="#7E6990"/>
<path d="M50.6026 68.3381V68.3415H13.4706V68.3381C13.4706 66.2414 13.8172 64.222 14.4613 62.3425C14.5767 62.0031 14.7026 61.6671 14.8392 61.3345V61.3311C14.9723 60.9985 15.119 60.6731 15.2732 60.3513C15.8856 59.0598 16.6489 57.8523 17.5343 56.7462C17.7583 56.4695 17.986 56.2002 18.2203 55.9411C18.3357 55.808 18.4582 55.6787 18.5808 55.549C18.7033 55.423 18.8259 55.2971 18.9518 55.1711C19.5782 54.5444 20.2502 53.9704 20.9573 53.4421C21.311 53.1796 21.6677 52.9345 22.0388 52.6965C22.1719 52.6125 22.3047 52.5284 22.4412 52.448C22.5008 52.413 22.5637 52.3779 22.6233 52.3428C22.8054 52.2342 22.9872 52.1294 23.1728 52.0279C23.1799 52.0208 23.1867 52.0208 23.1867 52.0208C23.3372 51.9401 23.4843 51.8526 23.6313 51.7617C24.0688 51.4993 24.4889 51.2085 24.8878 50.8868C26.1723 49.8649 27.2364 48.5767 27.9993 47.1102C28.241 46.6448 28.4545 46.1617 28.6329 45.6647C29.0774 44.4256 29.3191 43.0921 29.3191 41.6991L32.0245 41.7131H32.0317L34.8071 41.7274C34.8071 43.1027 35.0417 44.4225 35.4754 45.6474C35.6504 46.1481 35.8604 46.6308 36.1018 47.0965C36.8613 48.5699 37.922 49.8649 39.2065 50.8906C39.4584 51.0969 39.714 51.2862 39.9837 51.4645C40.0116 51.4856 40.0361 51.503 40.064 51.5207C40.19 51.6048 40.3159 51.6889 40.449 51.7658C40.5927 51.8533 40.7397 51.9408 40.8865 52.0211C40.911 52.0283 40.9321 52.0385 40.9494 52.0525C41.1139 52.1437 41.2786 52.238 41.4393 52.336C41.5796 52.4164 41.7195 52.5005 41.8594 52.5879C42.0027 52.6754 42.1464 52.7663 42.2863 52.8678C42.5767 53.0533 42.8603 53.2565 43.1367 53.4662C43.1367 53.4697 43.1401 53.4696 43.1401 53.4696H43.1438C43.4972 53.7321 43.8403 54.0123 44.1763 54.2989C44.5123 54.5859 44.8344 54.8872 45.1459 55.1987C48.5198 58.559 50.6026 63.2 50.6026 68.3381Z" fill="#ECC19C"/>
<path d="M50.6026 68.3381H13.4706C13.4706 66.2414 13.8172 64.222 14.4613 62.3425C14.5767 62.0031 14.7026 61.6671 14.8392 61.3345V61.3311C14.9723 60.9985 15.119 60.6731 15.2732 60.3514C15.8856 59.0598 16.6489 57.8523 17.5343 56.7462C17.7583 56.4695 17.986 56.2002 18.2203 55.9411C18.3357 55.808 18.4582 55.6787 18.5808 55.549C18.7033 55.423 18.8259 55.2971 18.9518 55.1711C19.5782 54.5444 20.2502 53.9704 20.9573 53.4421C21.311 53.1796 21.6677 52.9345 22.0388 52.6965C22.1719 52.6125 22.3047 52.5284 22.4412 52.448C22.5008 52.4096 22.5603 52.3745 22.6196 52.3394C22.8017 52.2308 22.9872 52.126 23.1728 52.0245C23.1799 52.0174 23.1867 52.0211 23.1867 52.0211V52.0177C23.3372 51.9336 23.4843 51.8496 23.6313 51.7624C24.0688 51.4962 24.4889 51.2024 24.8807 50.8804C24.8841 50.8838 24.8841 50.8838 24.8878 50.8872C26.7009 52.7422 29.2245 53.8938 32.0245 53.9006H32.0524C34.8524 53.9006 37.3866 52.7456 39.2065 50.8906L39.2099 50.8872C39.4584 51.0938 39.7174 51.2862 39.9833 51.4645C40.0112 51.4856 40.0357 51.503 40.0637 51.5207C40.1896 51.6048 40.319 51.6851 40.4487 51.7658C40.5923 51.8533 40.7394 51.9374 40.8861 52.0177C40.9106 52.0249 40.928 52.0388 40.9491 52.0491C41.1135 52.1403 41.2817 52.2346 41.4427 52.3326C41.5826 52.4167 41.7229 52.5008 41.8594 52.5883C42.0027 52.6758 42.1464 52.7667 42.2863 52.8681C42.5767 53.0536 42.8603 53.2569 43.1367 53.4666H43.1438C43.4972 53.7325 43.8437 54.0092 44.1763 54.2996C44.5123 54.5866 44.8344 54.8879 45.1459 55.1993C48.5198 58.559 50.6026 63.2 50.6026 68.3381Z" fill="#1C5A7D"/>
<path d="M41.4427 52.3327L41.4393 52.3361L41.0577 52.7245C38.6567 55.1711 35.4505 56.5185 32.031 56.5185C32.0276 56.5185 32.0276 56.5185 32.0238 56.5185C28.5729 56.508 25.3774 55.1606 22.9869 52.7177L22.623 52.3432L22.6196 52.3398C22.8017 52.2312 22.9872 52.1264 23.1728 52.0249C23.1799 52.0178 23.1867 52.0215 23.1867 52.0215V52.0181C23.3372 51.934 23.4842 51.8499 23.6313 51.7628C24.0688 51.4966 24.4888 51.2028 24.8807 50.8807C24.8841 50.8841 24.8841 50.8841 24.8878 50.8875C26.7009 52.7425 29.2245 53.8942 32.0245 53.901H32.0524C34.8524 53.901 37.3865 52.7459 39.2065 50.8909L39.2099 50.8875C39.4584 51.0942 39.7174 51.2865 39.9833 51.4649C40.0112 51.486 40.0357 51.5034 40.0637 51.5211C40.1896 51.6052 40.319 51.6855 40.4487 51.7662C40.5923 51.8537 40.7394 51.9378 40.8861 52.0181C40.9106 52.0252 40.928 52.0392 40.9491 52.0494C41.1139 52.14 41.282 52.2346 41.4427 52.3327Z" fill="#7CA6BA"/>
<path d="M46.287 21.8193V30.3626C46.287 30.5164 46.2836 30.6707 46.2802 30.8245C46.2768 30.9433 46.273 31.0625 46.2662 31.1813C46.2628 31.3004 46.2557 31.4158 46.2451 31.5347C46.2417 31.615 46.2345 31.6957 46.2277 31.7764C46.2243 31.8254 46.2209 31.8707 46.2138 31.9197C46.207 32.0072 46.1998 32.0981 46.1859 32.1855C46.1787 32.2696 46.1719 32.3537 46.158 32.4375C46.1508 32.5181 46.1406 32.6019 46.1263 32.686C46.095 32.9379 46.0528 33.1898 46.0071 33.4383C45.9758 33.6065 45.9442 33.7743 45.9091 33.9391C45.9057 33.9462 45.9057 33.953 45.9023 33.9602C45.8989 33.9847 45.8951 34.0092 45.8883 34.0337C45.8849 34.0409 45.8849 34.0477 45.8812 34.0548C45.8812 34.062 45.8812 34.0688 45.8778 34.0759C45.8706 34.111 45.8638 34.1461 45.8533 34.1808C45.8465 34.2227 45.8359 34.2649 45.8254 34.3067C45.8185 34.3524 45.8076 34.3942 45.7937 34.4364C45.7831 34.4994 45.7658 34.5624 45.7515 34.6254C45.7409 34.6604 45.7341 34.6989 45.7202 34.734C45.713 34.7656 45.7028 34.797 45.6957 34.8252C45.6221 35.1122 45.538 35.392 45.4505 35.6722C45.4087 35.8053 45.3665 35.9347 45.3212 36.0678C45.3174 36.0817 45.3106 36.0957 45.3069 36.1096C45.265 36.2288 45.2228 36.3476 45.1809 36.4667C45.167 36.5018 45.153 36.5365 45.1391 36.5753C45.0968 36.6873 45.055 36.7993 45.0097 36.9113C44.9573 37.0478 44.9011 37.181 44.8453 37.3141C44.7962 37.4332 44.7438 37.552 44.6911 37.6708C44.6842 37.6919 44.6737 37.7093 44.6665 37.7304C44.607 37.8564 44.5511 37.9823 44.4916 38.1049C44.432 38.2342 44.369 38.3639 44.3026 38.4936C44.1767 38.749 44.0402 39.0046 43.9036 39.2531L43.7147 39.5891C43.1755 40.5168 42.577 41.3883 41.9261 42.193C41.8386 42.3084 41.7477 42.4204 41.6531 42.529C41.5234 42.6867 41.3906 42.8405 41.2575 42.991C41.1384 43.1241 41.0196 43.2569 40.897 43.3866C40.561 43.7471 40.2179 44.0902 39.8679 44.4123C39.7978 44.4824 39.7246 44.5454 39.6507 44.6118C39.5316 44.7204 39.4128 44.8252 39.2902 44.9267C39.1956 45.0107 39.0979 45.0911 38.9995 45.1718C38.7476 45.3781 38.4957 45.5776 38.24 45.7631C38.1348 45.8438 38.0265 45.9207 37.9179 45.9942C37.743 46.1202 37.5642 46.2393 37.3859 46.3547C37.2878 46.4211 37.1864 46.4841 37.0849 46.5437C36.7595 46.7466 36.4269 46.9321 36.1014 47.0965C36.0701 47.1139 36.0422 47.1279 36.0105 47.1418C35.9231 47.1874 35.8356 47.2293 35.7481 47.2715C35.6606 47.3134 35.5697 47.3556 35.4751 47.3975C35.3596 47.4499 35.2442 47.4989 35.1285 47.5445C35.0829 47.5653 35.0373 47.583 34.992 47.597C34.8555 47.6528 34.7152 47.7056 34.5791 47.7508C34.4075 47.8138 34.2325 47.8662 34.0613 47.9153C33.9421 47.9503 33.8199 47.9816 33.7008 48.0096C33.6936 48.0133 33.6868 48.0167 33.6762 48.0167C33.5571 48.0446 33.4383 48.0725 33.3191 48.0936C33.2875 48.1008 33.2562 48.1076 33.2245 48.111C33.1265 48.1284 33.0284 48.1461 32.9304 48.1566C32.7905 48.1774 32.6505 48.1951 32.5106 48.2022C32.4616 48.2094 32.416 48.2128 32.3673 48.2128C32.2553 48.2196 32.1433 48.2233 32.0347 48.2233H32.0242C31.9156 48.2233 31.8073 48.2199 31.6987 48.2128C31.6565 48.2128 31.6146 48.2094 31.5728 48.2022C31.4747 48.1985 31.3733 48.1883 31.2681 48.1743C31.247 48.1743 31.2225 48.1709 31.2017 48.1672C31.0723 48.1498 30.9426 48.1287 30.8095 48.1042C30.6975 48.0868 30.5855 48.0623 30.4701 48.0344C29.8716 47.8979 29.2558 47.6913 28.6325 47.4148C28.4225 47.3202 28.209 47.2225 27.999 47.1101C27.6735 46.9491 27.3481 46.767 27.026 46.5675C26.7564 46.4031 26.4868 46.2281 26.2209 46.0426C26.0878 45.9479 25.9551 45.8536 25.8219 45.7556C25.4056 45.4509 24.9923 45.1187 24.5865 44.7616C24.4745 44.6601 24.3625 44.5587 24.2505 44.4535C24.1385 44.352 24.0265 44.2472 23.9179 44.1454C23.6449 43.8829 23.3791 43.6099 23.12 43.3263C23.0185 43.2177 22.9171 43.1061 22.8153 42.9903C22.5355 42.6754 22.2621 42.35 22.0034 42.0102C21.9019 41.8877 21.8073 41.7617 21.713 41.6358C21.3597 41.167 21.0237 40.6768 20.7084 40.1692C20.6243 40.0327 20.5406 39.8924 20.4599 39.7563C20.3619 39.5918 20.2676 39.4237 20.1729 39.2558C19.823 38.6257 19.5009 37.9714 19.2208 37.2957C19.1789 37.1976 19.1367 37.0996 19.1016 37.0019C19.0458 36.8759 18.9968 36.7466 18.9511 36.6203C18.881 36.4347 18.8146 36.2492 18.7517 36.0637C18.6887 35.8781 18.6291 35.6892 18.5695 35.5003C18.5134 35.3181 18.4609 35.1364 18.4119 34.9508C18.3561 34.7547 18.3037 34.5553 18.258 34.3524C18.2546 34.3313 18.2475 34.3101 18.2441 34.2894C18.1777 34.0095 18.1181 33.726 18.0657 33.4387C17.9956 33.0608 17.9397 32.6758 17.8975 32.2873C17.8802 32.1648 17.8696 32.0422 17.8591 31.9197C17.8451 31.7903 17.8345 31.664 17.8277 31.5347C17.8104 31.3001 17.7998 31.0621 17.7927 30.8242C17.7893 30.67 17.7855 30.5161 17.7855 30.3622V21.8193C17.7855 19.8628 18.1811 17.9973 18.895 16.2996C18.9123 16.2506 18.9334 16.2053 18.9545 16.1597C19.2313 15.5193 19.553 14.9032 19.9207 14.3153C19.9768 14.221 20.0361 14.1297 20.0956 14.0388C22.6366 10.1467 27.0294 7.57414 32.0238 7.57074H32.0378C33.1231 7.57074 34.1797 7.69329 35.1949 7.9207C36.1225 8.13074 37.0148 8.43168 37.8618 8.81329C39.0168 9.33108 40.0912 9.99627 41.0574 10.7908C41.8693 11.4557 42.608 12.2046 43.2517 13.0308C43.5037 13.3529 43.7416 13.6851 43.9659 14.0283C44.0289 14.1226 44.0919 14.2172 44.1481 14.3153C44.512 14.8998 44.8374 15.5125 45.1139 16.1529L45.1768 16.2999C45.8768 17.9626 46.2689 19.7825 46.2829 21.6936C46.287 21.7352 46.287 21.777 46.287 21.8193Z" fill="#ECC19C"/>
<path d="M46.287 30.3626C46.287 30.5164 46.2836 30.6706 46.2802 30.8245C46.2768 30.9433 46.273 31.0625 46.2662 31.1813C46.2628 31.3004 46.2557 31.4158 46.2451 31.5346C46.2417 31.615 46.2346 31.6957 46.2278 31.7763C46.2244 31.8254 46.221 31.8706 46.2138 31.9197C46.207 32.0072 46.1998 32.098 46.1859 32.1855C46.1787 32.2696 46.1685 32.3537 46.158 32.4375C46.1508 32.5181 46.1406 32.6019 46.1263 32.686C46.095 32.9379 46.0528 33.1898 46.0072 33.4383C45.9792 33.5854 45.9513 33.729 45.9197 33.8723C45.9163 33.904 45.9091 33.9319 45.9023 33.9598C45.8989 33.9843 45.8952 34.0089 45.8884 34.0334C45.8849 34.0405 45.8849 34.0473 45.8812 34.0545C45.8812 34.0616 45.8812 34.0684 45.8778 34.0756C45.8778 34.079 45.8778 34.0827 45.8778 34.0827C45.8707 34.1212 45.8604 34.1597 45.8533 34.1947C45.8465 34.2332 45.8359 34.2717 45.8254 34.3067C45.8186 34.3523 45.8077 34.3942 45.7937 34.4364C45.7798 34.5062 45.7621 34.5729 45.7413 34.6393C45.7379 34.6706 45.7307 34.7023 45.7205 34.7336C45.7134 34.7653 45.7032 34.7966 45.696 34.8249C45.6225 35.1118 45.5384 35.3917 45.4509 35.6718C45.409 35.8049 45.3668 35.9343 45.3215 36.0674C45.3178 36.0814 45.311 36.0953 45.3072 36.1093C45.2654 36.2284 45.2232 36.3472 45.1813 36.4664C45.1673 36.5015 45.1534 36.5362 45.1394 36.575C45.0972 36.687 45.0553 36.799 45.0101 36.911C44.9576 37.0475 44.9015 37.1806 44.8456 37.3137C44.7966 37.4329 44.7442 37.5517 44.6914 37.6705C44.6846 37.6916 44.6741 37.7089 44.6669 37.73C44.6073 37.856 44.5515 37.982 44.4919 38.1045C44.4324 38.2339 44.3694 38.3636 44.303 38.4933C44.177 38.7486 44.0405 39.0043 43.904 39.2528L43.7151 39.5888C43.1758 40.5164 42.5774 41.3879 41.9265 42.1927C41.839 42.3081 41.7481 42.4201 41.6535 42.5287C41.5238 42.6863 41.391 42.8402 41.2579 42.9906C41.1387 43.1237 41.0199 43.2565 40.8974 43.3862C40.5614 43.7467 40.2182 44.0899 39.8683 44.4119C39.7981 44.482 39.725 44.545 39.6511 44.6114C39.5319 44.72 39.4131 44.8249 39.2906 44.9263C39.1959 45.0104 39.0982 45.0907 38.9998 45.1714C38.7479 45.3777 38.496 45.5772 38.2404 45.7627C38.1352 45.8434 38.0269 45.9203 37.9183 45.9939C37.7433 46.1198 37.5646 46.239 37.3862 46.3544C37.2882 46.4208 37.1867 46.4837 37.0853 46.5433C36.7598 46.7462 36.4272 46.9317 36.1018 47.0962C36.0705 47.1135 36.0426 47.1275 36.0109 47.1414C35.9234 47.1871 35.8359 47.2289 35.7484 47.2711C35.661 47.313 35.5701 47.3552 35.4754 47.3971C35.36 47.4495 35.2446 47.4986 35.1289 47.5442C35.0832 47.5649 35.0376 47.5826 34.9924 47.5966C34.8558 47.6524 34.7156 47.7052 34.5794 47.7505C34.4078 47.8134 34.2329 47.8659 34.0616 47.9149C33.9425 47.95 33.8203 47.9813 33.7011 48.0092C33.694 48.0129 33.6872 48.0163 33.6766 48.0163C33.5575 48.0443 33.4387 48.0722 33.3195 48.0933C33.2878 48.1004 33.2565 48.1072 33.2249 48.1106C33.1268 48.128 33.0288 48.1457 32.9307 48.1563C32.7908 48.177 32.6509 48.1947 32.511 48.2019C32.462 48.209 32.4164 48.2124 32.3677 48.2124C32.2557 48.2192 32.1437 48.223 32.0351 48.223H32.0245C31.9159 48.223 31.8077 48.2196 31.6991 48.2124C31.6569 48.2124 31.615 48.209 31.5731 48.2019C31.4751 48.1981 31.3736 48.1879 31.2684 48.174C31.2473 48.174 31.2228 48.1706 31.2021 48.1668C31.0727 48.1495 30.943 48.1283 30.8099 48.1038C30.6979 48.0865 30.5859 48.062 30.4705 48.034C29.872 47.8975 29.2562 47.6909 28.6329 47.4145C28.4228 47.3198 28.2094 47.2221 27.9993 47.1098C27.6739 46.9488 27.3484 46.7666 27.0264 46.5672C26.7568 46.4061 26.4909 46.2311 26.2213 46.0422C26.0882 45.9476 25.9554 45.8533 25.8223 45.7552C25.406 45.4506 24.9927 45.1183 24.5869 44.7612C24.4749 44.6597 24.3629 44.5583 24.2509 44.4531C24.1389 44.3517 24.0269 44.2468 23.9183 44.145C23.6453 43.8826 23.3794 43.6095 23.1204 43.326C23.0189 43.2174 22.9175 43.1057 22.8157 42.99C22.5358 42.6751 22.2625 42.3496 22.0038 42.0099C21.9023 41.8873 21.8077 41.7614 21.7134 41.6354C21.36 41.1666 21.024 40.6764 20.7088 40.1689C20.6247 40.0323 20.541 39.8921 20.4603 39.7559C20.3622 39.5915 20.2679 39.4233 20.1733 39.2555C19.8233 38.6254 19.5013 37.9711 19.2211 37.2953C19.1793 37.1973 19.137 37.0992 19.102 37.0015C19.0461 36.8756 18.9971 36.7462 18.9515 36.6199C18.8814 36.4344 18.815 36.2489 18.752 36.0633C18.689 35.8778 18.6295 35.6889 18.5699 35.4999C18.5137 35.3178 18.4613 35.136 18.4123 34.9505C18.3564 34.7544 18.304 34.5549 18.2584 34.352C18.255 34.3309 18.2478 34.3098 18.2444 34.289C18.1781 34.0092 18.1185 33.7256 18.0661 33.4383C17.9959 33.0604 17.9401 32.6754 17.8979 32.287C17.8805 32.1644 17.87 32.0419 17.8594 31.9193C17.8455 31.79 17.8349 31.6637 17.8281 31.5343C17.8107 31.2997 17.8002 31.0618 17.793 30.8238C17.7896 30.6696 17.7859 30.5157 17.7859 30.3619L20.061 34.8351L23.9704 36.5396L28.5941 36.9563H28.5975L32.0238 37.2677H32.045L35.2511 37.5585C35.2545 37.5585 35.2545 37.5585 35.2545 37.5585L42.4051 38.2026L46.287 30.3626Z" fill="#D4DCE6"/>
<path d="M32.0521 32.6099L32.0487 36.0573V36.0611L32.0453 37.2686V38.217L32.0419 41.367V41.3704L32.0385 41.367H32.0351L32.0316 41.3636L32.0245 41.3602L18.2587 34.3532C18.2553 34.3321 18.2482 34.311 18.2447 34.2902C18.1784 34.0104 18.1188 33.7268 18.0664 33.4395C17.9962 33.0616 17.9404 32.6766 17.8982 32.2882C17.8808 32.1656 17.8703 32.043 17.8597 31.9205C17.8458 31.7911 17.8352 31.6648 17.8284 31.5355C17.811 31.3009 17.8005 31.063 17.7933 30.825C17.7899 30.6708 17.7862 30.5169 17.7862 30.363V26.1802C17.7862 26.2398 17.7896 26.2994 17.7896 26.3586C17.7896 26.4005 17.793 26.4427 17.7967 26.4846C17.8315 27.4609 17.9928 28.5285 18.29 29.6206C18.5314 30.4955 18.8327 31.304 19.1826 32.0253V32.0287C20.0997 33.9362 21.328 35.2311 22.4589 35.4412C22.5287 35.4517 22.6022 35.4585 22.6723 35.4657C23.1098 35.5147 23.5683 35.5426 24.0408 35.5426C25.8257 35.5426 27.4114 34.1077 28.4088 33.5266C28.416 33.5232 28.4228 33.5195 28.4299 33.5161C28.4824 33.4844 28.5351 33.4531 28.5804 33.4214C28.5944 33.4109 28.6083 33.4041 28.6223 33.3969C29.4625 32.9173 30.6733 32.6129 32.0245 32.6095H32.0521V32.6099Z" fill="#D4DCE6"/>
<path d="M46.2914 26.1785L46.288 30.3609C46.288 31.4108 46.1899 32.4399 46.0082 33.4374C45.9346 33.8363 45.8505 34.2319 45.7528 34.6237L42.5222 39.2893L32.0429 41.3648H32.0395L32.0361 41.3682V41.3648L32.0255 32.6064H32.0534C33.4042 32.6098 34.6189 32.9145 35.4587 33.3938C35.4727 33.4009 35.4832 33.4077 35.4972 33.4183C35.5462 33.4496 35.5986 33.4813 35.651 33.5126C35.6544 33.5163 35.6616 33.5197 35.6687 33.5231C36.6696 34.1042 38.2516 35.5402 40.0367 35.5402C40.5093 35.5402 40.9678 35.5122 41.4053 35.4632C41.4788 35.4561 41.5486 35.4493 41.6221 35.4387C42.7489 35.2287 43.9813 33.9337 44.8946 32.0263V32.0229C45.2446 31.3019 45.5455 30.4934 45.7872 29.6185C46.1021 28.4634 46.2669 27.3363 46.2876 26.3109C46.2914 26.266 46.2914 26.2241 46.2914 26.1785Z" fill="#D4DCE6"/>
<path d="M32.0364 38.2166C33.9645 38.2166 35.5275 37.7334 35.5275 37.1374C35.5275 36.5414 33.9645 36.0583 32.0364 36.0583C30.1084 36.0583 28.5453 36.5414 28.5453 37.1374C28.5453 37.7334 30.1084 38.2166 32.0364 38.2166Z" fill="#ECC19C"/>
<path d="M44.5195 21.6093C44.5195 21.5497 44.4772 21.4973 44.418 21.4901C43.9176 21.4132 41.6636 21.1051 39.2415 21.1051C36.4939 21.1051 32.9484 21.966 32.3288 21.966H31.7794C31.4924 21.966 30.5685 21.7805 29.3855 21.581C28.0275 21.3499 26.3298 21.1051 24.867 21.1051C23.0927 21.1051 21.4127 21.2733 20.4429 21.3887C20.0858 21.4305 19.8267 21.469 19.6905 21.4901C19.6309 21.4973 19.5891 21.5497 19.5891 21.6093L19.5612 23.086C19.5612 23.1385 19.5925 23.1841 19.6381 23.2052L19.8063 23.2614C20.0548 23.356 20.0337 27.8077 21.3603 28.9209C22.1477 29.5756 22.8514 29.95 25.8086 29.95C27.5203 29.95 28.5981 29.4881 29.6201 28.109C30.355 27.1184 31.0097 24.7769 31.0097 24.7769C31.1986 23.8459 31.874 23.741 32.0245 23.7271C32.0279 23.7271 32.0279 23.7271 32.0316 23.7271H32.0422C32.0493 23.7271 32.0527 23.7271 32.0527 23.7271C32.0772 23.7271 32.8895 23.741 33.0992 24.7769C33.0992 24.7769 33.7538 27.1184 34.4888 28.109C35.5108 29.4881 36.5886 29.95 38.3002 29.95C41.2578 29.95 41.9612 29.5756 42.7486 28.9209C44.0749 27.8077 44.0541 23.356 44.3026 23.2614L44.4708 23.2052C44.5164 23.1841 44.5477 23.1388 44.5477 23.086L44.5195 21.6093ZM29.6197 26.8767C29.1823 27.9058 28.0623 29.2321 26.4803 29.3128C21.7378 29.5507 21.521 28.2278 21.2126 27.178C20.9045 26.1277 20.8241 25.2072 20.9467 24.1608C21.0692 23.1109 21.3351 22.4947 21.8114 22.187C22.0143 22.0505 22.2383 21.9279 22.8088 21.8404C23.3198 21.7669 24.1072 21.7213 25.4199 21.7213C26.1828 21.7213 26.8936 21.7808 27.5305 21.8823C29.2173 22.1553 30.3584 22.7293 30.3584 23.2927C30.3581 23.6811 30.2604 25.3543 29.6197 26.8767ZM42.8953 27.178C42.5872 28.2278 42.3703 29.5511 37.6275 29.3128C36.0456 29.2324 34.9222 27.9058 34.4881 26.8767C33.8475 25.3543 33.7498 23.6811 33.7498 23.2927C33.7498 22.5158 35.9091 21.7213 38.6883 21.7213C41.4638 21.7213 41.9084 21.9279 42.2968 22.187C42.7727 22.4951 43.0389 23.1109 43.1615 24.1608C43.2837 25.2072 43.2034 26.1277 42.8953 27.178Z" fill="#1A1A1A"/>
<path d="M46.3187 16.2962C46.3149 16.2962 46.3149 16.2996 46.3115 16.2996H17.7863C17.7863 6.22301 24.5764 6.62914 32.0246 7.45841C32.028 7.45841 32.028 7.45841 32.0317 7.45841C32.5604 7.51799 33.0921 7.57756 33.6242 7.6368C39.1963 8.25637 43.7321 5.8482 46.0038 3.7168C49.0938 5.91867 49.6436 14.0456 46.3187 16.2962Z" fill="#D4DCE6"/>
<path d="M22.7561 15.7045L22.6792 15.9458C22.6407 16.0646 22.6022 16.1838 22.56 16.2992C22.5249 16.3938 22.4936 16.4881 22.4548 16.5794C21.8005 18.3295 20.8099 19.9326 19.5952 21.3674C18.7415 22.3788 17.8839 24.003 17.7964 26.4844C17.7893 26.6277 17.7859 26.7714 17.7859 26.9218V21.8188C17.7859 18.928 17.7859 16.2992 17.7859 16.2992L18.9549 16.1593L20.096 16.0228L21.44 15.8617L22.7561 15.7045Z" fill="#D4DCE6"/>
<path d="M46.3578 16.3007L41.3893 15.7076L41.4666 15.9476C42.1096 17.9476 43.1939 19.7631 44.5491 21.3686C45.4536 22.4402 46.3581 24.1948 46.3581 26.9253C46.3578 23.1848 46.3578 16.3007 46.3578 16.3007Z" fill="#D4DCE6"/>
<path d="M32.0238 17.7202C37.8879 17.7202 42.6417 16.8191 42.6417 15.7076C42.6417 14.5961 37.8879 13.695 32.0238 13.695C26.1597 13.695 21.4059 14.5961 21.4059 15.7076C21.4059 16.8191 26.1597 17.7202 32.0238 17.7202Z" fill="#D4DCE6"/>
</g>
</svg>
