<svg width="24" height="24" viewBox="0 0 24 24" fill="none" xmlns="http://www.w3.org/2000/svg">
<path d="M23.8273 22.1599L19.9063 18.2389C21.4655 16.3139 22.4041 13.8666 22.4041 11.2021C22.4041 5.02529 17.3788 0 11.202 0C5.02524 0 0 5.02529 0 11.2021C0 17.3789 5.02529 22.4042 11.2021 22.4042C13.8666 22.4042 16.3139 21.4655 18.2389 19.9063L22.1599 23.8273C22.3902 24.0576 22.7634 24.0576 22.9938 23.8273L23.4106 23.4105L23.8273 22.9937C24.0576 22.7634 24.0576 22.3901 23.8273 22.1599ZM11.2021 20.0458C6.32538 20.0458 2.35835 16.0788 2.35835 11.2021C2.35835 6.32538 6.32538 2.35835 11.2021 2.35835C16.0788 2.35835 20.0458 6.32538 20.0458 11.2021C20.0458 16.0788 16.0788 20.0458 11.2021 20.0458Z" fill="#69747E"/>
</svg>
