<svg width="48" height="48" viewBox="0 0 48 48" fill="none" xmlns="http://www.w3.org/2000/svg">
<path d="M45.1414 19.719L6.41382 3.64933C4.78229 2.97227 2.93907 3.27011 1.6036 4.42623C0.268132 5.58255 -0.290431 7.36417 0.146069 9.07577L3.59316 22.5938H20.4706C21.2472 22.5938 21.8769 23.2234 21.8769 24.0001C21.8769 24.7767 21.2473 25.4065 20.4706 25.4065H3.59316L0.146069 38.9244C-0.290431 40.6361 0.268038 42.4177 1.6036 43.5739C2.94179 44.7324 4.78519 45.0266 6.41391 44.3508L45.1415 28.2812C46.9047 27.5496 48 25.9091 48 24.0001C48 22.0911 46.9047 20.4505 45.1414 19.719Z" fill="#54D38A"/>
</svg>
